<svg width="257" height="257" viewBox="0 0 257 257" fill="none" xmlns="http://www.w3.org/2000/svg">
<g clip-path="url(#clip0)">
<path d="M128.1 256.2C57.4 256.2 0 198.8 0 128.1C0 57.4 57.4 0 128.1 0C198.8 0 256.2 57.4 256.2 128.1C256.2 198.8 198.8 256.2 128.1 256.2Z" fill="#B6CADD"/>
<path d="M170.4 169.5H104.5V195.1H170.4V169.5Z" fill="#EF814B"/>
<path d="M128.1 143.8C152.401 143.8 172.1 124.101 172.1 99.8C172.1 75.4995 152.401 55.8 128.1 55.8C103.8 55.8 84.1001 75.4995 84.1001 99.8C84.1001 124.101 103.8 143.8 128.1 143.8Z" fill="#FFE5CC"/>
<path d="M128.1 144.4C103.5 144.4 83.5 124.4 83.5 99.8C83.5 75.2 103.5 55.2 128.1 55.2C152.7 55.2 172.7 75.2 172.7 99.8C172.7 124.4 152.7 144.4 128.1 144.4ZM128.1 56.4C104.2 56.4 84.7 75.9 84.7 99.8C84.7 123.7 104.2 143.2 128.1 143.2C152 143.2 171.5 123.7 171.5 99.8C171.5 75.9 152 56.4 128.1 56.4Z" fill="#A67C52"/>
<path d="M241.5 187.8C232.9 184.1 215.1 176.1 206.3 169.9C194.5 161.5 183 153.1 168.4 153.1C153.8 153.1 143.6 157.2 130.1 159.5C116.6 161.8 90.9999 161.2 90.3999 171C90.0999 175 91.7999 177.4 94.1999 178.8C85.5999 175.9 73.1999 170.7 63.7999 166.7C49.5999 160.7 41.4999 164.1 39.2999 165.6C37.0999 167.1 34.3999 170.8 41.5999 174C48.7999 177.2 70.3999 190.1 70.3999 190.1C85.1999 198.3 109.2 206.6 139.7 207.4C170.2 208.2 170.1 208.1 191.2 220.5C194.6 222.5 199.5 227 203.9 231.3C219.5 219.9 232.4 205 241.5 187.8ZM107 181.2C116.8 181.5 143.1 181.5 154.3 185L107 181.2Z" fill="#EF814B"/>
<path d="M52.0004 178.9C55.9004 172.7 46.3004 166.2 37.4004 169.9L52.0004 178.9Z" fill="#EF814B"/>
<path d="M52.4002 179.2L51.6002 178.7C52.8002 176.7 52.7002 174.6 51.1002 172.8C48.7002 169.9 43.1002 168.2 37.6002 170.5L37.2002 169.6C43.2002 167.1 49.2002 169.1 51.8002 172.2C53.7002 174.2 53.9002 176.8 52.4002 179.2Z" fill="#6D2A16"/>
<path d="M108.8 180.9C111.6 173.3 99.5998 168.3 90.7998 174.4L108.8 180.9Z" fill="#EF814B"/>
<path d="M109.3 181.1L108.4 180.8C109.3 178.3 108.6 176.1 106.4 174.4C103.1 171.8 96.6 171.1 91.1 174.9L90.5 174.1C96.4 170 103.3 170.8 107 173.6C109.5 175.5 110.3 178.2 109.3 181.1Z" fill="#6D2A16"/>
<path d="M191.5 220.1C170.5 207.7 170.5 207.7 140.5 207H139.8C105.1 206.1 81.6 195.8 70.7 189.8C70.5 189.7 49 176.8 41.8 173.7C39.1 172.5 37.6 171.1 37.4 169.6C37.3 168.2 38.4 166.9 39.5 166.1C40 165.8 43 163.9 48.8 163.9C52.5 163.9 57.4 164.7 63.5 167.3L64.6 167.8C73.8 171.7 85.5 176.6 93.9 179.4C96.9 181.1 100.9 181.5 103.9 181.8C105.3 181.9 108.3 182 112.1 182.1C124.2 182.4 144.6 182.8 154.1 185.7C154.4 185.8 154.6 185.6 154.7 185.4C154.8 185.2 154.6 184.9 154.4 184.8C144.7 181.8 124.3 181.4 112.2 181.1C108.4 181 105.4 181 104 180.8C103.2 180.7 102.4 180.7 101.6 180.6C101.6 180.6 101.5 180.6 101.4 180.5C99.6 180.2 97.2 179.5 94.3 178.5C92.1 177.2 90.5 174.9 90.8 171.2C91.2 164.2 105.8 162.8 118.7 161.5C122.9 161.1 126.8 160.7 130.1 160.2C134.6 159.4 138.8 158.5 142.8 157.5C150.9 155.6 158.6 153.8 168.3 153.8C182.5 153.8 193.5 161.7 205.2 170L205.9 170.5C214.6 176.7 232.4 184.7 241.1 188.4C241.3 188.1 241.4 187.8 241.6 187.5C233 183.8 215.2 175.8 206.5 169.6L205.8 169.1C194 160.7 182.8 152.7 168.3 152.7C158.5 152.7 150.8 154.5 142.6 156.4C138.6 157.3 134.4 158.3 129.9 159.1C126.7 159.7 122.7 160 118.6 160.4C105.3 161.7 90.3 163.2 89.8 171C89.6 173.9 90.3 175.9 91.6 177.4C83.6 174.5 73.2 170.2 65 166.7L63.9 166.2C48 159.5 39.8 164.5 38.9 165.1C38.2 165.5 36.1 167.2 36.3 169.5C36.5 171.4 38.1 173 41.3 174.4C48.4 177.6 69.8 190.3 70.1 190.5C81.1 196.6 104.7 206.9 139.6 207.9H140.3C170 208.7 170 208.7 190.8 220.9C194.1 222.9 198.9 227.2 203.4 231.6C203.7 231.4 203.9 231.2 204.2 231C199.7 226.5 194.9 222.1 191.5 220.1Z" fill="#6D2A16"/>
</g>
<defs>
<clipPath id="clip0">
<rect width="256.2" height="256.2" fill="white"/>
</clipPath>
</defs>
</svg>
