<svg width="257" height="257" viewBox="0 0 257 257" fill="none" xmlns="http://www.w3.org/2000/svg">
<g clip-path="url(#clip0)">
<path d="M128.1 256.2C198.848 256.2 256.2 198.848 256.2 128.1C256.2 57.3523 198.848 0 128.1 0C57.3523 0 0 57.3523 0 128.1C0 198.848 57.3523 256.2 128.1 256.2Z" fill="#B6CADD"/>
<path d="M128.1 256.2C198.848 256.2 256.2 198.848 256.2 128.1C256.2 57.3523 198.848 0 128.1 0C57.3523 0 0 57.3523 0 128.1C0 198.848 57.3523 256.2 128.1 256.2Z" fill="#B6CADD"/>
<path d="M226.9 100.9C224.9 97.8 221.5 96 217.9 96H167L162.8 81C160.1 71.5 151.5 64.9 141.6 64.9H116.3C106.4 64.9 97.8001 71.5 95.1001 81L90.9001 96H38.4001C32.4001 96 27.6001 100.8 27.6001 106.8C27.6001 108.3 27.9001 109.8 28.5001 111.2L60.5001 183.4C62.2001 187.3 66.1001 189.8 70.4001 189.8H185.9C190.2 189.8 194 187.3 195.8 183.4L227.8 111.2C229.2 107.8 228.9 103.9 226.9 100.9ZM122.9 149.2V179.3H100.3L90.4001 149.2H122.9ZM87.0001 138.7L76.4001 106.4H122.8V138.7H87.0001ZM133.4 149.2H165.8L155.9 179.3H133.4V149.2ZM133.4 138.7V106.4H179.8L169.2 138.7H133.4ZM105.2 83.8C106.6 78.8 111.1 75.4 116.3 75.4H141.7C146.9 75.4 151.4 78.8 152.8 83.8L156.2 96H101.9L105.2 83.8ZM38.2001 106.6C38.3001 106.5 38.4001 106.5 38.5001 106.5H65.5001L76.0001 138.7H52.2001L38.1001 106.9C38.1001 106.8 38.1001 106.7 38.2001 106.6ZM70.2001 179.1L56.9001 149.2H79.5001L89.4001 179.3H70.4001C70.3001 179.3 70.2001 179.2 70.2001 179.1ZM186.2 179.1C186.1 179.2 186 179.3 185.9 179.3H166.9L176.8 149.2H199.3L186.2 179.1ZM218.2 106.9L204.1 138.7H180.2L190.8 106.4H217.8C217.9 106.4 218 106.4 218.1 106.5C218.2 106.7 218.2 106.8 218.2 106.9Z" fill="#FFE5CC"/>
<path d="M185.9 190.4H70.4C65.9 190.4 61.8 187.7 60 183.6L28 111.4C27.4 109.9 27 108.4 27 106.8C27 100.5 32.1 95.4 38.4 95.4H90.5L94.5 80.9C97.2 71.2 106.2 64.4 116.3 64.4H141.7C151.8 64.4 160.7 71.2 163.5 80.9L167.6 95.4H218.1C222 95.4 225.5 97.4 227.6 100.6C229.7 103.9 230.1 107.9 228.5 111.5L196.5 183.7C194.5 187.7 190.4 190.4 185.9 190.4ZM38.4 96.6C32.8 96.6 28.2 101.2 28.2 106.8C28.2 108.2 28.5 109.6 29.1 110.9L61.1 183.1C62.7 186.8 66.4 189.2 70.4 189.2H185.9C189.9 189.2 193.6 186.8 195.2 183.1L227.2 110.9C228.6 107.7 228.3 104.1 226.4 101.2C224.5 98.3 221.4 96.6 217.9 96.6H167C166.7 96.6 166.5 96.4 166.4 96.2L162.2 81.2C159.6 72 151.2 65.6 141.6 65.6H116.3C106.8 65.6 98.3 72 95.7 81.2L91.5 96.2C91.4 96.5 91.2 96.7 90.9 96.7H38.4V96.6ZM167 179.9C166.8 179.9 166.6 179.8 166.5 179.6C166.4 179.4 166.4 179.2 166.4 179L176.3 148.9C176.4 148.6 176.6 148.5 176.9 148.5H199.4C199.6 148.5 199.8 148.6 199.9 148.8C200 149 200 149.2 199.9 149.4L186.7 179.3C186.6 179.6 186.2 179.8 185.9 179.8L167 179.9ZM167.8 178.6H185.7L198.4 149.8H177.3L167.8 178.6ZM155.9 179.9H133.4C133.1 179.9 132.8 179.6 132.8 179.3V149.2C132.8 149 132.9 148.9 133 148.8C133.1 148.7 133.3 148.6 133.4 148.6H165.8C166 148.6 166.2 148.7 166.3 148.9C166.4 149.1 166.4 149.3 166.4 149.5L156.5 179.6C156.4 179.7 156.2 179.9 155.9 179.9ZM134 178.6H155.5L165 149.8H134V178.6ZM122.9 179.9H100.3C100 179.9 99.8 179.7 99.7 179.5L89.8 149.4C89.7 149.2 89.8 149 89.9 148.8C90 148.6 90.2 148.5 90.4 148.5H122.8C123.1 148.5 123.4 148.8 123.4 149.1V179.2C123.5 179.6 123.3 179.9 122.9 179.9ZM100.8 178.6H122.3V149.8H91.3L100.8 178.6ZM89.3 179.9H70.4C70 179.9 69.7 179.7 69.6 179.4C69.6 179.3 69.5 179.2 69.5 179.1L56.3 149.5C56.2 149.3 56.2 149.1 56.3 148.9C56.4 148.7 56.6 148.6 56.8 148.6H79.4C79.7 148.6 79.9 148.8 80 149L89.9 179.1C90 179.3 89.9 179.5 89.8 179.7C89.7 179.8 89.5 179.9 89.3 179.9ZM57.8 149.8L70.7 178.6H88.5L79 149.8H57.8ZM204.1 139.3H180.2C180 139.3 179.8 139.2 179.7 139C179.6 138.8 179.6 138.6 179.6 138.4L190.2 106.1C190.3 105.8 190.5 105.7 190.8 105.7H217.8C218.1 105.7 218.4 105.8 218.6 106.1C218.7 106.2 218.8 106.4 218.8 106.6C218.9 106.7 218.9 106.9 218.8 107L204.7 139C204.6 139.2 204.4 139.3 204.1 139.3ZM181.1 138.1H203.7L217.4 107.1H191.2L181.1 138.1ZM169.2 139.3H133.4C133.1 139.3 132.8 139 132.8 138.7V106.4C132.8 106.1 133.1 105.8 133.4 105.8H179.9C180.1 105.8 180.3 105.9 180.4 106.1C180.5 106.3 180.5 106.5 180.5 106.7L169.9 139C169.7 139.2 169.5 139.3 169.2 139.3ZM134 138.1H168.8L179 107.1H134V138.1ZM122.9 139.3H87C86.7 139.3 86.5 139.1 86.4 138.9L75.8 106.6C75.7 106.4 75.8 106.2 75.9 106C76 105.8 76.2 105.7 76.4 105.7H122.9C123.2 105.7 123.5 106 123.5 106.3V138.6C123.5 139 123.2 139.3 122.9 139.3ZM87.4 138.1H122.2V107.1H77.2L87.4 138.1ZM76 139.3H52.2C52 139.3 51.7 139.2 51.6 138.9L37.5 107.1C37.4 106.8 37.4 106.5 37.6 106.2C37.7 106.1 37.7 106.1 37.8 106C38 105.8 38.2 105.8 38.5 105.8H65.4C65.7 105.8 65.9 106 66 106.2L76.5 138.5C76.6 138.7 76.5 138.9 76.4 139.1C76.4 139.2 76.2 139.3 76 139.3ZM52.6 138.1H75.1L65 107.1H38.9L52.6 138.1ZM156.1 96.6H101.8C101.6 96.6 101.4 96.5 101.3 96.4C101.2 96.2 101.1 96 101.2 95.9L104.6 83.7C106.1 78.5 110.9 74.9 116.3 74.9H141.7C147.1 74.9 151.9 78.5 153.4 83.7L156.8 95.9C156.9 96.1 156.8 96.3 156.7 96.4C156.4 96.5 156.3 96.6 156.1 96.6ZM102.6 95.4H155.2L152.1 84C150.8 79.3 146.5 76.1 141.6 76.1H116.3C111.4 76.1 107.1 79.4 105.8 84.1L102.6 95.4Z" fill="#A67C52"/>
<path d="M101.9 95.7L105.2 83.9C106.6 78.9 111.1 75.5 116.3 75.5H141.7C146.9 75.5 151.4 78.9 152.8 83.9L156.1 95.9L158.2 96C161.1 96.1 164 96.1 166.9 95.9L162.8 81C160.1 71.5 151.5 64.9 141.6 64.9H116.3C106.4 64.9 97.8004 71.5 95.1004 81L90.9004 95.9C94.6004 95.8 98.2004 95.8 101.9 95.7Z" fill="#4D6DA3"/>
<path d="M161.8 96.6C160.6 96.6 159.4 96.6 158.2 96.5L156 96.4C155.7 96.4 155.5 96.2 155.4 96L152.1 84C150.8 79.3 146.5 76.1 141.6 76.1H116.3C111.4 76.1 107.1 79.4 105.8 84.1L102.5 95.9C102.4 96.2 102.2 96.3 101.9 96.3C97.8002 96.4 94.2002 96.5 90.9002 96.5C90.7002 96.5 90.5002 96.4 90.4002 96.3C90.3002 96.1 90.2002 95.9 90.3002 95.8L94.5002 80.9C97.2002 71.2 106.2 64.4 116.3 64.4H141.7C151.8 64.4 160.7 71.2 163.5 80.9L167.6 95.7C167.6 95.9 167.6 96.1 167.5 96.2C167.4 96.4 167.2 96.4 167 96.5C165.3 96.5 163.6 96.6 161.8 96.6ZM156.5 95.2L158.2 95.3C160.9 95.4 163.6 95.4 166.1 95.3L162.2 81.2C159.6 72 151.2 65.6 141.6 65.6H116.3C106.8 65.6 98.3002 72 95.7002 81.2L91.8002 95.3C94.7002 95.3 97.9002 95.2 101.5 95.1L104.7 83.7C106.2 78.5 111 74.9 116.4 74.8H141.8C147.2 74.8 152 78.4 153.5 83.6L156.5 95.2Z" fill="#132155"/>
<path d="M180.3 96.6H80.6C80.3 96.6 80 96.3 80 96C80 95.7 80.3 95.4 80.6 95.4H180.3C180.6 95.4 180.9 95.7 180.9 96C180.9 96.3 180.6 96.6 180.3 96.6Z" fill="#A67C52"/>
</g>
<defs>
<clipPath id="clip0">
<rect width="256.3" height="256.3" fill="white"/>
</clipPath>
</defs>
</svg>
