<svg width="256" height="256" viewBox="0 0 256 256" fill="none" xmlns="http://www.w3.org/2000/svg">
<g clip-path="url(#clip0)">
<path d="M127.8 255.6C198.382 255.6 255.6 198.382 255.6 127.8C255.6 57.218 198.382 0 127.8 0C57.218 0 0 57.218 0 127.8C0 198.382 57.218 255.6 127.8 255.6Z" fill="#B6CADD"/>
<path d="M187.7 129.1L183.6 107.4L159.2 73.7L152.4 79.1L157.4 71.2L146.2 55.7L147.1 45.4C147.2 44.8 147.1 44.2 147 43.7L146.5 41.9C146.3 41.1 145.9 40.4 145.4 39.8L144.5 38.9C143.9 38.2 143.1 37.7 142.2 37.5C141.1 37.2 140 37.3 138.9 37.7L137.8 38.2C137.3 38.4 136.8 38.7 136.4 39.1L121.4 52.5L105.8 67.6L73.2002 142C73.2002 142 102.2 193.6 102.9 193.2C103.6 192.8 187.7 129.1 187.7 129.1Z" fill="#FFE5CC"/>
<path d="M102.9 193.8H102.8C102.5 193.7 101.5 193.5 72.7 142.3C72.6 142.1 72.6 141.9 72.7 141.8L105.2 67.3C105.2 67.2 105.3 67.2 105.3 67.1L120.8 52L135.9 38.6C136.4 38.2 136.9 37.8 137.5 37.6L138.6 37.1C139.8 36.6 141.1 36.5 142.3 36.9C143.3 37.2 144.2 37.7 144.9 38.5L145.8 39.4C146.4 40.1 146.8 40.9 147.1 41.7L147.6 43.5C147.8 44.1 147.8 44.8 147.8 45.4L147 55.5L158.1 70.8C158.2 71 158.3 71.3 158.1 71.5L155 76.4L159 73.2C159.1 73.1 159.3 73.1 159.5 73.1C159.7 73.1 159.8 73.2 159.9 73.3L184.3 106.9C184.4 107 184.4 107.1 184.4 107.1L188.5 128.8C188.5 129 188.5 129.3 188.3 129.4C184.9 132 104.1 193 103.4 193.5C103.1 193.8 103 193.8 102.9 193.8ZM73.8 142C84.5 160.9 100.4 188.9 102.9 192.4C109.1 187.8 181.6 132.9 187 128.9L183 107.7L159.1 74.7L152.8 79.7C152.6 79.9 152.2 79.9 152 79.7C151.8 79.5 151.7 79.2 151.9 78.9L156.7 71.3L145.7 56.2C145.6 56.1 145.6 55.9 145.6 55.8L146.5 45.5C146.5 45 146.5 44.5 146.4 44L145.9 42.2C145.7 41.5 145.4 40.9 144.9 40.4L144 39.5C143.5 38.9 142.8 38.5 142 38.3C141.1 38 140 38.1 139.1 38.5L138 39C137.5 39.2 137.1 39.4 136.8 39.8L121.8 53.2L106.3 68.2L73.8 142Z" fill="#A67C52"/>
<path d="M146.1 55.7C147.7 51.1 147.8 46.2 146.4 41.6C145.3 38.1 141.7 36.2 138.2 37.3C137.1 37.6 136.2 38.2 135.4 39.1L128.7 45.3C125.3 48.3 122.1 51.5 119.1 54.9" fill="#FFE5CC"/>
<path d="M146.1 56.3C146 56.3 146 56.3 145.9 56.3C145.6 56.2 145.4 55.8 145.5 55.5C147.1 51 147.2 46.3 145.8 41.8C144.8 38.7 141.5 36.9 138.4 37.9C137.4 38.2 136.5 38.7 135.8 39.5L129 45.7C125.6 48.7 122.4 51.9 119.4 55.2C119.2 55.5 118.8 55.5 118.5 55.2C118.2 55 118.2 54.6 118.5 54.3C121.5 50.9 124.8 47.7 128.2 44.7L134.9 38.5C135.7 37.6 136.8 37 138 36.6C141.8 35.4 145.8 37.6 146.9 41.3C148.4 46.1 148.3 51.1 146.6 55.8C146.6 56.2 146.4 56.3 146.1 56.3Z" fill="#A67C52"/>
<path d="M211.6 168.4C206.7 165.5 202.5 162.6 200.6 160.4C193.7 152 186.1 141.2 186.1 141.2L117.5 201.3C135.5 216.9 158 215.5 175.9 239.1C177.2 240.9 178.4 242.7 179.6 244.6C188.4 240.7 196.7 235.8 204.4 230.1C221.1 217.7 234.6 201.3 243.7 182.3C232.4 179 221.6 174.3 211.6 168.4Z" fill="#EF814B"/>
<path d="M176.2 238.8C165.6 224.8 153.3 219.5 141.5 214.4C133.1 210.8 125.1 207.3 117.7 200.9L117 201.7C124.5 208.2 132.9 211.8 141 215.3C152.7 220.4 164.8 225.6 175.3 239.4C176.6 241.1 177.8 243 179 244.8C179.3 244.7 179.6 244.5 179.9 244.4C178.8 242.5 177.6 240.6 176.2 238.8Z" fill="#6D2A16"/>
<path d="M201 160.1C194.2 151.8 186.6 141 186.5 140.9L185.7 141.5C185.8 141.6 193.4 152.5 200.2 160.8C202 162.9 205.7 165.6 211.3 168.9C221.4 174.9 232.2 179.5 243.3 182.9C243.4 182.6 243.6 182.3 243.7 182C232.6 178.7 221.9 174 211.8 168.1C206.4 164.7 202.6 162 201 160.1Z" fill="#6D2A16"/>
<path d="M101 58.2L93.7002 75.9C93.7002 75.9 105.6 85.1 107.1 84.9C108.6 84.7 127.8 66.6 127.8 66.6L119.1 54.8L101 58.2Z" fill="#EF814B"/>
<path d="M107 85.4C105.3 85.4 96.9 79.1 93.3 76.3L93 76.1L100.6 57.8L119.2 54.3L128.4 66.7L128.1 67C123.6 71.3 108.6 85.3 107 85.4C107.1 85.4 107.1 85.4 107 85.4ZM94.3 75.8C99.9 80.1 106.1 84.4 107 84.5C108.2 84.1 119.8 73.5 127.1 66.6L118.8 55.4L101.3 58.7L94.3 75.8Z" fill="#6D2A16"/>
<path d="M171.6 94.6C176.5 89.8 184.3 89.9 189 94.8C193.9 99.9 192.9 107.9 188 112.9L180.2 120.9" fill="#FFE5CC"/>
<path d="M161.3 105.7L172.7 93.7C178 88.1 177.8 79.4 172.3 74.8C167 70.4 158.2 72.5 153.4 78.2" fill="#FFE5CC"/>
<path d="M161.3 106.3C161.1 106.3 161 106.2 160.9 106.1C160.7 105.9 160.6 105.5 160.9 105.2L172.3 93.2C174.9 90.5 176.2 86.9 176 83.3C175.8 80.1 174.4 77.2 172 75.2C167.2 71.2 158.8 72.8 154 78.5C153.8 78.8 153.4 78.8 153.1 78.6C152.8 78.4 152.8 78 153 77.7C158.2 71.4 167.5 69.8 172.7 74.2C175.4 76.4 176.9 79.6 177.1 83.2C177.3 87.1 175.9 91 173.1 94L161.7 106C161.6 106.2 161.4 106.3 161.3 106.3Z" fill="#A67C52"/>
<path d="M127.8 66.6L126.1 63.7L125.1 62.4C120.5 56.2 115.4 50.5 109.7 45.3L103 39.1C100.5 36.5 96.4004 36.4 93.8004 38.8C93.0004 39.6 92.4003 40.5 92.0003 41.6C90.3003 47.2 90.8004 53.2 93.4004 58.4L97.4004 65.4" fill="#EF814B"/>
<path d="M127.4 66.9L125.7 64L124.7 62.7C120.1 56.6 115 50.8 109.4 45.6L102.7 39.4C101.6 38.2 100.1 37.5 98.5004 37.5C96.9004 37.5 95.4004 38 94.2004 39.2C93.4004 39.9 92.9004 40.8 92.6004 41.8C90.9004 47.3 91.4004 53.1 94.0004 58.2L98.0004 65.2L97.0004 65.6L93.0004 58.6C90.3004 53.2 89.8004 47.1 91.5004 41.4C91.9004 40.2 92.5004 39.2 93.4004 38.4C96.2004 35.7 100.7 35.9 103.4 38.7L110.1 44.8C115.8 50 121 55.8 125.6 62L126.6 63.3L128.3 66.3L127.4 66.9Z" fill="#6D2A16"/>
<path d="M142.7 89.4L153.7 77.7C159.2 72 159.1 63.2 153.7 58.6C151.1 56.6 147.9 55.5 144.6 55.8H144.5C141.8 55.9 139.3 57 137.3 58.7L111.8 80.3" fill="#FFE5CC"/>
<path d="M142.7 90C142.5 90 142.4 89.9 142.3 89.8C142.1 89.6 142 89.2 142.3 88.9L153.3 77.2C156 74.4 157.4 70.7 157.2 67C157 63.8 155.7 60.9 153.3 59C150.9 57.1 147.8 56.1 144.7 56.3C142.1 56.4 139.7 57.4 137.8 59L112.3 80.6C112 80.8 111.7 80.8 111.4 80.5C111.2 80.2 111.2 79.9 111.5 79.6L137 58.2C139.1 56.4 141.8 55.3 144.6 55.2C148.1 54.9 151.5 56 154.1 58.1C156.7 60.3 158.2 63.5 158.4 67C158.6 71 157.1 75.1 154.2 78.1L143.2 89.8C143.1 90 142.9 90 142.7 90Z" fill="#A67C52"/>
<path d="M125.1 62.4C120.5 56.2 115.3 50.5 109.7 45.3L125.1 62.4Z" fill="#EF814B"/>
<path d="M124.7 62.7C120.1 56.6 115 50.8 109.3 45.6L110 44.9C115.7 50.1 120.9 55.9 125.5 62.1L124.7 62.7Z" fill="#6D2A16"/>
<path d="M142.7 89.4L153.7 77.7C159.2 72 159.1 63.2 153.7 58.6C151.1 56.6 147.9 55.5 144.6 55.8H144.5C141.8 55.9 139.3 57 137.3 58.7L111.8 80.3" fill="#FFE5CC"/>
<path d="M142.7 90C142.5 90 142.4 89.9 142.3 89.8C142.1 89.6 142 89.2 142.3 88.9L153.3 77.2C156 74.4 157.4 70.7 157.2 67C157 63.8 155.7 60.9 153.3 59C150.9 57.1 147.8 56.1 144.7 56.3C142.1 56.4 139.7 57.4 137.8 59L112.3 80.6C112 80.8 111.7 80.8 111.4 80.5C111.2 80.2 111.2 79.9 111.5 79.6L137 58.2C139.1 56.4 141.8 55.3 144.6 55.2C148.1 54.9 151.5 56 154.1 58.1C156.7 60.3 158.2 63.5 158.4 67C158.6 71 157.1 75.1 154.2 78.1L143.2 89.8C143.1 90 142.9 90 142.7 90Z" fill="#A67C52"/>
<path d="M97.5003 219.4C106.7 207.6 119.1 198.6 133.3 193.5C146.4 187.2 158.2 178.5 168.2 167.9C171.1 164.8 173.8 161.4 176.1 157.8C180.3 151.6 184.9 145.6 189.9 140L190.1 139.8C192.7 137.5 197.6 130.7 200.2 125.2C202.1 121.2 200.7 116.4 196.9 114.1C193.4 111.9 187 113.9 184.2 116.9L63.5003 131.2C63.5003 131.2 44.5003 164.2 11.0003 179.9H10.8003C19.0003 198 31.2003 213.8 46.3003 226.3C55.9003 234.2 66.7003 240.8 78.3003 245.6L97.5003 219.4Z" fill="#FFE5CC"/>
<path d="M11.2002 180.5H11.3002C44.5002 164.9 63.8002 131.8 64.0002 131.5C64.2002 131.2 64.1002 130.8 63.8002 130.7C63.5002 130.5 63.1002 130.6 63.0002 130.9C62.8002 131.2 43.7002 163.9 10.9002 179.4L10.7002 179.5C10.9002 179.8 11.0002 180.2 11.2002 180.5Z" fill="#A67C52"/>
<path d="M133.5 194.1C146.7 187.7 158.5 179 168.6 168.4C171.5 165.3 174.2 161.9 176.6 158.3C180.7 152.1 185.4 146.2 190.4 140.6L190.5 140.5C193.2 138.1 198.1 131.3 200.8 125.7C202.9 121.4 201.4 116.3 197.3 113.8C193.5 111.5 186.8 113.5 183.8 116.7C183.6 116.9 183.6 117.3 183.8 117.6C184 117.8 184.4 117.8 184.7 117.6C187.4 114.7 193.4 112.9 196.6 114.9C200.1 117.1 201.4 121.5 199.6 125.2C197 130.6 192.1 137.3 189.6 139.6L189.5 139.8C184.5 145.4 179.8 151.4 175.6 157.6C173.3 161.1 170.6 164.5 167.7 167.6C157.7 178.2 146 186.7 133 193C118.8 198.1 106.3 207.1 97 219.1L78 245.4V245.5C78.4 245.7 78.8 245.8 79.2 246L98 219.8C107.2 208.1 119.4 199.2 133.5 194.1Z" fill="#A67C52"/>
<path d="M127.6 113.8C123.6 117.5 117.3 117.2 113.6 113.2L86.2004 83.5C82.5004 79.4 82.8004 73.2 86.8004 69.4L88.2004 68.1C92.3004 64.4 98.6004 64.7 102.3 68.8C102.4 68.9 102.5 69 102.5 69.1L128.5 100.2C131.9 104.2 131.5 110.2 127.6 113.8Z" fill="#EF814B"/>
<path d="M120.9 116.9C118.1 116.9 115.3 115.8 113.2 113.6L85.8001 83.8C81.9001 79.6 82.2001 72.9 86.4001 69L87.8001 67.7C89.9001 65.8 92.6001 64.9 95.4001 65C98.2001 65.1 100.8 66.4 102.7 68.4C102.8 68.5 102.9 68.6 103 68.7L129 99.8C132.5 104.1 132.1 110.4 128 114.1C126 116 123.5 116.9 120.9 116.9ZM94.9001 66C92.5001 66 90.3001 66.9 88.5001 68.5L87.1001 69.8C83.3001 73.3 83.1001 79.3 86.6001 83.2L114.1 113C117.6 116.8 123.6 117 127.4 113.6C131.1 110.2 131.5 104.5 128.3 100.6L102.3 69.5C102.2 69.4 102.1 69.3 102.1 69.2C100.4 67.3 98.1001 66.2 95.5001 66.1C95.2001 66 95.0001 66 94.9001 66Z" fill="#6D2A16"/>
<path d="M115.1 128.4C111.6 131.9 105.9 132.1 102.2 128.7L71.5 100.4C67.7 96.9 67.5 91.1 70.9 87.3C71 87.2 71.1 87.1 71.2 87L73.3 84.8C76.9 81.2 82.8 81.1 86.4 84.7C86.5 84.8 86.6 84.9 86.6 84.9L115.2 115.4C118.7 119.1 118.7 124.8 115.1 128.4Z" fill="#EF814B"/>
<path d="M108.5 131.7C106.1 131.7 103.7 130.8 101.9 129.1L71.1003 100.8C67.1003 97.1 66.9003 90.9 70.5003 87C70.6003 86.9 70.7003 86.8 70.8003 86.7L72.9003 84.5C74.7003 82.6 77.2003 81.6 79.8003 81.6C82.4003 81.6 84.8003 82.6 86.7003 84.4C86.8003 84.5 86.9003 84.6 87.0003 84.7L115.6 115.2C119.2 119.1 119.2 125 115.4 128.8C113.6 130.7 111 131.7 108.5 131.7ZM79.9003 82.6C77.5003 82.6 75.3003 83.5 73.7003 85.2L71.6003 87.4C71.5003 87.5 71.4003 87.6 71.4003 87.6C68.1003 91.2 68.4003 96.7 71.9003 100L102.7 128.3C106.2 131.5 111.6 131.4 114.9 128C118.3 124.6 118.3 119.2 115.1 115.8L86.3003 85.4C86.2003 85.3 86.1003 85.2 86.1003 85.2C84.4003 83.5 82.3003 82.6 79.9003 82.6Z" fill="#6D2A16"/>
<path d="M99.9003 140C96.6003 143.6 91.1003 144 87.3003 140.9L58.0003 117.5C54.0003 114.3 53.4003 108.5 56.6003 104.5C56.7003 104.3 56.9003 104.2 57.0003 104L58.9003 102C62.4003 98.2 68.2003 98 72.0003 101.4C72.0003 101.4 72.0003 101.4 72.1003 101.5L99.6003 127C103.2 130.4 103.4 136.2 99.9003 140Z" fill="#EF814B"/>
<path d="M93.2002 143.4C91.1002 143.4 88.9002 142.7 87.1002 141.3L57.7002 117.8C55.7002 116.2 54.4002 113.8 54.1002 111.2C53.8002 108.6 54.6002 106.1 56.2002 104C56.3002 103.8 56.5002 103.6 56.6002 103.5L58.5002 101.5C60.3002 99.6 62.7002 98.5 65.3002 98.4C67.9002 98.3 70.4002 99.2 72.3002 101L99.9002 126.5C103.8 130.2 104 136.3 100.4 140.3L100 140L100.4 140.3C98.4002 142.4 95.8002 143.4 93.2002 143.4ZM65.7002 99.4C65.6002 99.4 65.4002 99.4 65.3002 99.4C63.0002 99.5 60.8002 100.5 59.2002 102.2L57.3002 104.2C57.2002 104.3 57.0002 104.5 56.9002 104.7C55.4002 106.5 54.8002 108.8 55.0002 111.1C55.3002 113.4 56.4002 115.5 58.2002 117L87.6002 140.5C91.2002 143.3 96.4002 143 99.5002 139.6C102.8 136.1 102.6 130.6 99.1002 127.3L71.6002 101.8C70.0002 100.3 67.9002 99.4 65.7002 99.4Z" fill="#6D2A16"/>
<path d="M84.6 150.4C81.8 153.8 76.9001 154.5 73.3001 151.9L47.6 133.4C43.9 130.7 43 125.5 45.7 121.8C45.8 121.7 45.9 121.5 46 121.4L47.4 119.6C50.3 116 55.5 115.5 59.1 118.4L59.2 118.5L83.5 138.8C87 141.7 87.5 146.9 84.6 150.4Z" fill="#EF814B"/>
<path d="M78.2003 154C76.4003 154 74.6003 153.5 73.1003 152.3L47.4003 133.8C43.5003 131 42.6003 125.4 45.4003 121.5C45.5003 121.4 45.6003 121.2 45.7003 121.1L47.1003 119.3C50.2003 115.5 55.7003 115 59.5003 118L59.6003 118.1L83.9003 138.4C87.6003 141.5 88.1003 147 85.1003 150.7C83.3003 152.8 80.7003 154 78.2003 154ZM53.9003 117.1C51.6003 117.1 49.4003 118.1 47.8003 120L46.4003 121.8C46.3003 121.9 46.2003 122 46.1003 122.2C43.6003 125.7 44.4003 130.6 47.9003 133.1L73.6003 151.6C77.0003 154 81.6003 153.4 84.2003 150.2C86.9003 146.9 86.4003 142 83.1003 139.3L58.8003 119L59.0003 118.5L58.7003 118.9C57.4003 117.6 55.6003 117.1 53.9003 117.1Z" fill="#6D2A16"/>
<path d="M180.3 121.5C180.1 121.5 180 121.4 179.9 121.3C179.7 121.1 179.7 120.7 179.9 120.4L187.7 112.4C192.1 107.9 193.6 100.2 188.7 95.1C184.2 90.5 176.8 90.4 172.2 95C172 95.2 171.6 95.2 171.3 95C171.1 94.8 171.1 94.4 171.3 94.1C176.4 89.1 184.6 89.2 189.6 94.3C194.5 99.3 194 107.7 188.6 113.3L180.8 121.3C180.6 121.5 180.4 121.5 180.3 121.5Z" fill="#A67C52"/>
</g>
<defs>
<clipPath id="clip0">
<rect width="255.6" height="255.6" fill="white"/>
</clipPath>
</defs>
</svg>
