<svg width="256" height="256" viewBox="0 0 256 256" fill="none" xmlns="http://www.w3.org/2000/svg">
<path d="M253.095 154.942C254.998 146.229 256 137.215 256 128C256 92.7451 241.678 60.7951 218.642 37.659L177.177 79.1238L253.095 154.942Z" fill="#3E8366"/>
<path d="M177.178 79.0234L78.0234 178.178L153.341 253.496C203.118 243.48 242.479 204.62 253.196 155.042L177.178 79.0234Z" fill="#FFE5CC"/>
<path d="M153.339 253.496L78.022 178.178L37.5591 218.642C60.6951 241.778 92.6447 256 127.9 256C136.713 256 145.126 255.099 153.339 253.496Z" fill="#EF814B"/>
<path d="M2.5039 102.66C0.901402 110.873 0 119.286 0 128C0 163.355 14.4225 195.405 37.5585 218.642L78.0214 178.178L2.5039 102.66Z" fill="#FFE5CC"/>
<path d="M78.0203 178.178L177.175 79.0234L101.056 2.90445C51.479 13.521 12.5185 52.8826 2.60303 102.76L78.0203 178.178Z" fill="#3E8366"/>
<path d="M128 0C118.785 0 109.671 1.00157 101.058 2.90454L177.276 79.1237L218.741 37.6589C195.505 14.4225 163.455 0 128 0Z" fill="#EF814B"/>
<path d="M177.178 80.4256L252.896 156.144C252.996 155.743 253.096 155.343 253.196 154.942L177.979 79.7245L219.443 38.2597C219.243 38.0594 218.943 37.7589 218.742 37.5586L177.278 79.0234L101.059 2.90445C100.659 3.00461 100.258 3.10476 99.8574 3.20492L176.477 79.8247L78.0234 178.279L2.50596 102.76C2.4058 103.161 2.30566 103.562 2.30566 103.962L77.3223 178.98L37.5605 218.742C37.7608 218.942 38.0613 219.243 38.2616 219.443L77.9233 179.781L152.039 253.897C152.439 253.797 152.84 253.797 153.24 253.696L78.6244 179.08L177.178 80.4256Z" fill="#6D2A16"/>
</svg>
