<svg width="256" height="256" viewBox="0 0 256 256" fill="none" xmlns="http://www.w3.org/2000/svg">
<path d="M128 256C198.692 256 256 198.715 256 128.05C256 57.3851 198.692 0.0999451 128 0.0999451C57.3076 0.0999451 0 57.3851 0 128.05C0 198.715 57.3076 256 128 256Z" fill="#B6CADD"/>
<path d="M132.596 87.0976C134.795 87.0976 136.493 88.7956 136.493 90.9931C136.493 95.6876 138.192 100.182 141.19 103.678L146.985 110.57C149.883 114.066 152.381 117.961 154.08 122.157L155.579 125.652C157.777 130.946 158.976 136.54 158.976 142.233V209.254C158.976 218.244 151.682 225.535 142.689 225.535H111.013C102.02 225.535 94.7261 218.244 94.7261 209.254V142.233C94.7261 136.54 95.9251 130.846 98.1234 125.652L99.6222 122.157C101.421 117.961 103.819 114.066 106.717 110.57L112.512 103.678C115.51 100.182 117.209 95.6876 117.209 90.9931C117.209 88.7956 118.907 87.0976 121.105 87.0976H132.596Z" fill="#3E8366"/>
<path d="M111.112 226.035C101.919 226.035 94.3252 218.544 94.3252 209.255V142.234C94.3252 136.44 95.5243 130.747 97.7225 125.453L99.2214 121.957C101.02 117.662 103.418 113.767 106.416 110.271L112.211 103.379C115.109 99.983 116.808 95.5882 116.808 90.9936C116.808 88.5964 118.806 86.5987 121.204 86.5987H132.595C134.993 86.5987 136.992 88.5964 136.992 90.9936C136.992 95.4883 138.691 99.8831 141.588 103.379L147.384 110.271C150.381 113.767 152.78 117.762 154.578 121.957L156.077 125.453C158.375 130.747 159.474 136.44 159.474 142.234V209.255C159.474 218.444 151.98 226.035 142.687 226.035H111.112ZM121.204 87.5975C119.306 87.5975 117.807 89.0958 117.807 90.9936C117.807 95.788 116.108 100.383 113.011 103.978L107.215 110.87C104.317 114.366 101.919 118.162 100.121 122.357L98.6218 125.853C96.4236 131.047 95.3244 136.64 95.3244 142.234V209.255C95.3244 217.945 102.419 225.036 111.112 225.036H142.787C151.481 225.036 158.575 217.945 158.575 209.255V142.234C158.575 136.54 157.476 131.047 155.278 125.853L153.779 122.357C151.98 118.162 149.682 114.366 146.684 110.87L140.889 103.978C137.791 100.383 136.093 95.788 136.093 90.9936C136.093 89.0958 134.594 87.5975 132.695 87.5975H121.204Z" fill="#6D2A16"/>
<path d="M139.693 94.5893L165.573 78.0087C170.769 74.7126 172.268 67.8206 168.97 62.6267C168.97 62.6267 168.97 62.5269 168.87 62.5269L145.888 27.2681C145.789 27.0684 145.489 26.9685 145.289 26.9685L122.607 29.965C122.307 30.0649 122.007 30.3645 122.107 30.6642C122.107 30.7641 122.207 30.8639 122.207 30.9638L147.187 62.7266C149.885 66.1226 150.385 70.8171 148.386 74.7125L138.694 93.6903C138.494 93.99 138.494 94.3895 138.694 94.5893C138.894 94.789 139.493 94.789 139.693 94.5893Z" fill="#FFE5CC"/>
<path d="M139.292 95.3884C138.992 95.3884 138.692 95.2885 138.493 95.0887C137.993 94.6892 137.993 93.8901 138.393 93.3907L148.085 74.5129C149.984 70.8172 149.484 66.4223 146.986 63.226L122.006 31.4633C121.906 31.2635 121.806 31.0638 121.806 30.864C121.806 30.5643 121.806 30.1648 122.006 29.965C122.205 29.6654 122.505 29.5655 122.805 29.4656L145.487 26.4691C145.987 26.3692 146.386 26.6689 146.686 26.9685L169.668 62.2272L169.768 62.3271C173.265 67.8207 171.667 75.1121 166.171 78.608L140.291 95.0887C139.892 95.2885 139.592 95.3884 139.292 95.3884ZM145.487 27.5679L122.805 30.5644L147.785 62.427C150.583 66.0228 151.083 71.0169 148.984 75.1121L139.292 94.0899L139.192 94.1898C139.192 94.1898 139.292 94.1898 139.392 94.0899L165.272 77.5093C170.168 74.413 171.567 67.8207 168.469 62.9264L145.487 27.5679Z" fill="#A67C52"/>
<path d="M114.708 94.5893L88.7286 78.0087C83.5326 74.7126 82.0338 67.8206 85.3312 62.6267C85.3312 62.6267 85.3312 62.6267 85.3312 62.5269L108.313 27.2681C108.413 27.0684 108.713 26.9685 108.913 26.9685L131.595 29.965C131.895 30.0649 132.195 30.3645 132.095 30.6642C132.095 30.7641 131.995 30.8639 131.995 30.9638L106.914 62.7266C104.216 66.1226 103.717 70.8171 105.715 74.7125L115.408 93.6903C115.608 93.9899 115.508 94.3895 115.208 94.5893C115.208 94.6891 114.908 94.6891 114.708 94.5893Z" fill="#FFE5CC"/>
<path d="M115.008 95.2881C114.708 95.2881 114.508 95.1882 114.309 95.0883L88.4289 78.5078C82.9332 75.0119 81.3344 67.7204 84.8317 62.2268L107.814 26.8683C108.113 26.4688 108.513 26.269 109.013 26.269L131.695 29.2655C131.995 29.3653 132.295 29.4652 132.494 29.7649C132.694 30.0645 132.794 30.3642 132.694 30.6638C132.694 30.8636 132.594 31.0634 132.494 31.1633L107.414 63.0259C104.916 66.2222 104.416 70.7169 106.315 74.3127L116.007 93.2905C116.107 93.4902 116.207 93.7898 116.207 94.1894C116.107 94.489 116.007 94.7887 115.708 94.9885C115.508 95.1883 115.308 95.2881 115.008 95.2881ZM108.913 27.5675L85.9308 62.8262C82.7333 67.8203 84.2321 74.3127 89.1283 77.509L115.108 94.0895L105.316 75.0119C103.217 70.9167 103.717 65.9225 106.515 62.3267L131.595 30.564L108.913 27.5675Z" fill="#A67C52"/>
<path d="M118.609 73.015H135.896C138.794 73.015 141.192 75.4122 141.192 78.3088V89.6954C141.192 92.592 138.794 94.9893 135.896 94.9893H118.609C115.712 94.9893 113.313 92.592 113.313 89.6954V78.3088C113.313 75.4122 115.712 73.015 118.609 73.015Z" fill="#132155"/>
<path d="M135.896 95.588H118.61C115.312 95.588 112.714 92.8912 112.714 89.6949V78.3083C112.714 75.0122 115.412 72.4152 118.61 72.4152H135.896C139.194 72.4152 141.792 75.112 141.792 78.3083V89.6949C141.792 92.9911 139.094 95.588 135.896 95.588ZM118.61 73.6138C116.012 73.6138 113.913 75.7113 113.913 78.3083V89.6949C113.913 92.2919 116.012 94.3894 118.61 94.3894H135.896C138.494 94.3894 140.593 92.2919 140.593 89.6949V78.3083C140.593 75.7113 138.494 73.6138 135.896 73.6138H118.61Z" fill="#132155"/>
<path d="M125.604 142.334C137.194 142.334 146.687 151.723 146.687 163.409V180.289C146.687 191.876 137.294 201.365 125.604 201.365C114.013 201.365 104.52 191.975 104.52 180.289V163.409C104.62 151.723 114.013 142.334 125.604 142.334Z" fill="#FEE6CB"/>
<path d="M125.603 201.864C113.712 201.864 104.02 192.175 104.02 180.289V163.409C104.02 151.523 113.712 141.834 125.603 141.834C137.494 141.834 147.186 151.523 147.186 163.409V180.289C147.186 192.175 137.494 201.864 125.603 201.864ZM125.603 142.833C114.312 142.833 105.019 152.022 105.019 163.409V180.289C105.019 191.576 114.212 200.865 125.603 200.865C136.894 200.865 146.187 191.675 146.187 180.289V163.409C146.187 152.022 136.994 142.833 125.603 142.833Z" fill="#6D2A16"/>
<path d="M128.001 0C115.211 0 102.921 1.89776 91.3296 5.29378C92.3288 19.6769 101.522 30.9637 112.613 30.9637H143.289C154.48 30.9637 163.573 19.7768 164.672 5.29378C153.081 1.89776 140.791 0 128.001 0Z" fill="#4D6DA3"/>
<path d="M164.072 5.19408C163.173 19.2776 154.18 30.4645 143.389 30.4645H112.712C101.821 30.4645 92.9279 19.3775 92.0287 5.19408C91.629 5.29396 91.2293 5.39387 90.8296 5.59363C91.9287 20.1765 101.321 31.6631 112.712 31.6631H143.389C154.78 31.6631 164.272 20.1765 165.371 5.59363C164.872 5.49375 164.472 5.29396 164.072 5.19408Z" fill="#132155"/>
</svg>
