<svg width="822" height="462" viewBox="0 0 822 462" fill="none" xmlns="http://www.w3.org/2000/svg">
<rect width="822" height="459.837" fill="url(#paint0_linear)"/>
<path d="M40.6333 325.818C31.8477 321.411 9.88377 336.466 0 344.545V461.863H822V166.088C813.581 168.292 790.701 174.791 766.541 183.163C736.831 193.458 728.377 158.444 719.746 122.694L719.319 120.923C712.29 91.8418 701.747 113.947 697.355 128.634C694.792 131.572 686.153 130.397 672.096 102.197C654.525 66.9459 655.623 57.0317 621.579 76.8602C594.344 92.723 575.821 112.845 569.964 120.923C565.937 134.142 554.809 161.682 542.509 166.088C530.209 170.495 519.081 188.487 515.054 196.933C512.492 202.441 501.876 217.202 479.912 232.183C457.948 247.165 440.011 257.52 433.788 260.824C429.029 263.762 415.558 274.264 399.743 292.77C383.929 311.277 349.959 220.433 334.95 172.698C323.529 146.26 292.852 177.839 278.942 196.933C271.621 207.581 253.024 235.268 237.21 260.824C217.443 292.77 196.577 276.246 164.729 269.637C139.251 264.349 127.757 275.512 125.194 281.754C116.775 289.465 97.5198 310.396 87.8557 332.427C75.7756 359.967 51.6152 331.326 40.6333 325.818Z" fill="#29264C"/>
<path d="M271.454 211.814L265.331 212.795C264.629 212.904 263.919 212.958 263.208 212.957C260.767 212.922 258.941 212.836 257.019 212.634L250.607 212.061C250.776 211.963 250.93 211.843 251.067 211.705C251.509 211 251.717 210.174 251.66 209.344C251.743 208.838 251.71 208.32 251.562 207.829C251.415 207.338 251.157 206.888 250.809 206.512C250.461 206.136 250.031 205.844 249.553 205.659C249.075 205.475 248.561 205.402 248.051 205.446C247.466 205.438 246.887 205.558 246.354 205.799C246.26 205.609 246.123 205.444 245.954 205.318C245.785 205.191 245.588 205.107 245.379 205.071C245.171 205.035 244.957 205.049 244.755 205.112C244.553 205.174 244.369 205.284 244.218 205.431C244.066 205.579 243.952 205.76 243.884 205.96C243.816 206.161 243.797 206.374 243.827 206.583C243.858 206.792 243.937 206.991 244.059 207.164C244.181 207.337 244.342 207.478 244.529 207.576C244.296 208.041 244.167 208.551 244.152 209.07C244.123 210.084 244.496 211.067 245.191 211.806C243.816 212.013 242.546 212.661 241.573 213.653L241.42 213.822L241.172 214.029C240.904 214.296 240.618 214.591 240.329 214.917C240.032 215.259 239.697 215.568 239.33 215.836C238.297 216.966 237.283 218.235 236.401 219.379L234.693 221.396C233.537 222.819 232.91 224.599 232.919 226.433C232.928 228.267 233.572 230.041 234.742 231.453L237.887 235.248L238.633 236.125L238.743 236.272C239.324 236.968 239.955 237.622 240.63 238.228C241.054 238.617 241.372 238.997 240.983 239.589C239.964 241.331 239.171 243.196 238.623 245.138C238.275 246.546 237.621 247.86 236.706 248.985L235.627 250.279C235.529 250.402 235.46 250.546 235.427 250.7C235.394 250.853 235.397 251.013 235.437 251.165C235.477 251.317 235.552 251.458 235.657 251.576C235.761 251.694 235.891 251.786 236.038 251.844L243.245 254.627L243.838 254.145C243.713 253.521 243.459 252.931 243.092 252.412C242.726 251.892 242.254 251.455 241.709 251.128C239.752 249.777 239.707 249.421 240.969 247.441C242.491 245.064 244.174 242.795 246.006 240.649C246.371 240.22 246.653 239.727 246.839 239.195C247.176 238.324 247.595 238.423 248.161 238.931C248.443 239.213 248.761 239.457 249.105 239.657C249.557 239.896 250.014 240.594 250.599 240.035C250.882 239.78 251.066 239.432 251.119 239.055C251.173 238.677 251.092 238.292 250.89 237.968C250.426 237.178 249.904 236.352 249.385 235.664C248.989 235.112 248.765 234.456 248.738 233.778C248.712 233.099 248.885 232.428 249.237 231.847C250.466 229.374 251.491 226.792 252.648 224.283C252.904 223.857 253.042 223.371 253.046 222.874C253.05 222.377 252.921 221.888 252.671 221.458C253.449 221.986 254.228 222.499 254.986 223.071C255.443 223.418 255.988 223.629 256.559 223.68C257.13 223.731 257.704 223.62 258.215 223.359C259.909 222.447 261.69 221.705 263.531 221.145C264.105 220.968 264.63 220.66 265.065 220.245C265.5 219.831 265.832 219.321 266.036 218.756C266.121 218.625 266.162 218.471 266.151 218.315C266.14 218.16 266.078 218.012 265.976 217.895C265.807 217.727 265.551 217.857 265.376 217.933C265.125 218.103 264.862 218.253 264.588 218.382L256.836 219.645L253.276 216.73L252.966 216.443C254.023 216.415 254.744 216.372 255.476 216.392C260.224 216.508 264.946 215.662 269.357 213.904C270.442 213.389 271.603 213.05 271.454 211.814ZM245.504 232.078C245.19 232.677 244.739 232.942 244.079 231.951C243.814 231.5 243.389 230.774 242.996 230.051C242.915 229.913 242.871 229.757 242.868 229.597C243.04 229.41 243.196 229.21 243.334 228.997C244.218 228.511 245.089 227.993 245.974 227.491C246.44 227.242 246.768 227.333 246.668 227.935C246.52 229.373 246.126 230.774 245.504 232.078V232.078Z" fill="#28274A"/>
<path fill-rule="evenodd" clip-rule="evenodd" d="M328.494 145.042L321.561 170.101L317.706 169.035L324.639 143.976L328.494 145.042Z" fill="#29264C"/>
<rect x="312.644" y="114.2" width="43" height="29" transform="rotate(15.4642 312.644 114.2)" fill="#29264C"/>
<path fill-rule="evenodd" clip-rule="evenodd" d="M333.177 144.041L323.23 123.717L326.823 121.959L336.769 142.283L333.177 144.041Z" fill="#FFEDBD"/>
<path fill-rule="evenodd" clip-rule="evenodd" d="M318.959 136.177L339.283 126.23L341.041 129.823L320.717 139.77L318.959 136.177Z" fill="#FFEDBD"/>
<defs>
<linearGradient id="paint0_linear" x1="411" y1="0" x2="411" y2="459.837" gradientUnits="userSpaceOnUse">
<stop stop-color="#88B9DF"/>
<stop offset="1" stop-color="#FFDA7B"/>
</linearGradient>
</defs>
</svg>
