<svg width="823" height="460" viewBox="0 0 823 460" fill="none" xmlns="http://www.w3.org/2000/svg">
<path fill-rule="evenodd" clip-rule="evenodd" d="M734.334 208.916C728.714 231.942 721.048 254.577 707.525 272.908C693.839 291.461 678.203 299.506 661.543 299.236C645.37 298.975 629.466 290.872 614.863 279.993C600.162 269.041 586.048 254.716 573.393 240.898C567.975 234.983 562.892 229.241 558.125 223.855C551.546 216.423 545.567 209.669 540.139 204.076C522.333 185.73 508.314 183.207 498.579 185.019C488.337 186.924 480.921 193.943 477.234 198.156C476.517 198.976 475.722 199.98 474.74 201.22C474.527 201.489 474.305 201.769 474.073 202.061C472.834 203.622 471.391 205.41 469.818 207.13C466.876 210.349 462.606 214.342 457.266 215.566C454.386 216.226 451.306 216.055 448.258 214.724C445.303 213.433 442.73 211.206 440.462 208.316C436.015 202.651 431.989 193.466 428.227 179.866C424.642 166.906 419.937 160.542 416.101 158.325C414.385 157.334 412.775 157.114 411.094 157.487C409.281 157.889 406.974 159.084 404.31 161.66C398.91 166.879 393.108 176.748 388.158 191.825C383.249 206.773 379.336 226.357 377.372 250.479C375.348 275.344 371 296.915 365.022 314.278C359.083 331.528 351.371 345.104 342.296 353.456C332.99 362.022 321.765 365.383 310.302 360.547C299.522 355.998 289.936 344.721 281.74 327.742C273.857 311.412 266.931 299.62 260.81 291.418C254.629 283.137 249.61 278.987 245.705 277.245C242.182 275.674 239.34 275.942 236.454 277.454C233.212 279.153 229.738 282.551 225.94 287.706C225.348 288.509 224.725 289.364 224.072 290.26C220.474 295.198 215.975 301.372 210.805 306.968C204.72 313.556 197.138 319.997 188.06 322.882C178.602 325.887 168.221 324.809 157.432 317.643C146.928 310.667 136.115 298 124.806 277.991C90.7475 217.734 27.5236 204.811 0.479616 205.893L0 193.902C29.8812 192.707 98.2684 206.653 135.253 272.087C146.144 291.356 155.824 302.17 164.071 307.647C172.031 312.934 178.656 313.279 184.426 311.445C190.575 309.491 196.442 304.832 201.991 298.825C206.643 293.789 210.672 288.266 214.283 283.315C214.963 282.383 215.628 281.472 216.279 280.588C220.451 274.927 225.231 269.787 230.884 266.825C236.892 263.676 243.585 263.161 250.593 266.286C257.219 269.241 263.728 275.266 270.426 284.24C277.184 293.294 284.49 305.837 292.546 322.525C300.288 338.562 308.208 346.639 314.967 349.491C321.045 352.055 327.395 350.862 334.17 344.627C341.176 338.179 348.052 326.707 353.676 310.372C359.261 294.148 363.451 273.595 365.412 249.505C367.433 224.671 371.489 204.123 376.756 188.082C381.981 172.17 388.56 160.194 395.969 153.032C399.709 149.417 403.912 146.788 408.495 145.771C413.209 144.726 417.879 145.493 422.105 147.935C430.151 152.585 435.977 162.871 439.793 176.666C443.431 189.821 446.948 197.145 449.901 200.907C451.333 202.731 452.425 203.449 453.063 203.728C453.608 203.966 454.05 203.991 454.586 203.869C456.077 203.527 458.212 202.041 460.962 199.033C462.235 197.64 463.461 196.129 464.676 194.598C464.87 194.355 465.066 194.107 465.264 193.857C466.247 192.614 467.272 191.319 468.204 190.254C472.487 185.359 482.148 175.87 496.384 173.221C511.126 170.478 528.986 175.356 548.75 195.719C554.292 201.428 560.645 208.6 567.44 216.271C572.2 221.644 577.176 227.263 582.242 232.793C594.775 246.477 608.27 260.117 622.032 270.37C635.891 280.695 649.304 287.037 661.737 287.238C673.681 287.431 685.938 281.956 697.868 265.784C709.962 249.391 717.172 228.62 722.676 206.071C725.42 194.827 727.708 183.291 729.991 171.741L730.077 171.305C732.323 159.949 734.572 148.571 737.227 137.706C742.575 115.821 749.758 95.123 762.748 79.8941C776.036 64.3159 794.919 55 822.24 55V67C798.061 67 782.655 75.0463 771.878 87.6816C760.802 100.666 754.143 119.033 748.884 140.554C746.293 151.158 744.088 162.312 741.823 173.764L741.763 174.069C739.488 185.578 737.151 197.372 734.334 208.916Z" fill="#ED9410"/>
<circle cx="662.74" cy="264.5" r="22.5" fill="#1AA87D"/>
<path d="M179.231 361.811H173.037L176.171 351.319L179.231 361.811ZM188.084 369.535L178.866 344.032H173.438L164.33 369.535H170.633L171.617 366.438H180.688L181.672 369.535H188.084Z" fill="#29264C"/>
<path d="M314.485 404.828H325.16C332.155 404.828 333.539 400.347 333.539 397.687C333.539 393.862 330.515 391.931 328.876 391.895C330.916 391.421 333.321 389.381 333.321 386.211C333.321 383.552 332.046 379.326 325.051 379.326H314.485V404.828ZM320.351 389.709V383.661H323.885C326.872 383.661 327.419 385.519 327.419 386.649C327.419 387.924 326.763 389.709 323.885 389.709H320.351ZM324.067 394.044C326.909 394.044 327.564 396.012 327.564 397.177C327.564 398.598 326.909 400.311 324.031 400.311H320.351V394.044H324.067Z" fill="#29264C"/>
<path d="M464.431 248.817C463.738 251.367 461.188 253.298 458.31 253.298C453.21 253.298 450.295 249.655 450.295 245.174C450.295 240.984 453.027 237.122 458.019 237.122C461.662 237.122 463.957 239.381 464.504 242.368H470.661C469.932 236.539 465.56 231.803 457.654 231.803C449.311 231.803 444.284 238.215 444.284 245.174C444.284 252.351 449.384 258.617 457.982 258.617C465.014 258.617 469.713 254.245 470.697 248.817H464.431Z" fill="#29264C"/>
<path d="M653.905 316.708V342.211H663.268C671.757 342.211 676.53 335.981 676.53 329.459C676.53 322.938 671.721 316.708 663.268 316.708H653.905ZM662.977 321.809C667.749 321.809 670.518 325.525 670.518 329.459C670.518 333.394 667.749 337.11 662.977 337.11H659.807V321.809H662.977Z" fill="#29264C"/>
</svg>
