<svg width="822" height="244" viewBox="0 0 822 244" fill="none" xmlns="http://www.w3.org/2000/svg">
<g clip-path="url(#clip0)">
<path d="M747.097 243.417H0.485352" stroke="#949AAA" stroke-width="0.96" stroke-linecap="round" stroke-linejoin="round"/>
<path d="M576.525 175.839C583.511 171.955 592.34 174.48 596.221 181.471L608.156 203.026C612.037 210.017 609.514 218.852 602.528 222.736C595.542 226.62 586.713 224.095 582.832 217.105L570.898 195.549C567.017 188.559 569.54 179.723 576.525 175.839Z" fill="#FFE5CC" stroke="#A67C52" stroke-linecap="round" stroke-linejoin="round"/>
<path d="M587.392 217.396L617.276 200.89C623.971 197.2 632.412 199.627 636.196 206.327C639.883 213.026 637.457 221.474 630.762 225.26L600.879 241.767C594.184 245.456 585.743 243.029 581.959 236.329C578.175 229.63 580.697 221.182 587.392 217.396Z" fill="#FFE5CC" stroke="#A67C52" stroke-linecap="round" stroke-linejoin="round"/>
<path d="M644.443 52.3344L664.139 54.1792C666.08 54.3734 667.438 56.024 667.244 57.9659C667.147 59.4223 666.08 60.6846 664.625 60.9758L645.414 65.5393C641.824 66.4132 638.234 64.18 637.36 60.5875C637.166 59.8107 637.166 58.9368 637.263 58.063C637.749 54.5676 640.95 52.0431 644.443 52.3344Z" fill="#FFE5CC" stroke="#A67C52" stroke-linecap="round" stroke-linejoin="round"/>
<path d="M542.664 119.33C549.941 122.631 553.142 131.273 549.844 138.555L539.559 160.984C536.26 168.266 527.625 171.47 520.348 168.169C513.071 164.868 509.869 156.226 513.168 148.944L523.453 126.515C526.751 119.233 535.387 116.029 542.664 119.33Z" fill="#FFE5CC" stroke="#A67C52" stroke-linecap="round" stroke-linejoin="round"/>
<path d="M515.108 171.761C521.706 176.325 523.258 185.355 518.698 191.957L504.63 212.153C500.069 218.755 491.046 220.309 484.448 215.746C477.851 211.182 476.298 202.152 480.858 195.55L494.927 175.354C499.487 168.849 508.511 167.198 515.108 171.761Z" fill="#FFE5CC" stroke="#A67C52" stroke-linecap="round" stroke-linejoin="round"/>
<path d="M486.486 198.657L514.623 217.979C520.93 222.348 522.579 230.989 518.213 237.301C513.847 243.612 505.212 245.262 498.905 240.893L470.768 221.571C464.461 217.202 462.812 208.56 467.178 202.249C471.447 195.938 480.082 194.287 486.486 198.657Z" fill="#FFE5CC" stroke="#A67C52" stroke-linecap="round" stroke-linejoin="round"/>
<path d="M520.93 184.189C529.986 184.189 537.327 176.843 537.327 167.78C537.327 158.718 529.986 151.371 520.93 151.371C511.874 151.371 504.533 158.718 504.533 167.78C504.533 176.843 511.874 184.189 520.93 184.189Z" fill="#FFE5CC" stroke="#A67C52" stroke-linecap="round" stroke-linejoin="round"/>
<path d="M545.089 39.5176C555.86 39.5176 564.591 30.7799 564.591 20.0015C564.591 9.22301 555.86 0.485352 545.089 0.485352C534.318 0.485352 525.587 9.22301 525.587 20.0015C525.587 30.7799 534.318 39.5176 545.089 39.5176Z" fill="#FFE5CC" stroke="#A67C52" stroke-linecap="round" stroke-linejoin="round"/>
<path d="M546.157 55.1499C559.158 55.1499 569.734 65.6362 569.734 78.6469V97.9688C569.734 110.98 559.255 121.563 546.254 121.563C533.252 121.563 522.676 111.077 522.676 98.0659V78.744C522.579 65.8304 533.155 55.247 546.157 55.1499Z" fill="#FFE5CC" stroke="#A67C52" stroke-linecap="round" stroke-linejoin="round"/>
<path d="M546.157 81.2687C559.392 81.2687 570.122 70.5314 570.122 57.2862C570.122 44.041 559.392 33.3037 546.157 33.3037C532.921 33.3037 522.191 44.041 522.191 57.2862C522.191 70.5314 532.921 81.2687 546.157 81.2687Z" fill="#FFE5CC" stroke="#A67C52" stroke-linecap="round" stroke-linejoin="round"/>
<path d="M546.35 145.546C559.586 145.546 570.316 134.808 570.316 121.563C570.316 108.318 559.586 97.5806 546.35 97.5806C533.115 97.5806 522.385 108.318 522.385 121.563C522.385 134.808 533.115 145.546 546.35 145.546Z" fill="#FFE5CC" stroke="#A67C52" stroke-linecap="round" stroke-linejoin="round"/>
<path d="M540.723 111.853C547.709 107.97 556.538 110.397 560.419 117.388L578.563 149.72C582.444 156.711 580.018 165.547 573.032 169.431C566.047 173.315 557.217 170.887 553.336 163.896L535.192 131.564C531.214 124.67 533.737 115.834 540.723 111.853Z" fill="#FFE5CC" stroke="#A67C52" stroke-linecap="round" stroke-linejoin="round"/>
<path d="M571.868 184.093C580.924 184.093 588.265 176.746 588.265 167.683C588.265 158.621 580.924 151.274 571.868 151.274C562.812 151.274 555.471 158.621 555.471 167.683C555.471 176.746 562.812 184.093 571.868 184.093Z" fill="#FFE5CC" stroke="#A67C52" stroke-linecap="round" stroke-linejoin="round"/>
<path d="M558.591 25.2449C559.449 25.2428 560.137 22.6763 560.13 19.5125C560.122 16.3487 559.421 13.7856 558.563 13.7877C557.706 13.7898 557.017 16.3563 557.025 19.5201C557.032 22.6839 557.734 25.247 558.591 25.2449Z" fill="#FFFF00" stroke="#A57C52" stroke-width="0.96" stroke-linecap="round" stroke-linejoin="round"/>
<path d="M563.637 25.0506C564.119 25.0494 564.504 22.5706 564.496 19.514C564.489 16.4575 564.092 13.9806 563.61 13.9818C563.127 13.9829 562.742 16.4617 562.75 19.5183C562.757 22.5749 563.154 25.0518 563.637 25.0506Z" fill="#FFFF00" stroke="#A57C52" stroke-width="0.96" stroke-linecap="round" stroke-linejoin="round"/>
<path d="M585.258 71.4618L546.253 69.6169C539.656 69.3257 534.513 63.6941 534.901 57.0917C534.901 56.9946 534.901 56.9946 534.901 56.8975L534.999 55.2469C535.484 48.6444 541.111 43.6926 547.709 44.0809C547.806 44.0809 547.903 44.0809 548 44.0809L586.907 47.5764C593.408 48.1589 598.162 53.7904 597.774 60.2958C597.289 66.8012 591.758 71.753 585.258 71.4618Z" fill="#FFE5CC" stroke="#A67C52" stroke-linecap="round" stroke-linejoin="round"/>
<path d="M636.487 69.4228L603.304 71.2676C597.677 71.5589 592.923 67.2867 592.535 61.6552C592.535 61.5581 592.535 61.5581 592.535 61.461V60.1017C592.34 54.4702 596.707 49.7125 602.334 49.5183C602.431 49.5183 602.528 49.5183 602.528 49.5183L635.711 49.0328C641.241 48.9357 645.802 53.305 645.996 58.8394C646.287 64.3739 642.018 69.1315 636.487 69.4228Z" fill="#FFE5CC" stroke="#A67C52" stroke-linecap="round" stroke-linejoin="round"/>
<path d="M597.483 73.0156C604.503 73.0156 610.193 67.3209 610.193 60.2961C610.193 53.2714 604.503 47.5767 597.483 47.5767C590.463 47.5767 584.772 53.2714 584.772 60.2961C584.772 67.3209 590.463 73.0156 597.483 73.0156Z" fill="#FFE5CC" stroke="#A67C52" stroke-linecap="round" stroke-linejoin="round"/>
<path d="M730.893 175.839C737.879 171.955 746.708 174.48 750.589 181.471L762.523 203.026C766.404 210.017 763.882 218.852 756.896 222.736C749.91 226.62 741.081 224.095 737.2 217.105L725.265 195.549C721.287 188.559 723.81 179.723 730.893 175.839Z" fill="#EF814B" stroke="#6D2A16" stroke-miterlimit="10"/>
<path d="M741.663 217.396L771.547 200.89C778.242 197.2 786.683 199.627 790.467 206.327C794.154 213.026 791.728 221.474 785.033 225.26L755.15 241.767C748.455 245.456 740.014 243.029 736.23 236.329C732.543 229.63 734.968 221.182 741.663 217.396Z" fill="#EF814B" stroke="#6D2A16" stroke-miterlimit="10"/>
<path d="M798.714 52.3344L818.41 54.1792C820.351 54.3734 821.709 56.024 821.515 57.9659C821.418 59.4223 820.351 60.6846 818.895 60.9758L799.684 65.5393C796.094 66.4132 792.504 64.18 791.631 60.5875C791.437 59.8107 791.437 58.9368 791.534 58.063C792.019 54.5676 795.221 52.0431 798.714 52.3344Z" fill="#EF814B" stroke="#6D2A16" stroke-miterlimit="10"/>
<path d="M696.934 119.33C704.211 122.631 707.413 131.273 704.114 138.555L693.829 160.984C690.53 168.266 681.895 171.47 674.618 168.169C667.341 164.868 664.14 156.226 667.438 148.944L677.723 126.515C681.022 119.233 689.657 116.029 696.934 119.33Z" fill="#EF814B" stroke="#6D2A16" stroke-miterlimit="10"/>
<path d="M672.969 170.402C679.566 174.965 681.313 183.995 676.753 190.598L662.878 210.891C658.318 217.493 649.294 219.241 642.697 214.677C636.099 210.114 634.353 201.084 638.913 194.482L652.787 174.189C657.348 167.489 666.371 165.839 672.969 170.402Z" fill="#EF814B" stroke="#6D2A16" stroke-miterlimit="10"/>
<path d="M640.757 198.657L668.894 217.979C675.201 222.348 676.85 230.989 672.484 237.301C668.118 243.612 659.482 245.262 653.176 240.893L625.038 221.571C618.732 217.202 617.082 208.56 621.448 202.249C625.718 195.938 634.353 194.287 640.757 198.657Z" fill="#EF814B" stroke="#6D2A16" stroke-miterlimit="10"/>
<path d="M675.201 184.189C684.257 184.189 691.598 176.843 691.598 167.78C691.598 158.718 684.257 151.371 675.201 151.371C666.145 151.371 658.803 158.718 658.803 167.78C658.803 176.843 666.145 184.189 675.201 184.189Z" fill="#EF814B" stroke="#6D2A16" stroke-miterlimit="10"/>
<path d="M699.36 39.5176C710.13 39.5176 718.862 30.7799 718.862 20.0015C718.862 9.22301 710.13 0.485352 699.36 0.485352C688.589 0.485352 679.857 9.22301 679.857 20.0015C679.857 30.7799 688.589 39.5176 699.36 39.5176Z" fill="#EF814B" stroke="#6D2A16" stroke-miterlimit="10"/>
<path d="M700.427 55.1499C713.429 55.1499 724.004 65.6362 724.004 78.6469V97.9688C724.004 110.98 713.526 121.563 700.524 121.563C687.523 121.563 676.947 111.077 676.947 98.0659V78.744C676.85 65.8304 687.426 55.247 700.427 55.1499Z" fill="#EF814B" stroke="#6D2A16" stroke-miterlimit="10"/>
<path d="M700.427 81.2687C713.663 81.2687 724.393 70.5314 724.393 57.2862C724.393 44.041 713.663 33.3037 700.427 33.3037C687.192 33.3037 676.462 44.041 676.462 57.2862C676.462 70.5314 687.192 81.2687 700.427 81.2687Z" fill="#EF814B" stroke="#6D2A16" stroke-miterlimit="10"/>
<path d="M700.621 145.546C713.857 145.546 724.586 134.808 724.586 121.563C724.586 108.318 713.857 97.5806 700.621 97.5806C687.385 97.5806 676.656 108.318 676.656 121.563C676.656 134.808 687.385 145.546 700.621 145.546Z" fill="#EF814B" stroke="#6D2A16" stroke-miterlimit="10"/>
<path d="M696.546 114.475C703.532 110.592 712.361 113.116 716.242 120.107L734.289 152.537C738.17 159.527 735.648 168.363 728.662 172.247C721.676 176.131 712.847 173.606 708.966 166.615L690.919 134.186C686.941 127.195 689.463 118.359 696.546 114.475Z" fill="#EF814B" stroke="#6D2A16" stroke-miterlimit="10"/>
<path d="M726.139 184.093C735.195 184.093 742.536 176.746 742.536 167.683C742.536 158.621 735.195 151.274 726.139 151.274C717.083 151.274 709.742 158.621 709.742 167.683C709.742 176.746 717.083 184.093 726.139 184.093Z" fill="#EF814B" stroke="#6D2A16" stroke-miterlimit="10"/>
<path d="M712.863 25.2449C713.72 25.2428 714.409 22.6763 714.401 19.5125C714.393 16.3487 713.692 13.7856 712.835 13.7877C711.977 13.7898 711.288 16.3563 711.296 19.5201C711.304 22.6839 712.005 25.247 712.863 25.2449Z" fill="#FFFF00" stroke="#6D2A16" stroke-width="0.64" stroke-miterlimit="10"/>
<path d="M717.907 25.0506C718.389 25.0494 718.774 22.5706 718.767 19.514C718.759 16.4575 718.362 13.9806 717.88 13.9818C717.398 13.9829 717.013 16.4617 717.02 19.5183C717.028 22.5749 717.425 25.0518 717.907 25.0506Z" fill="#FFFF00" stroke="#6D2A16" stroke-width="0.64" stroke-miterlimit="10"/>
<path d="M739.528 71.4618L700.524 69.6169C693.926 69.3257 688.784 63.6941 689.172 57.0917C689.172 56.9946 689.172 56.9946 689.172 56.8975L689.269 55.2469C689.754 48.6444 695.382 43.6926 701.979 44.0809C702.076 44.0809 702.173 44.0809 702.27 44.0809L741.178 47.5764C747.678 48.1589 752.433 53.7904 752.045 60.2958C751.559 66.8012 746.029 71.753 739.528 71.4618Z" fill="#EF814B" stroke="#6D2A16" stroke-miterlimit="10"/>
<path d="M790.758 69.4228L757.575 71.2676C751.947 71.5589 747.193 67.2867 746.805 61.6552C746.805 61.5581 746.805 61.5581 746.805 61.461V60.1017C746.611 54.4702 750.977 49.7125 756.605 49.5183C756.702 49.5183 756.799 49.5183 756.799 49.5183L789.981 49.0328C795.512 48.9357 800.072 53.305 800.266 58.8394C800.557 64.3739 796.288 69.1315 790.758 69.4228Z" fill="#EF814B" stroke="#6D2A16" stroke-miterlimit="10"/>
<path d="M751.753 73.0156C758.773 73.0156 764.464 67.3209 764.464 60.2961C764.464 53.2714 758.773 47.5767 751.753 47.5767C744.734 47.5767 739.043 53.2714 739.043 60.2961C739.043 67.3209 744.734 73.0156 751.753 73.0156Z" fill="#EF814B" stroke="#6D2A16" stroke-miterlimit="10"/>
<path d="M451.945 175.839C458.931 171.955 467.76 174.48 471.641 181.471L483.575 203.026C487.456 210.017 484.933 218.852 477.948 222.736C470.962 226.62 462.132 224.095 458.251 217.105L446.317 195.549C442.436 188.559 444.959 179.723 451.945 175.839Z" fill="#C2C4CA" stroke="#4D6DA3" stroke-linecap="round" stroke-linejoin="round"/>
<path d="M462.715 217.396L492.599 200.89C499.293 197.2 507.735 199.627 511.519 206.327C515.206 213.026 512.78 221.474 506.085 225.26L476.201 241.767C469.507 245.456 461.065 243.029 457.281 236.329C453.594 229.63 456.02 221.085 462.715 217.396Z" fill="#C2C4CA" stroke="#4D6DA3" stroke-linecap="round" stroke-linejoin="round"/>
<path d="M519.863 52.3344L539.559 54.1792C541.499 54.3734 542.858 56.024 542.664 57.9659C542.567 59.4223 541.499 60.5875 540.044 60.9759L520.833 65.5393C517.243 66.4132 513.653 64.18 512.78 60.5875C512.586 59.7136 512.489 58.8398 512.683 57.9659C513.168 54.5676 516.37 52.0431 519.863 52.3344Z" fill="#C2C4CA" stroke="#4D6DA3" stroke-linecap="round" stroke-linejoin="round"/>
<path d="M418.083 119.33C425.36 122.631 428.562 131.273 425.263 138.555L414.978 160.984C411.679 168.266 403.044 171.47 395.767 168.169C388.49 164.868 385.288 156.226 388.587 148.944L398.872 126.515C402.171 119.136 410.709 115.932 418.083 119.33Z" fill="#C2C4CA" stroke="#4D6DA3" stroke-linecap="round" stroke-linejoin="round"/>
<path d="M394.118 170.402C400.715 174.965 402.462 183.995 397.902 190.598L384.027 210.891C379.467 217.493 370.443 219.241 363.846 214.677C357.248 210.114 355.501 201.084 360.062 194.482L373.936 174.189C378.496 167.489 387.52 165.839 394.118 170.402Z" fill="#C2C4CA" stroke="#4D6DA3" stroke-linecap="round" stroke-linejoin="round"/>
<path d="M361.808 198.657L389.946 217.979C396.252 222.348 397.902 230.989 393.536 237.301C389.169 243.612 380.534 245.262 374.228 240.893L346.09 221.571C339.784 217.202 338.134 208.56 342.5 202.249C346.866 195.938 355.502 194.287 361.808 198.657Z" fill="#C2C4CA" stroke="#4D6DA3" stroke-linecap="round" stroke-linejoin="round"/>
<path d="M396.349 184.189C405.405 184.189 412.746 176.843 412.746 167.78C412.746 158.718 405.405 151.371 396.349 151.371C387.293 151.371 379.952 158.718 379.952 167.78C379.952 176.843 387.293 184.189 396.349 184.189Z" fill="#C2C4CA" stroke="#4D6DA3" stroke-linecap="round" stroke-linejoin="round"/>
<path d="M420.508 39.5176C431.279 39.5176 440.011 30.7799 440.011 20.0015C440.011 9.22301 431.279 0.485352 420.508 0.485352C409.738 0.485352 401.006 9.22301 401.006 20.0015C401.006 30.7799 409.738 39.5176 420.508 39.5176Z" fill="#C2C4CA" stroke="#4D6DA3" stroke-linecap="round" stroke-linejoin="round"/>
<path d="M421.576 55.1499C434.577 55.1499 445.153 65.6362 445.153 78.6469V97.9688C445.153 110.98 434.674 121.563 421.673 121.563C408.671 121.563 398.095 111.077 398.095 98.0659V78.744C397.998 65.7333 408.574 55.247 421.576 55.1499Z" fill="#C2C4CA" stroke="#4D6DA3" stroke-linecap="round" stroke-linejoin="round"/>
<path d="M421.576 81.2687C434.811 81.2687 445.541 70.5314 445.541 57.2862C445.541 44.041 434.811 33.3037 421.576 33.3037C408.34 33.3037 397.61 44.041 397.61 57.2862C397.61 70.5314 408.34 81.2687 421.576 81.2687Z" fill="#C2C4CA" stroke="#4D6DA3" stroke-linecap="round" stroke-linejoin="round"/>
<path d="M421.673 145.546C434.909 145.546 445.638 134.808 445.638 121.563C445.638 108.318 434.909 97.5806 421.673 97.5806C408.437 97.5806 397.708 108.318 397.708 121.563C397.708 134.808 408.437 145.546 421.673 145.546Z" fill="#C2C4CA" stroke="#4D6DA3" stroke-linecap="round" stroke-linejoin="round"/>
<path d="M417.598 114.475C424.583 110.592 433.413 113.116 437.294 120.107L455.341 152.537C459.222 159.527 456.699 168.363 449.713 172.247C442.727 176.131 433.898 173.606 430.017 166.615L411.97 134.186C408.089 127.195 410.612 118.359 417.598 114.475Z" fill="#C2C4CA" stroke="#4D6DA3" stroke-linecap="round" stroke-linejoin="round"/>
<path d="M447.19 184.093C456.246 184.093 463.588 176.746 463.588 167.683C463.588 158.621 456.246 151.274 447.19 151.274C438.134 151.274 430.793 158.621 430.793 167.683C430.793 176.746 438.134 184.093 447.19 184.093Z" fill="#C2C4CA" stroke="#4D6DA3" stroke-linecap="round" stroke-linejoin="round"/>
<path d="M433.801 26.3127C434.658 26.3127 435.353 23.7479 435.353 20.5841C435.353 17.4203 434.658 14.8555 433.801 14.8555C432.944 14.8555 432.249 17.4203 432.249 20.5841C432.249 23.7479 432.944 26.3127 433.801 26.3127Z" fill="#FFFF00" stroke="#4D6DA3" stroke-width="0.96" stroke-linecap="round" stroke-linejoin="round"/>
<path d="M439.056 25.0506C439.538 25.0494 439.923 22.5706 439.915 19.514C439.908 16.4575 439.511 13.9806 439.029 13.9818C438.546 13.9829 438.161 16.4617 438.169 19.5183C438.176 22.5749 438.573 25.0518 439.056 25.0506Z" fill="#FFFF00" stroke="#4D6DA3" stroke-width="0.96" stroke-linecap="round" stroke-linejoin="round"/>
<path d="M460.58 71.4618L421.576 69.6169C414.978 69.3257 409.836 63.6941 410.224 57.0917C410.224 56.9946 410.224 56.8975 410.224 56.8975L410.321 55.2469C410.806 48.6444 416.433 43.6926 423.031 44.0809C423.128 44.0809 423.225 44.0809 423.322 44.0809L462.229 47.5764C468.73 48.1589 473.484 53.7904 473.096 60.2958C472.708 66.8012 467.081 71.753 460.58 71.4618Z" fill="#C2C4CA" stroke="#4D6DA3" stroke-linecap="round" stroke-linejoin="round"/>
<path d="M511.907 69.4229L478.724 71.2677C473.096 71.559 468.342 67.1897 468.051 61.6553V61.5582L467.954 60.1988C467.76 54.5673 472.126 49.8097 477.754 49.6155C477.851 49.6155 477.948 49.6155 477.948 49.6155L511.227 49.13C516.758 49.0329 521.318 53.4022 521.512 58.9366C521.706 64.3739 517.437 69.1316 511.907 69.4229Z" fill="#C2C4CA" stroke="#4D6DA3" stroke-linecap="round" stroke-linejoin="round"/>
<path d="M485.331 63.1982C486.944 56.3617 482.714 49.511 475.882 47.8967C469.051 46.2824 462.205 50.5159 460.592 57.3524C458.979 64.1889 463.209 71.0396 470.041 72.6539C476.872 74.2682 483.718 70.0347 485.331 63.1982Z" fill="#C2C4CA" stroke="#4D6DA3" stroke-linecap="round" stroke-linejoin="round"/>
<path d="M366.465 175.839C373.451 171.955 382.28 174.48 386.161 181.471L398.095 203.026C401.976 210.017 399.454 218.852 392.468 222.736C385.482 226.62 376.653 224.095 372.772 217.105L360.838 195.549C356.86 188.559 359.382 179.723 366.465 175.839Z" fill="#646A75" stroke="#132155" stroke-linecap="round" stroke-linejoin="round"/>
<path d="M377.235 217.396L407.119 200.89C413.814 197.2 422.255 199.627 426.039 206.327C429.726 213.026 427.3 221.474 420.606 225.26L390.722 241.767C384.027 245.456 375.586 243.029 371.802 236.329C368.115 229.63 370.541 221.085 377.235 217.396Z" fill="#646A75" stroke="#132155" stroke-linecap="round" stroke-linejoin="round"/>
<path d="M434.286 52.3344L453.982 54.1792C455.923 54.3734 457.281 56.024 457.087 57.9659C456.99 59.4223 455.923 60.5875 454.467 60.9758L435.256 65.5393C431.666 66.4132 428.076 64.18 427.203 60.5875C427.009 59.8107 427.009 58.9368 427.106 58.063C427.591 54.5676 430.793 52.0431 434.286 52.3344Z" fill="#646A75" stroke="#132155" stroke-linecap="round" stroke-linejoin="round"/>
<path d="M332.506 119.33C339.783 122.631 342.985 131.273 339.686 138.555L329.402 160.984C326.103 168.266 317.468 171.47 310.191 168.169C302.914 164.868 299.712 156.226 303.011 148.944L313.295 126.515C316.594 119.136 325.23 115.932 332.506 119.33Z" fill="#646A75" stroke="#132155" stroke-linecap="round" stroke-linejoin="round"/>
<path d="M308.541 170.402C315.139 174.965 316.885 183.995 312.325 190.598L298.45 210.891C293.89 217.493 284.867 219.241 278.269 214.677C271.671 210.114 269.925 201.084 274.485 194.482L288.36 174.189C292.92 167.489 301.943 165.839 308.541 170.402Z" fill="#646A75" stroke="#132155" stroke-linecap="round" stroke-linejoin="round"/>
<path d="M276.329 198.657L304.466 217.979C310.773 222.348 312.422 230.989 308.056 237.301C303.69 243.612 295.055 245.262 288.748 240.893L260.611 221.571C254.304 217.202 252.655 208.56 257.021 202.249C261.29 195.938 269.925 194.287 276.329 198.657Z" fill="#646A75" stroke="#132155" stroke-linecap="round" stroke-linejoin="round"/>
<path d="M310.773 184.189C319.829 184.189 327.17 176.843 327.17 167.78C327.17 158.718 319.829 151.371 310.773 151.371C301.717 151.371 294.375 158.718 294.375 167.78C294.375 176.843 301.717 184.189 310.773 184.189Z" fill="#646A75" stroke="#132155" stroke-linecap="round" stroke-linejoin="round"/>
<path d="M334.932 39.5176C345.703 39.5176 354.434 30.7799 354.434 20.0015C354.434 9.22301 345.703 0.485352 334.932 0.485352C324.161 0.485352 315.43 9.22301 315.43 20.0015C315.43 30.7799 324.161 39.5176 334.932 39.5176Z" fill="#646A75" stroke="#132155" stroke-linecap="round" stroke-linejoin="round"/>
<path d="M335.999 55.1499C349.001 55.1499 359.577 65.6362 359.577 78.6469V97.9688C359.577 110.98 349.098 121.563 336.096 121.563C323.095 121.563 312.519 111.077 312.519 98.0659V78.744C312.422 65.7333 322.998 55.1499 335.999 55.1499Z" fill="#646A75" stroke="#132155" stroke-linecap="round" stroke-linejoin="round"/>
<path d="M335.999 81.2687C349.235 81.2687 359.965 70.5314 359.965 57.2862C359.965 44.041 349.235 33.3037 335.999 33.3037C322.764 33.3037 312.034 44.041 312.034 57.2862C312.034 70.5314 322.764 81.2687 335.999 81.2687Z" fill="#646A75" stroke="#132155" stroke-linecap="round" stroke-linejoin="round"/>
<path d="M336.193 145.546C349.429 145.546 360.159 134.808 360.159 121.563C360.159 108.318 349.429 97.5806 336.193 97.5806C322.958 97.5806 312.228 108.318 312.228 121.563C312.228 134.808 322.958 145.546 336.193 145.546Z" fill="#646A75" stroke="#132155" stroke-linecap="round" stroke-linejoin="round"/>
<path d="M332.118 114.475C339.104 110.592 347.934 113.116 351.815 120.107L369.861 152.537C373.742 159.527 371.22 168.363 364.234 172.247C357.248 176.131 348.419 173.606 344.538 166.615L326.491 134.186C322.513 127.195 325.036 118.359 332.118 114.475Z" fill="#646A75" stroke="#132155" stroke-linecap="round" stroke-linejoin="round"/>
<path d="M361.711 184.093C370.767 184.093 378.108 176.746 378.108 167.683C378.108 158.621 370.767 151.274 361.711 151.274C352.655 151.274 345.313 158.621 345.313 167.683C345.313 176.746 352.655 184.093 361.711 184.093Z" fill="#646A75" stroke="#132155" stroke-linecap="round" stroke-linejoin="round"/>
<path d="M348.321 26.1184C349.179 26.1184 349.874 23.5536 349.874 20.3897C349.874 17.2259 349.179 14.6611 348.321 14.6611C347.464 14.6611 346.769 17.2259 346.769 20.3897C346.769 23.5536 347.464 26.1184 348.321 26.1184Z" fill="#FFFF00" stroke="#132155" stroke-width="0.96" stroke-linecap="round" stroke-linejoin="round"/>
<path d="M353.367 25.9243C353.849 25.9243 354.24 23.4465 354.24 20.3899C354.24 17.3333 353.849 14.8555 353.367 14.8555C352.885 14.8555 352.494 17.3333 352.494 20.3899C352.494 23.4465 352.885 25.9243 353.367 25.9243Z" fill="#FFFF00" stroke="#132155" stroke-width="0.96" stroke-linecap="round" stroke-linejoin="round"/>
<path d="M375.1 71.4618L336.096 69.6169C329.498 69.3257 324.356 63.6941 324.744 57.0917C324.744 56.9946 324.744 56.8975 324.744 56.8975L324.841 55.2469C325.326 48.6444 330.954 43.6926 337.552 44.0809C337.649 44.0809 337.746 44.0809 337.843 44.0809L376.75 47.5764C383.251 48.1589 388.005 53.7904 387.617 60.2958C387.132 66.8012 381.601 71.753 375.1 71.4618Z" fill="#646A75" stroke="#132155" stroke-linecap="round" stroke-linejoin="round"/>
<path d="M426.33 69.4228L393.148 71.2676C387.52 71.5589 382.766 67.2867 382.378 61.6552C382.378 61.5581 382.378 61.5581 382.378 61.461L382.281 60.1017C382.087 54.4702 386.453 49.7125 392.08 49.5183C392.177 49.5183 392.274 49.5183 392.274 49.5183L425.457 49.0328C430.987 48.9357 435.645 53.305 435.839 58.8394C436.13 64.3739 431.861 69.1315 426.33 69.4228Z" fill="#646A75" stroke="#132155" stroke-linecap="round" stroke-linejoin="round"/>
<path d="M387.326 73.0156C394.345 73.0156 400.036 67.3209 400.036 60.2961C400.036 53.2714 394.345 47.5767 387.326 47.5767C380.306 47.5767 374.615 53.2714 374.615 60.2961C374.615 67.3209 380.306 73.0156 387.326 73.0156Z" fill="#646A75" stroke="#132155" stroke-linecap="round" stroke-linejoin="round"/>
<path d="M243.049 175.839C250.034 171.955 258.864 174.48 262.745 181.471L274.679 203.026C278.56 210.017 276.037 218.852 269.051 222.736C262.066 226.62 253.236 224.095 249.355 217.105L237.421 195.549C233.443 188.559 235.966 179.723 243.049 175.839Z" fill="#4D6DA3" stroke="#132155" stroke-linecap="round" stroke-linejoin="round"/>
<path d="M253.819 217.396L283.703 200.89C290.397 197.2 298.839 199.627 302.623 206.327C306.31 213.026 303.884 221.474 297.189 225.26L267.305 241.767C260.611 245.456 252.169 243.029 248.385 236.329C244.698 229.533 247.124 221.085 253.819 217.396Z" fill="#4D6DA3" stroke="#132155" stroke-linecap="round" stroke-linejoin="round"/>
<path d="M310.87 52.3344L330.566 54.1792C332.506 54.3734 333.865 56.024 333.671 57.9659C333.574 59.4223 332.506 60.6846 331.051 60.9758L311.84 65.5393C308.25 66.4132 304.66 64.18 303.787 60.5875C303.593 59.8107 303.593 58.9368 303.69 58.063C304.175 54.5676 307.377 52.0431 310.87 52.3344Z" fill="#4D6DA3" stroke="#132155" stroke-linecap="round" stroke-linejoin="round"/>
<path d="M209.09 119.33C216.367 122.631 219.569 131.273 216.27 138.555L205.985 160.984C202.686 168.266 194.051 171.47 186.774 168.169C179.497 164.868 176.295 156.226 179.594 148.944L189.879 126.515C193.178 119.136 201.813 115.932 209.09 119.33Z" fill="#4D6DA3" stroke="#132155" stroke-linecap="round" stroke-linejoin="round"/>
<path d="M185.124 170.402C191.722 174.965 193.469 183.995 188.908 190.598L175.034 210.891C170.474 217.493 161.45 219.241 154.852 214.677C148.255 210.114 146.508 201.084 151.068 194.482L164.943 174.189C169.503 167.489 178.527 165.839 185.124 170.402Z" fill="#4D6DA3" stroke="#132155" stroke-linecap="round" stroke-linejoin="round"/>
<path d="M152.524 196.326L179.497 217.202C185.513 221.862 186.677 230.601 182.02 236.621C177.363 242.641 168.63 243.806 162.615 239.145L135.642 218.27C129.626 213.609 128.462 204.871 133.119 198.851C137.776 192.734 146.412 191.666 152.524 196.326Z" fill="#4D6DA3" stroke="#132155" stroke-linecap="round" stroke-linejoin="round"/>
<path d="M187.356 184.189C196.412 184.189 203.754 176.843 203.754 167.78C203.754 158.718 196.412 151.371 187.356 151.371C178.3 151.371 170.959 158.718 170.959 167.78C170.959 176.843 178.3 184.189 187.356 184.189Z" fill="#4D6DA3" stroke="#132155" stroke-linecap="round" stroke-linejoin="round"/>
<path d="M211.516 39.5176C222.287 39.5176 231.018 30.7799 231.018 20.0015C231.018 9.22301 222.287 0.485352 211.516 0.485352C200.745 0.485352 192.014 9.22301 192.014 20.0015C192.014 30.7799 200.745 39.5176 211.516 39.5176Z" fill="#4D6DA3" stroke="#132155" stroke-linecap="round" stroke-linejoin="round"/>
<path d="M212.292 55.7324C225.293 55.7324 235.869 66.3158 235.869 79.3265V98.6485C235.869 111.659 225.293 122.243 212.292 122.243C199.29 122.243 188.714 111.659 188.714 98.6485V79.2294C188.811 66.2187 199.29 55.7324 212.292 55.7324Z" fill="#4D6DA3" stroke="#132155" stroke-linecap="round" stroke-linejoin="round"/>
<path d="M212.583 81.2687C225.819 81.2687 236.548 70.5314 236.548 57.2862C236.548 44.041 225.819 33.3037 212.583 33.3037C199.347 33.3037 188.618 44.041 188.618 57.2862C188.618 70.5314 199.347 81.2687 212.583 81.2687Z" fill="#4D6DA3" stroke="#132155" stroke-linecap="round" stroke-linejoin="round"/>
<path d="M212.777 145.546C226.012 145.546 236.742 134.808 236.742 121.563C236.742 108.318 226.012 97.5806 212.777 97.5806C199.541 97.5806 188.812 108.318 188.812 121.563C188.812 134.808 199.541 145.546 212.777 145.546Z" fill="#4D6DA3" stroke="#132155" stroke-linecap="round" stroke-linejoin="round"/>
<path d="M208.702 114.475C215.687 110.592 224.517 113.116 228.398 120.107L246.445 152.537C250.326 159.527 247.803 168.363 240.817 172.247C233.831 176.131 225.002 173.606 221.121 166.615L203.074 134.186C199.193 127.195 201.716 118.359 208.702 114.475Z" fill="#4D6DA3" stroke="#132155" stroke-linecap="round" stroke-linejoin="round"/>
<path d="M238.295 184.093C247.351 184.093 254.692 176.746 254.692 167.683C254.692 158.621 247.351 151.274 238.295 151.274C229.239 151.274 221.897 158.621 221.897 167.683C221.897 176.746 229.239 184.093 238.295 184.093Z" fill="#4D6DA3" stroke="#132155" stroke-linecap="round" stroke-linejoin="round"/>
<path d="M225.114 25.2449C225.971 25.2428 226.66 22.6763 226.653 19.5125C226.645 16.3487 225.943 13.7856 225.086 13.7877C224.229 13.7898 223.54 16.3563 223.548 19.5201C223.555 22.6839 224.257 25.247 225.114 25.2449Z" fill="#FFFF00" stroke="#132155" stroke-width="0.96" stroke-linecap="round" stroke-linejoin="round"/>
<path d="M230.159 25.0506C230.641 25.0494 231.026 22.5706 231.018 19.514C231.011 16.4575 230.614 13.9806 230.132 13.9818C229.649 13.9829 229.264 16.4617 229.272 19.5183C229.279 22.5749 229.676 25.0518 230.159 25.0506Z" fill="#FFFF00" stroke="#132155" stroke-width="0.96" stroke-linecap="round" stroke-linejoin="round"/>
<path d="M251.587 71.4618L212.583 69.6169C205.985 69.3257 200.843 63.6941 201.231 57.0917C201.231 56.9946 201.231 56.8975 201.231 56.8975L201.328 55.2469C201.813 48.6444 207.441 43.6926 214.038 44.0809C214.135 44.0809 214.232 44.0809 214.329 44.0809L253.237 47.5764C259.737 48.1589 264.492 53.7904 264.104 60.2958C263.715 66.8012 258.185 71.753 251.587 71.4618Z" fill="#4D6DA3" stroke="#132155" stroke-linecap="round" stroke-linejoin="round"/>
<path d="M302.914 69.4228L269.731 71.2676C264.104 71.5589 259.349 67.2867 258.961 61.6552C258.961 61.5581 258.961 61.5581 258.961 61.461L258.864 60.1017C258.67 54.4702 263.036 49.7125 268.664 49.5183C268.761 49.5183 268.858 49.5183 268.858 49.5183L302.04 49.0328C307.571 48.9357 312.131 53.305 312.325 58.8394C312.713 64.3739 308.444 69.0344 302.914 69.4228Z" fill="#4D6DA3" stroke="#132155" stroke-linecap="round" stroke-linejoin="round"/>
<path d="M263.91 73.0156C270.929 73.0156 276.62 67.3209 276.62 60.2961C276.62 53.2714 270.929 47.5767 263.91 47.5767C256.89 47.5767 251.199 53.2714 251.199 60.2961C251.199 67.3209 256.89 73.0156 263.91 73.0156Z" fill="#4D6DA3" stroke="#132155" stroke-linecap="round" stroke-linejoin="round"/>
<path d="M118.177 175.839C125.163 171.955 133.992 174.48 137.873 181.471L149.808 203.026C153.689 210.017 151.166 218.852 144.18 222.736C137.194 226.62 128.365 224.095 124.484 217.105L112.55 195.549C108.669 188.559 111.191 179.723 118.177 175.839Z" fill="#213772" stroke="black" stroke-linecap="round" stroke-linejoin="round"/>
<path d="M128.947 217.396L158.831 200.89C165.525 197.2 173.967 199.627 177.751 206.327C181.438 213.026 179.012 221.474 172.317 225.26L142.433 241.767C135.739 245.456 127.297 243.029 123.513 236.329C119.826 229.533 122.252 221.085 128.947 217.396Z" fill="#213772" stroke="black" stroke-linecap="round" stroke-linejoin="round"/>
<path d="M186.095 52.3344L205.791 54.1792C207.731 54.3734 209.09 56.024 208.896 57.9659C208.799 59.4223 207.731 60.5875 206.276 60.9759L187.065 65.5393C183.475 66.4132 179.885 64.18 179.012 60.5875C178.818 59.7136 178.721 58.8398 178.915 57.9659C179.4 54.5676 182.602 52.0431 186.095 52.3344Z" fill="#213772" stroke="black" stroke-linecap="round" stroke-linejoin="round"/>
<path d="M84.2183 119.33C91.4953 122.631 94.6971 131.273 91.3982 138.555L81.1135 160.984C77.8147 168.266 69.1794 171.47 61.9025 168.169C54.6256 164.868 51.4237 156.226 54.7226 148.944L65.0073 126.418C68.4032 119.136 76.9414 115.932 84.2183 119.33Z" fill="#213772" stroke="black" stroke-linecap="round" stroke-linejoin="round"/>
<path d="M60.35 170.402C66.9478 174.965 68.6942 183.995 64.134 190.598L50.2594 210.891C45.6992 217.493 36.6758 219.241 30.0781 214.677C23.4803 210.114 21.7339 201.084 26.2941 194.482L40.1687 174.189C44.7289 167.489 53.7523 165.839 60.35 170.402Z" fill="#213772" stroke="black" stroke-linecap="round" stroke-linejoin="round"/>
<path d="M28.0402 198.657L56.1776 217.979C62.4843 222.348 64.1337 230.989 59.7675 237.301C55.4014 243.612 46.7661 245.262 40.4595 240.893L12.3221 221.571C6.01543 217.202 4.36599 208.56 8.73214 202.249C13.0983 195.938 21.7336 194.287 28.0402 198.657Z" fill="#213772" stroke="black" stroke-linecap="round" stroke-linejoin="round"/>
<path d="M62.5814 184.189C71.6374 184.189 78.9787 176.843 78.9787 167.78C78.9787 158.718 71.6374 151.371 62.5814 151.371C53.5254 151.371 46.1841 158.718 46.1841 167.78C46.1841 176.843 53.5254 184.189 62.5814 184.189Z" fill="#213772" stroke="black" stroke-linecap="round" stroke-linejoin="round"/>
<path d="M86.7409 39.5176C97.5116 39.5176 106.243 30.7799 106.243 20.0015C106.243 9.22301 97.5116 0.485352 86.7409 0.485352C75.9702 0.485352 67.2388 9.22301 67.2388 20.0015C67.2388 30.7799 75.9702 39.5176 86.7409 39.5176Z" fill="#213772" stroke="black" stroke-linecap="round" stroke-linejoin="round"/>
<path d="M87.808 55.1499C100.809 55.1499 111.385 65.6362 111.385 78.6469V97.9688C111.385 110.98 100.906 121.563 87.905 121.563C74.9036 121.563 64.3278 111.077 64.3278 98.0659V78.744C64.2308 65.7333 74.7095 55.1499 87.808 55.1499Z" fill="#213772" stroke="black" stroke-linecap="round" stroke-linejoin="round"/>
<path d="M87.8081 81.2687C101.044 81.2687 111.773 70.5314 111.773 57.2862C111.773 44.041 101.044 33.3037 87.8081 33.3037C74.5724 33.3037 63.8428 44.041 63.8428 57.2862C63.8428 70.5314 74.5724 81.2687 87.8081 81.2687Z" fill="#213772" stroke="black" stroke-linecap="round" stroke-linejoin="round"/>
<path d="M87.9052 145.546C101.141 145.546 111.871 134.808 111.871 121.563C111.871 108.318 101.141 97.5806 87.9052 97.5806C74.6696 97.5806 63.9399 108.318 63.9399 121.563C63.9399 134.808 74.6696 145.546 87.9052 145.546Z" fill="#213772" stroke="black" stroke-linecap="round" stroke-linejoin="round"/>
<path d="M83.8301 114.475C90.8159 110.592 99.6452 113.116 103.526 120.107L121.573 152.537C125.454 159.527 122.931 168.363 115.945 172.247C108.96 176.131 100.13 173.606 96.2493 166.615L78.2026 134.186C74.3216 127.195 76.8442 118.359 83.8301 114.475Z" fill="#213772" stroke="black" stroke-linecap="round" stroke-linejoin="round"/>
<path d="M113.423 184.093C122.479 184.093 129.82 176.746 129.82 167.683C129.82 158.621 122.479 151.274 113.423 151.274C104.367 151.274 97.0254 158.621 97.0254 167.683C97.0254 176.746 104.367 184.093 113.423 184.093Z" fill="#213772" stroke="black" stroke-linecap="round" stroke-linejoin="round"/>
<path d="M100.242 25.2449C101.099 25.2428 101.788 22.6763 101.78 19.5125C101.772 16.3487 101.071 13.7856 100.214 13.7877C99.3562 13.7898 98.6674 16.3563 98.6751 19.5201C98.6828 22.6839 99.3842 25.247 100.242 25.2449Z" fill="#FFFF00" stroke="black" stroke-width="0.96" stroke-linecap="round" stroke-linejoin="round"/>
<path d="M105.079 25.2446C105.561 25.2446 105.952 22.7668 105.952 19.7102C105.952 16.6536 105.561 14.1758 105.079 14.1758C104.597 14.1758 104.206 16.6536 104.206 19.7102C104.206 22.7668 104.597 25.2446 105.079 25.2446Z" fill="#FFFF00" stroke="black" stroke-width="0.96" stroke-linecap="round" stroke-linejoin="round"/>
<path d="M126.812 71.462L87.8081 69.6172C81.2104 69.3259 76.0681 63.6944 76.4562 57.0919C76.4562 56.9948 76.4562 56.8977 76.4562 56.8977L76.5532 55.2471C76.9413 48.5476 82.6658 43.5957 89.2635 44.0812C89.3605 44.0812 89.4576 44.0812 89.5546 44.0812L128.462 47.5766C134.963 48.1592 139.814 53.7907 139.329 60.2961C138.941 66.8014 133.313 71.7533 126.812 71.462Z" fill="#213772" stroke="black" stroke-linecap="round" stroke-linejoin="round"/>
<path d="M178.139 69.4228L144.956 71.2676C139.329 71.5589 134.574 67.1896 134.283 61.5581V61.461L134.186 60.1017C133.992 54.4702 138.358 49.7125 143.986 49.5183C144.083 49.5183 144.18 49.5183 144.18 49.5183L177.363 49.0328C182.893 48.9357 187.453 53.305 187.647 58.8394C187.939 64.3739 183.669 69.1315 178.139 69.4228Z" fill="#213772" stroke="black" stroke-linecap="round" stroke-linejoin="round"/>
<path d="M139.135 73.0156C146.154 73.0156 151.845 67.3209 151.845 60.2961C151.845 53.2714 146.154 47.5767 139.135 47.5767C132.115 47.5767 126.424 53.2714 126.424 60.2961C126.424 67.3209 132.115 73.0156 139.135 73.0156Z" fill="#213772" stroke="black" stroke-linecap="round" stroke-linejoin="round"/>
</g>
<defs>
<clipPath id="clip0">
<rect width="822" height="244" fill="white"/>
</clipPath>
</defs>
</svg>
