<svg width="822" height="464" viewBox="0 0 822 464" fill="none" xmlns="http://www.w3.org/2000/svg">
<path d="M644.823 223.51C636.819 226.435 629.43 236.902 629.43 245.368C629.43 252.757 634.048 255.99 640.975 253.373C648.672 250.448 656.06 239.673 656.214 231.515C656.06 224.588 651.135 221.201 644.823 223.51Z" fill="#132155"/>
<path d="M400.071 120.221C387.91 112.217 375.442 103.905 363.589 95.9001L306.788 58.0326C302.478 55.2618 297.244 54.0304 292.164 54.954L201.036 71.5787C196.88 72.1944 193.339 75.1192 192.262 79.2753C182.718 106.367 173.02 133.921 163.63 160.398L155.934 181.948C154.394 186.258 152.855 190.723 151.316 195.187L149.007 201.344C149.007 201.498 148.853 201.652 148.853 201.806C148.391 203.807 149.315 205.962 151.008 207.039L252.911 268.458C255.99 270.767 259.684 271.845 263.533 271.845L360.048 260.3C364.82 259.684 368.822 256.452 370.208 251.834L404.073 132.074C405.305 128.842 405.766 124.07 400.071 120.221Z" fill="#4E7FC6"/>
<path d="M263.378 272.307C259.53 272.307 255.836 271.075 252.757 268.92L150.854 207.655C149.007 206.424 147.929 204.115 148.391 201.96C148.391 201.806 148.391 201.806 148.545 201.652V201.498V201.344L150.854 195.187C152.393 190.723 153.932 186.412 155.472 181.948L163.168 160.398C171.789 135.923 181.948 107.291 191.8 79.2753C193.031 74.9652 196.572 71.8866 201.036 71.2708L292.164 54.6461C297.398 53.7225 302.631 54.954 307.095 57.7248L363.743 95.4383C375.595 103.443 387.91 111.601 400.225 119.76C404.843 122.838 406.228 126.841 404.535 132.228L370.67 251.988C369.13 256.76 365.128 260.146 360.048 260.762L263.532 272.307H263.378ZM149.468 201.498C149.468 201.652 149.468 201.806 149.314 201.96V202.114C149.007 203.961 149.776 205.808 151.316 206.885L253.219 268.305C256.298 270.46 259.838 271.691 263.532 271.537L360.048 259.992C364.666 259.376 368.514 256.298 369.746 251.834L403.611 132.074C404.535 128.996 405.304 124.378 399.609 120.683C387.14 112.525 374.826 104.212 363.127 96.3618L306.326 58.4944C302.169 55.7236 297.09 54.6461 292.164 55.4158L201.036 72.0405C197.034 72.6562 193.647 75.427 192.569 79.4293C182.718 107.445 172.558 136.23 163.938 160.706L156.241 182.256C154.702 186.566 153.163 191.03 151.623 195.494L149.468 201.498Z" fill="#132155"/>
<path d="M641.129 326.799C640.359 330.339 637.743 333.264 634.356 334.342L553.695 364.204L527.373 373.286C522.755 374.826 517.675 373.902 514.135 370.67L424.854 292.164C421.467 289.701 420.082 285.391 421.159 281.389C424.546 263.071 428.086 243.829 432.089 222.74C434.551 209.502 437.014 196.418 439.323 183.18L443.172 162.707C443.172 162.399 443.326 162.091 443.326 161.629L443.48 160.859C443.787 159.166 445.173 157.627 446.866 157.011L561.854 122.222C565.702 120.991 569.858 121.915 572.937 124.531L670.068 198.265C672.993 200.882 674.225 204.884 673.147 208.579L641.129 326.799Z" fill="#4E7FC6"/>
<path d="M522.909 374.672C519.523 374.672 516.29 373.44 513.673 371.285L424.392 292.78C420.852 290.163 419.312 285.699 420.544 281.543C423.93 263.225 427.471 244.137 431.473 222.894C433.936 209.656 436.399 196.572 438.708 183.334L442.556 162.861C442.556 162.707 442.556 162.399 442.71 162.245C442.71 162.091 442.71 161.937 442.864 161.783L443.018 161.013C443.48 159.166 444.865 157.473 446.712 156.857L561.7 122.069C565.702 120.837 570.012 121.761 573.245 124.531L670.376 198.265C673.455 201.036 674.687 205.192 673.609 209.194L641.899 326.953C641.129 330.647 638.358 333.726 634.818 334.957L553.849 364.82L527.527 374.056C525.988 374.518 524.448 374.672 522.909 374.672ZM565.087 122.53C564.009 122.53 562.931 122.684 561.854 122.992L446.866 157.781C445.327 158.243 444.249 159.628 443.788 161.167L443.634 161.937C443.634 162.091 443.634 162.245 443.48 162.399C443.48 162.553 443.326 162.707 443.326 162.861L439.478 183.334C437.015 196.572 434.552 209.656 432.243 222.894C428.394 243.983 424.854 263.225 421.314 281.543C420.236 285.391 421.621 289.547 424.854 291.856L514.135 370.362C517.675 373.44 522.601 374.364 526.911 372.825L553.234 363.743L634.202 334.034C637.435 332.956 639.898 330.185 640.667 326.799L672.378 209.04C673.455 205.5 672.224 201.652 669.453 199.189L572.321 125.455C570.32 123.608 567.703 122.53 565.087 122.53Z" fill="#132155"/>
<g opacity="0.55">
<path opacity="0.55" d="M402.38 416.234C505.417 416.234 588.946 414.718 588.946 412.847C588.946 410.977 505.417 409.461 402.38 409.461C299.342 409.461 215.813 410.977 215.813 412.847C215.813 414.718 299.342 416.234 402.38 416.234Z" fill="#132155"/>
</g>
<path d="M400.07 120.221C387.91 112.217 375.441 103.905 363.588 95.9001L306.787 58.0326C302.477 55.2618 297.243 54.0304 292.164 54.954L201.036 71.5787C196.879 72.1944 193.339 75.1192 192.261 79.2753C182.718 106.367 173.02 133.921 163.63 160.398L155.933 181.948C154.394 186.258 152.855 190.723 151.315 195.187L149.006 201.344C149.006 201.498 148.852 201.652 148.852 201.806C148.391 203.807 149.314 205.962 151.007 207.039L252.911 268.458C255.989 270.767 259.684 271.845 263.532 271.845L360.048 260.3C364.82 259.684 368.822 256.452 370.207 251.834L404.073 132.074C405.304 128.842 405.766 124.07 400.07 120.221Z" fill="#FFE5CC"/>
<path d="M263.379 272.615C259.53 272.615 255.682 271.383 252.603 269.074L150.546 207.809C148.545 206.578 147.467 204.115 148.083 201.806C148.083 201.652 148.083 201.652 148.237 201.498C148.237 201.344 148.237 201.344 148.237 201.19L150.546 195.033C152.085 190.569 153.625 186.258 155.164 181.794L162.861 160.244C171.481 135.769 181.64 107.137 191.492 79.1213C192.723 74.8112 196.418 71.5786 200.882 70.9629L292.01 54.3382C297.244 53.4146 302.631 54.6461 307.095 57.5708L363.896 95.4382C375.749 103.443 387.91 111.601 400.379 119.76C405.15 122.838 406.536 126.994 404.843 132.536L370.977 252.296C369.438 257.221 365.282 260.762 360.202 261.378L263.686 272.922C263.532 272.615 263.379 272.615 263.379 272.615ZM149.622 201.652C149.622 201.806 149.468 201.96 149.468 202.113C149.007 203.961 149.776 205.654 151.316 206.578L253.219 267.997C256.144 270.152 259.838 271.383 263.379 271.229L359.894 259.684C364.358 259.069 368.053 255.99 369.438 251.68L403.303 131.92C404.227 128.842 404.843 124.378 399.455 120.837C386.986 112.679 374.672 104.366 362.973 96.5157L306.326 58.6483C302.17 55.8775 297.244 54.8 292.318 55.7236L201.19 72.3483C197.188 72.8101 193.955 75.7348 192.877 79.5831C183.026 107.599 172.866 136.384 164.246 160.86L156.549 182.41C155.01 186.72 153.471 191.184 151.931 195.648L149.622 201.652Z" fill="#A67C52"/>
<path d="M641.129 326.799C640.359 330.339 637.743 333.264 634.356 334.342L553.695 364.204L527.373 373.286C522.755 374.826 517.675 373.902 514.135 370.67L424.854 292.164C421.467 289.701 420.082 285.391 421.159 281.389C424.546 263.071 428.086 243.829 432.089 222.74C434.551 209.502 437.014 196.418 439.323 183.18L443.172 162.707C443.172 162.399 443.326 162.091 443.326 161.629L443.48 160.859C443.787 159.166 445.173 157.627 446.866 157.011L561.854 122.222C565.702 120.991 569.858 121.915 572.937 124.531L670.068 198.265C672.993 200.882 674.225 204.884 673.147 208.579L641.129 326.799Z" fill="#FFE5CC"/>
<path d="M522.909 374.98C519.522 374.98 516.136 373.748 513.519 371.439L424.238 292.934C420.698 290.317 419.158 285.699 420.236 281.389C423.622 263.071 427.163 243.983 431.165 222.894C433.628 209.656 436.091 196.572 438.4 183.334L442.248 162.861C442.248 162.707 442.248 162.399 442.402 162.245C442.402 162.091 442.402 161.937 442.556 161.783L442.71 161.013C443.172 159.012 444.557 157.319 446.558 156.703L561.546 121.915C565.702 120.683 570.012 121.607 573.245 124.378L670.376 198.111C673.609 200.882 674.84 205.192 673.763 209.194L641.899 327.107C640.975 330.801 638.204 334.034 634.664 335.265L554.003 365.128L527.681 374.364C525.987 374.672 524.448 374.98 522.909 374.98ZM565.086 122.838C564.009 122.838 562.931 122.992 561.854 123.3L446.866 158.089C445.481 158.551 444.403 159.782 444.095 161.321L443.941 162.091C443.941 162.245 443.941 162.399 443.787 162.553C443.787 162.707 443.634 162.861 443.634 163.015L439.785 183.642C437.322 196.88 434.859 209.964 432.55 223.202C428.702 244.291 425.162 263.533 421.621 281.851C420.544 285.699 421.929 289.547 425.008 291.856L514.289 370.362C517.675 373.44 522.447 374.364 526.757 372.825L553.08 363.589L633.74 333.726C636.973 332.648 639.436 329.878 640.052 326.645L671.762 208.886C672.685 205.346 671.608 201.652 668.837 199.343L571.705 125.609C570.166 123.762 567.703 122.838 565.086 122.838Z" fill="#A67C52"/>
<path d="M366.513 257.683L265.687 184.411L149.006 204.576" fill="#FFE5CC"/>
<path d="M366.513 258.299C366.359 258.299 366.205 258.299 366.051 258.145L265.533 185.181L149.16 205.346C148.699 205.346 148.391 205.192 148.237 204.73C148.237 204.269 148.391 203.961 148.853 203.807L265.533 183.642C265.687 183.642 265.995 183.642 266.149 183.796L366.975 256.914C367.283 257.221 367.437 257.683 367.129 257.991C366.975 258.299 366.667 258.299 366.513 258.299Z" fill="#A67C52"/>
<path d="M265.688 185.181H265.534C265.072 185.027 264.918 184.719 265.072 184.257L298.629 54.8C298.783 54.3382 299.091 54.1843 299.553 54.3382C300.015 54.4922 300.169 54.8 300.015 55.2618L266.457 184.719C266.303 185.027 265.995 185.181 265.688 185.181Z" fill="#A67C52"/>
<path d="M519.676 374.21L550.463 243.06L444.557 158.859" fill="#FFE5CC"/>
<path d="M519.676 374.98H519.522C519.061 374.826 518.907 374.518 518.907 374.056L549.539 243.367L443.942 159.474C443.634 159.166 443.634 158.705 443.788 158.397C444.095 158.089 444.557 158.089 444.865 158.243L550.771 242.444C550.925 242.598 551.079 242.906 551.079 243.214L520.292 374.364C520.292 374.826 519.984 374.98 519.676 374.98Z" fill="#A67C52"/>
<path d="M550.463 243.829C550.155 243.829 549.847 243.675 549.693 243.367C549.539 242.906 549.847 242.598 550.155 242.444L672.685 203.191C673.147 203.037 673.455 203.345 673.609 203.653C673.763 203.961 673.455 204.422 673.147 204.576L550.617 243.829H550.463Z" fill="#A67C52"/>
<path d="M324.952 142.542C321.411 146.236 319.256 151.162 319.256 156.242C319.256 163.015 320.796 168.094 323.566 171.789C328.184 177.792 335.419 178.408 340.807 173.02C348.35 165.631 348.35 150.084 340.807 142.542C336.189 137.77 329.878 137.77 324.952 142.542Z" fill="#132155"/>
<path d="M235.517 149.007C226.589 153.471 221.663 161.013 220.585 170.865C219.662 179.024 226.589 184.103 234.285 181.179C242.752 178.1 250.141 167.325 250.294 158.397C250.448 149.469 243.521 145.004 235.517 149.007Z" fill="#132155"/>
<path d="M263.379 100.364C271.999 96.5157 276.617 89.5888 277.541 80.3528C278.31 73.118 271.999 68.8079 265.226 71.4247C257.222 74.6573 250.91 83.5854 250.756 91.8977C250.91 99.5944 256.298 103.443 263.379 100.364Z" fill="#132155"/>
<path d="M187.336 155.626C183.949 153.779 181.025 155.164 178.408 157.165C171.019 162.707 166.555 171.173 165.939 180.409C165.631 183.488 166.401 186.566 169.326 188.26C172.25 189.953 175.175 189.029 177.792 187.182C185.027 181.948 189.799 173.944 190.876 165.17C190.876 160.398 190.568 157.319 187.336 155.626Z" fill="#132155"/>
<path d="M206.885 82.9697C199.497 85.8944 192.57 96.054 192.878 103.905C193.032 109.754 197.342 112.679 202.729 110.678C210.272 107.907 217.045 98.3629 217.199 90.3584C217.199 83.7393 213.043 80.6607 206.885 82.9697Z" fill="#132155"/>
<path d="M267.997 211.503C263.841 208.425 258.915 206.424 253.835 205.346C249.217 204.268 244.599 203.499 239.827 204.576C235.055 205.654 233.978 209.194 237.056 212.735C237.826 213.658 238.904 214.582 239.827 215.198C246.6 219.2 254.143 221.509 261.993 221.663C263.071 221.817 263.995 221.817 265.072 221.663C267.535 221.047 270.152 220.739 271.075 217.815C271.999 214.89 269.998 213.043 267.997 211.503Z" fill="#132155"/>
<path d="M274.308 253.835C270.152 250.756 265.38 248.755 260.146 247.678C255.528 246.6 250.91 245.83 246.138 246.908C241.366 247.985 240.289 251.68 243.367 255.066C244.137 255.99 245.061 256.914 246.138 257.529C252.911 261.531 260.454 263.84 268.304 263.994C269.382 264.148 270.306 264.148 271.383 263.994C273.846 263.379 276.463 263.071 277.386 260.146C278.31 257.221 276.309 255.374 274.308 253.835Z" fill="#132155"/>
<path d="M526.449 238.749C521.215 232.746 513.057 233.054 509.363 239.365C504.283 247.985 507.208 262.147 515.212 268.151C519.368 271.691 525.679 271.229 529.22 267.073C529.836 266.303 530.297 265.534 530.605 264.764C532.145 261.993 532.76 258.915 532.606 255.836C532.76 249.525 530.605 243.367 526.449 238.749Z" fill="#132155"/>
<path d="M501.512 310.636C497.356 310.636 493.508 313.253 491.969 317.101C488.274 326.645 490.737 337.266 497.972 344.347C501.666 348.042 507.67 348.196 511.364 344.501C512.134 343.731 512.903 342.808 513.365 341.73C517.675 333.726 515.674 320.949 509.209 314.484C506.9 312.329 504.283 310.636 501.512 310.636Z" fill="#132155"/>
<path d="M493.815 275.231C494.431 273.23 494.585 271.229 494.585 269.074C494.431 261.531 492.122 255.066 486.119 250.294C480.423 245.676 473.189 247.524 470.418 254.143C467.031 262.301 469.802 274.308 476.267 280.311C482.886 286.161 491.199 284.006 493.815 275.231Z" fill="#132155"/>
<path d="M470.88 203.499C469.802 196.418 467.647 189.799 460.874 185.797C457.18 183.334 452.1 184.411 449.637 188.106C449.637 188.106 449.637 188.106 449.637 188.26C447.482 191.338 446.404 195.033 446.558 198.727C446.558 207.039 448.867 213.658 454.409 218.892C459.489 223.664 466.108 222.279 469.186 216.121C471.034 212.119 471.495 207.655 470.88 203.499Z" fill="#132155"/>
<path d="M449.945 265.534C444.403 260.454 437.168 261.531 433.936 268.305C430.087 276.771 431.935 284.775 437.014 292.01C439.631 295.858 443.48 298.629 448.405 297.552C453.639 296.32 455.794 292.01 456.872 287.238C457.026 286.007 457.026 284.775 456.872 283.544C457.18 276.001 454.717 269.844 449.945 265.534Z" fill="#132155"/>
<path d="M598.797 274.308C590.639 277.54 583.866 289.239 585.097 297.86C585.559 302.631 589.869 306.326 594.795 305.71C595.103 305.71 595.411 305.556 595.719 305.556C604.493 304.017 612.805 293.703 612.959 284.006C613.267 275.231 607.11 271.075 598.797 274.308Z" fill="#132155"/>
<path d="M557.544 323.412C548.616 324.798 539.534 335.419 539.38 344.347C539.38 350.658 543.844 355.122 549.386 354.353C559.083 352.967 568.473 342.654 568.627 332.956C568.781 326.337 564.163 322.335 557.544 323.412Z" fill="#132155"/>
<path d="M540.149 217.045C545.537 223.972 557.39 227.82 565.702 225.049C573.399 222.586 575.246 215.352 569.858 209.348C564.932 203.807 558.467 201.806 552.156 201.19C549.693 201.036 547.23 201.498 544.921 202.113C537.686 204.422 535.531 211.042 540.149 217.045Z" fill="#132155"/>
<path d="M482.578 170.557C488.428 175.791 496.432 177.946 504.129 176.407C507.977 175.637 511.364 173.944 512.595 169.788C513.827 165.632 511.826 162.245 508.901 159.32C503.975 154.548 497.818 152.547 490.891 152.239C489.967 152.393 488.736 152.393 487.658 152.547C483.348 153.317 479.5 154.856 478.114 159.32C476.729 163.784 479.192 167.787 482.578 170.557Z" fill="#132155"/>
<path d="M573.552 155.626C580.787 153.163 582.788 146.544 577.862 140.694C572.937 134.845 566.164 132.536 558.621 132.074C556.928 132.074 555.388 132.228 553.849 132.536C544.921 134.691 542.612 141.926 548.461 148.853C553.849 155.164 565.856 158.397 573.552 155.626Z" fill="#132155"/>
<path d="M608.803 196.418C613.575 202.883 620.502 205.192 628.352 205.654C631.431 205.808 634.356 205.192 636.973 203.807C641.129 201.806 642.976 196.88 640.975 192.57C640.821 192.108 640.513 191.8 640.359 191.492C635.741 183.488 621.579 178.716 612.959 182.41C606.34 185.027 604.647 190.568 608.803 196.418Z" fill="#132155"/>
<path d="M510.44 191.646C515.212 197.803 521.985 199.958 529.528 200.42C531.683 200.574 533.992 200.112 535.993 199.497C543.228 197.342 545.383 190.569 540.765 184.565C535.377 177.638 523.525 174.098 515.212 176.715C507.67 179.178 505.669 185.643 510.44 191.646Z" fill="#132155"/>
<path d="M578.324 171.943C583.25 177.946 590.023 180.255 597.412 180.563C599.567 180.717 601.876 180.409 603.877 179.639C610.804 177.484 613.113 170.249 608.495 164.862C602.338 157.473 592.486 154.24 583.25 156.857C575.554 158.705 573.245 165.785 578.324 171.943Z" fill="#132155"/>
</svg>
