<?xml version="1.0" encoding="utf-8"?>
<!-- Generator: Adobe Illustrator 21.0.2, SVG Export Plug-In . SVG Version: 6.00 Build 0)  -->
<svg version="1.1" id="Layer_1" xmlns="http://www.w3.org/2000/svg" xmlns:xlink="http://www.w3.org/1999/xlink" x="0px" y="0px"
	 viewBox="0 0 120 120" style="enable-background:new 0 0 120 120;" xml:space="preserve">
<style type="text/css">
	.st0{fill:#FC5770;}
	.st1{fill:#FFFFFF;}
	.st2{fill:#70394B;}
	.st3{fill:#9AA7D6;}
	.st4{fill:#022253;}
	.st5{fill:#E8EAFF;}
	.st6{fill:#FA9084;}
	.st7{fill:#A27E8A;}
	.st8{fill:#F0F1FF;}
	.st9{fill:#C1C8EA;}
</style>
<title>Artboard 3</title>
<desc>Created with Sketch.</desc>
<g>
	<g>
		<path class="st0" d="M119.8,59.9c0,33.1-26.8,59.9-59.9,59.9C26.9,119.8,0,93,0,59.9C0,26.8,26.9,0,59.9,0
			C93,0,119.8,26.8,119.8,59.9"/>
		<path class="st1" d="M61,91.7L61,91.7c-0.4,0-0.7-0.3-0.7-0.7V29.2c0-0.4,0.3-0.7,0.7-0.7l0,0c0.4,0,0.7,0.3,0.7,0.7v61.7
			C61.7,91.3,61.4,91.7,61,91.7z"/>
		<path class="st2" d="M95.9,94.9C95.9,94.9,95.8,94.9,95.9,94.9L95.9,94.9L95.9,94.9 M61,91.7v0.1h0L61,91.7L61,91.7 M49.7,89
			c-3.8,0.5-7.9,2.5-14.6,4.5c-0.1,0-0.2,0-0.2,0.1c8.6-1.2,17.3-1.8,26-1.8c-0.1-0.1-0.2-0.1-0.3-0.2c-0.7,0-1.3,0-2-0.1
			C55.4,91.2,52.4,90.4,49.7,89 M72.3,89c-3.3,1.6-7,2.6-10.9,2.6c-0.1,0-0.2,0.1-0.3,0.1c0.1,0,0.2,0,0.2,0c1.4,0,2.9,0,4.3,0
			l5.6-2l0.8,2.2c4.8,0.3,9.6,0.7,14.4,1.3C80,91.5,76.1,89.5,72.3,89"/>
		<polyline class="st3" points="69.6,104 65.4,92 71.4,89.9 75.6,101.9 69.6,104 		"/>
		<path class="st4" d="M78.7,104c-0.5-1.5-2.2-2.4-3.8-1.8l-3.9,1.4c-1.5,0.5-2.4,2.2-1.8,3.8l3.9,11c3.3-0.7,6.5-1.8,9.6-3
			L78.7,104z"/>
		<path class="st1" d="M35.1,30.2c-10.2,3-15.5,0.1-17.2-1.1c-0.3-0.2-0.6,0-0.6,0.3v62.5c0,0,5.2,5.4,17.8,1.7
			c12.7-3.7,15.8-7.5,25.9-1.7V28.5C50.9,22.7,47.7,26.4,35.1,30.2"/>
		<path class="st5" d="M87,30.2c-12.7-3.7-15.8-7.5-25.9-1.7v63.4c10.2-5.8,13.3-2.1,25.9,1.7c12.7,3.7,17.8-1.7,17.8-1.7V29.3
			c0-0.3-0.4-0.5-0.6-0.3C102.5,30.3,97.1,33.2,87,30.2"/>
		<polyline class="st6" points="61,40.5 61,65.3 61,65.3 61,40.5 61,40.5 		"/>
		<path class="st7" d="M51.7,88.9c-0.7,0-1.3,0.1-2,0.1c2.7,1.3,5.7,2.2,8.9,2.5c0.7,0.1,1.3,0.1,2,0.1C57,89.6,54.3,88.9,51.7,88.9
			 M61,65.3L61,65.3l0,26.3h0V65.3"/>
		<path class="st1" d="M61,40.5c-13,0-24.2,9.9-25.4,23.1c-1,10.9,4.9,20.8,14.1,25.4c0.7-0.1,1.3-0.1,2-0.1c2.6,0,5.3,0.8,8.9,2.8
			c0.1,0,0.3,0,0.4,0V65.3L61,40.5C61,40.5,61,40.5,61,40.5"/>
		<path class="st7" d="M70.3,88.9c-2.6,0-5.3,0.8-8.9,2.8c3.9-0.1,7.6-1,10.9-2.6C71.7,88.9,71,88.9,70.3,88.9"/>
		<path class="st8" d="M61,40.5v24.8v26.3c0,0,0,0,0,0c0.1,0,0.3,0,0.4,0c3.6-2,6.3-2.8,8.9-2.8c0.7,0,1.3,0.1,2,0.1
			c7.7-3.8,13.3-11.4,14.1-20.5c1.3-14.1-9-26.5-23-27.9C62.6,40.6,61.8,40.5,61,40.5"/>
		<path class="st9" d="M61,96.2c-1,0-1.9,0-2.9-0.1C41.6,94.5,29.5,79.8,31,63.2c1.6-16.5,16.3-28.7,32.8-27.1
			C80.4,37.7,92.6,52.4,91,68.9C89.5,84.5,76.4,96.2,61,96.2z M61,42.3c-12.1,0-22.5,9.2-23.7,21.5c-1.2,13.1,8.4,24.7,21.4,26
			s24.7-8.4,26-21.4l3.1,0.3l-3.1-0.3c1.2-13.1-8.4-24.7-21.4-26C62.5,42.3,61.7,42.3,61,42.3z"/>
	</g>
</g>
</svg>
