<svg width="120" height="120" viewBox="0 0 120 120" xmlns="http://www.w3.org/2000/svg" xmlns:xlink="http://www.w3.org/1999/xlink">
    <title>
        Artboard 3
    </title>
    <defs>
        <path d="M.388 43.998c0 15.904 8.528 29.835 21.3 37.555 6.727 4.068 14.634 6.413 23.092 6.413 8.308 0 16.08-2.266 22.728-6.2 8.063-4.77 14.472-12 18.17-20.644 2.25-5.262 3.494-11.05 3.494-17.125 0-6.528-1.436-12.721-4.013-18.291C78.152 10.554 62.707.029 44.78.029 20.263.029.388 19.714.388 43.998z" id="a"/>
        <path d="M.388 43.998c0 15.904 8.528 29.835 21.3 37.555 6.727 4.068 14.634 6.413 23.092 6.413 8.308 0 16.08-2.266 22.728-6.2 8.063-4.77 14.472-12 18.17-20.644 2.25-5.262 3.494-11.05 3.494-17.125 0-6.528-1.436-12.721-4.013-18.291C78.152 10.554 62.707.029 44.78.029 20.263.029.388 19.714.388 43.998z" id="c"/>
        <path d="M.388 43.998c0 15.904 8.528 29.835 21.3 37.555 6.727 4.068 14.634 6.413 23.092 6.413 8.308 0 16.08-2.266 22.728-6.2 8.063-4.77 14.472-12 18.17-20.644 2.25-5.262 3.494-11.05 3.494-17.125 0-6.528-1.436-12.721-4.013-18.291C78.152 10.554 62.707.029 44.78.029 20.263.029.388 19.714.388 43.998z" id="e"/>
        <path d="M.388 43.998c0 15.904 8.528 29.835 21.3 37.555 6.727 4.068 14.634 6.413 23.092 6.413 8.308 0 16.08-2.266 22.728-6.2 8.063-4.77 14.472-12 18.17-20.644 2.25-5.262 3.494-11.05 3.494-17.125 0-6.528-1.436-12.721-4.013-18.291C78.152 10.554 62.707.029 44.78.029 20.263.029.388 19.714.388 43.998z" id="g"/>
        <path d="M.388 43.998c0 15.904 8.528 29.835 21.3 37.555 6.727 4.068 14.634 6.413 23.092 6.413 8.308 0 16.08-2.266 22.728-6.2 8.063-4.77 14.472-12 18.17-20.644 2.25-5.262 3.494-11.05 3.494-17.125 0-6.528-1.436-12.721-4.013-18.291C78.152 10.554 62.707.029 44.78.029 20.263.029.388 19.714.388 43.998z" id="i"/>
        <path d="M.388 43.998c0 15.904 8.528 29.835 21.3 37.555 6.727 4.068 14.634 6.413 23.092 6.413 8.308 0 16.08-2.266 22.728-6.2 8.063-4.77 14.472-12 18.17-20.644 2.25-5.262 3.494-11.05 3.494-17.125 0-6.528-1.436-12.721-4.013-18.291C78.152 10.554 62.707.029 44.78.029 20.263.029.388 19.714.388 43.998z" id="k"/>
        <path d="M.388 43.998c0 15.904 8.528 29.835 21.3 37.555 6.727 4.068 14.634 6.413 23.092 6.413 8.308 0 16.08-2.266 22.728-6.2 8.063-4.77 14.472-12 18.17-20.644 2.25-5.262 3.494-11.05 3.494-17.125 0-6.528-1.436-12.721-4.013-18.291C78.152 10.554 62.707.029 44.78.029 20.263.029.388 19.714.388 43.998z" id="m"/>
        <path d="M.388 43.998c0 15.904 8.528 29.835 21.3 37.555 6.727 4.068 14.634 6.413 23.092 6.413 8.308 0 16.08-2.266 22.728-6.2 8.063-4.77 14.472-12 18.17-20.644 2.25-5.262 3.494-11.05 3.494-17.125 0-6.528-1.436-12.721-4.013-18.291C78.152 10.554 62.707.029 44.78.029 20.263.029.388 19.714.388 43.998z" id="o"/>
        <path d="M.388 43.998c0 15.904 8.528 29.835 21.3 37.555 6.727 4.068 14.634 6.413 23.092 6.413 8.308 0 16.08-2.266 22.728-6.2 8.063-4.77 14.472-12 18.17-20.644 2.25-5.262 3.494-11.05 3.494-17.125 0-6.528-1.436-12.721-4.013-18.291C78.152 10.554 62.707.029 44.78.029 20.263.029.388 19.714.388 43.998z" id="q"/>
        <path d="M.388 43.998c0 15.904 8.528 29.835 21.3 37.555 6.727 4.068 14.634 6.413 23.092 6.413 8.308 0 16.08-2.266 22.728-6.2 8.063-4.77 14.472-12 18.17-20.644 2.25-5.262 3.494-11.05 3.494-17.125 0-6.528-1.436-12.721-4.013-18.291C78.152 10.554 62.707.029 44.78.029 20.263.029.388 19.714.388 43.998z" id="s"/>
        <path d="M.388 43.998c0 15.904 8.528 29.835 21.3 37.555 6.727 4.068 14.634 6.413 23.092 6.413 8.308 0 16.08-2.266 22.728-6.2 8.063-4.77 14.472-12 18.17-20.644 2.25-5.262 3.494-11.05 3.494-17.125 0-6.528-1.436-12.721-4.013-18.291C78.152 10.554 62.707.029 44.78.029 20.263.029.388 19.714.388 43.998z" id="u"/>
        <path d="M.388 43.998c0 15.904 8.528 29.835 21.3 37.555 6.727 4.068 14.634 6.413 23.092 6.413 8.308 0 16.08-2.266 22.728-6.2 8.063-4.77 14.472-12 18.17-20.644 2.25-5.262 3.494-11.05 3.494-17.125 0-6.528-1.436-12.721-4.013-18.291C78.152 10.554 62.707.029 44.78.029 20.263.029.388 19.714.388 43.998z" id="w"/>
        <path d="M.388 43.998c0 15.904 8.528 29.835 21.3 37.555 6.727 4.068 14.634 6.413 23.092 6.413 8.308 0 16.08-2.266 22.728-6.2 8.063-4.77 14.472-12 18.17-20.644 2.25-5.262 3.494-11.05 3.494-17.125 0-6.528-1.436-12.721-4.013-18.291C78.152 10.554 62.707.029 44.78.029 20.263.029.388 19.714.388 43.998z" id="y"/>
        <path d="M.388 43.998c0 15.904 8.528 29.835 21.3 37.555 6.727 4.068 14.634 6.413 23.092 6.413 8.308 0 16.08-2.266 22.728-6.2 8.063-4.77 14.472-12 18.17-20.644 2.25-5.262 3.494-11.05 3.494-17.125 0-6.528-1.436-12.721-4.013-18.291C78.152 10.554 62.707.029 44.78.029 20.263.029.388 19.714.388 43.998z" id="A"/>
        <path d="M27.194 11.817C26.084 5.474 20.568.648 13.913.648 6.458.648.415 6.696.415 14.155c0 7.461 9.2 13.508 13.498 13.508 3.014 0 11.763-5.037 13.27-11.587 1.37 6.55 9.37 11.587 13.292 11.587 3.303 0 13.498-6.047 13.498-13.508 0-7.46-6.043-13.507-13.498-13.507-6.655 0-12.172 4.826-13.281 11.169z" id="C"/>
        <path id="E" d="M0 119.092h118.937V.064H0z"/>
    </defs>
    <g fill="none" fill-rule="evenodd">
        <path d="M118.936 60.236c0 32.87-26.625 59.514-59.468 59.514S0 93.105 0 60.236 26.625.722 59.468.722s59.468 26.645 59.468 59.514" fill="#F75442"/>
        <path d="M118.936 60.236c0 32.87-26.625 59.514-59.468 59.514S0 93.105 0 60.236 26.625.722 59.468.722s59.468 26.645 59.468 59.514" fill="#FC5770"/>
        <path d="M59.504 119.75c18.32 0 34.698-8.289 45.615-21.317-2.44-3.344-6.375-5.527-10.83-5.527h-65.84c-5.504 0-10.229 3.322-12.295 8.069 10.855 11.55 26.256 18.775 43.35 18.775" fill="#FFD580"/>
        <path d="M92.5 92.906h-1.03c-2.629 2.63-5.59 4.932-8.817 6.841-6.648 3.934-14.42 6.2-22.728 6.2-8.458 0-16.364-2.345-23.091-6.413-3.088-1.866-5.928-4.095-8.458-6.628H28.336c-1.168.01-2.299.179-3.378.469 3.806 5.355 8.583 10.237 14.436 13.313 5.315 2.792 11.65 3.869 17.66 3.869.967 0 1.926-.028 2.871-.081 8.212-.461 13.641-3.398 19.62-6.979 2.972-1.78 5.73-3.983 8.385-6.221 1.612-1.358 3.096-2.86 4.57-4.37" fill="#DFBB78"/>
        <path d="M11.655 59.204c0 6.459 3.328 11.695 7.434 11.695s7.435-5.236 7.434-11.695c.001-6.459-3.329-11.694-7.433-11.695-4.107 0-7.435 5.236-7.435 11.695M92.604 59.204c0 6.46 3.329 11.694 7.435 11.694 4.106.001 7.434-5.235 7.434-11.694 0-6.459-3.33-11.695-7.434-11.695-4.107 0-7.435 5.235-7.435 11.695M61.37 29.313c6.454 0 11.685-3.331 11.686-7.44 0-4.11-5.233-7.44-11.686-7.44-6.454-.001-11.686 3.331-11.686 7.439 0 4.11 5.232 7.44 11.686 7.44" fill="#29264C"/>
        <g>
            <g transform="translate(15.145 17.98)">
                <mask id="b" fill="#fff">
                    <use xlink:href="#a"/>
                </mask>
                <path fill="#DEE1FF" mask="url(#b)" d="M71.048.029L.388 21.113V.03z"/>
            </g>
            <g transform="translate(15.145 17.98)">
                <mask id="d" fill="#fff">
                    <use xlink:href="#c"/>
                </mask>
                <path fill="#DEE1FF" mask="url(#d)" d="M75.4.029L.389 22.412v-1.299L71.048.03z"/>
            </g>
            <g transform="translate(15.145 17.98)">
                <mask id="f" fill="#fff">
                    <use xlink:href="#e"/>
                </mask>
                <path fill="#DDE0FF" mask="url(#f)" d="M79.753.029L.388 23.71v-1.299L75.4.03z"/>
            </g>
            <g transform="translate(15.145 17.98)">
                <mask id="h" fill="#fff">
                    <use xlink:href="#g"/>
                </mask>
                <path fill="#DCDFFF" mask="url(#h)" d="M84.105.029L.388 25.009v-1.298L79.753.03z"/>
            </g>
            <g transform="translate(15.145 17.98)">
                <mask id="j" fill="#fff">
                    <use xlink:href="#i"/>
                </mask>
                <path fill="#DBDFFF" mask="url(#j)" d="M88.458.029L.388 26.309v-1.3L84.105.03z"/>
            </g>
            <g transform="translate(15.145 17.98)">
                <mask id="l" fill="#fff">
                    <use xlink:href="#k"/>
                </mask>
                <path fill="#DADEFF" mask="url(#l)" d="M89.172 1.115L.388 27.607V26.31L88.458.029h.714z"/>
            </g>
            <g transform="translate(15.145 17.98)">
                <mask id="n" fill="#fff">
                    <use xlink:href="#m"/>
                </mask>
                <path fill="#D9DDFF" mask="url(#n)" d="M89.172 2.413L.388 28.906v-1.299L89.172 1.115z"/>
            </g>
            <g transform="translate(15.145 17.98)">
                <mask id="p" fill="#fff">
                    <use xlink:href="#o"/>
                </mask>
                <path fill="#D7DCFF" mask="url(#p)" d="M89.172 3.712L.388 30.204v-1.298L89.172 2.413z"/>
            </g>
            <g transform="translate(15.145 17.98)">
                <mask id="r" fill="#fff">
                    <use xlink:href="#q"/>
                </mask>
                <path fill="#D6DBFF" mask="url(#r)" d="M89.172 5.01L.388 31.505v-1.3L89.172 3.713z"/>
            </g>
            <g transform="translate(15.145 17.98)">
                <mask id="t" fill="#fff">
                    <use xlink:href="#s"/>
                </mask>
                <path fill="#D5DAFF" mask="url(#t)" d="M89.172 6.31L.388 32.802v-1.3L89.172 5.011z"/>
            </g>
            <g transform="translate(15.145 17.98)">
                <mask id="v" fill="#fff">
                    <use xlink:href="#u"/>
                </mask>
                <path fill="#D4DAFF" mask="url(#v)" d="M89.172 7.608L.388 34.101v-1.299L89.172 6.31z"/>
            </g>
            <g transform="translate(15.145 17.98)">
                <mask id="x" fill="#fff">
                    <use xlink:href="#w"/>
                </mask>
                <path fill="#D3D9FF" mask="url(#x)" d="M89.172 8.907L.388 35.4v-1.3L89.172 7.609z"/>
            </g>
            <g transform="translate(15.145 17.98)">
                <mask id="z" fill="#fff">
                    <use xlink:href="#y"/>
                </mask>
                <path fill="#D2D8FF" mask="url(#z)" d="M89.172 10.205L.388 36.7v-1.3L89.172 8.907z"/>
            </g>
            <g transform="translate(15.145 17.98)">
                <mask id="B" fill="#fff">
                    <use xlink:href="#A"/>
                </mask>
                <path fill="#D2D8FF" mask="url(#B)" d="M.388 36.698l88.784-26.493v77.761H.388z"/>
            </g>
        </g>
        <path d="M15.534 61.978c0-24.283 19.874-43.968 44.39-43.968 17.928 0 33.374 10.525 40.38 25.677 2.578 5.57 4.014 11.764 4.014 18.29 0 6.076-1.245 11.864-3.495 17.126-3.697 8.643-10.106 15.873-18.17 20.644-6.647 3.934-14.42 6.2-22.727 6.2-8.459 0-16.365-2.345-23.092-6.413-12.773-7.72-21.3-21.651-21.3-37.556" fill="#FFD580"/>
        <g transform="translate(38.945 43.243)">
            <mask id="D" fill="#fff">
                <use xlink:href="#C"/>
            </mask>
            <path fill="#DFBB78" mask="url(#D)" d="M.415 27.663h53.557V.648H.415z"/>
        </g>
        <g transform="translate(0 .658)">
            <path d="M52.858 48.512c-4.51 0-8.18 3.672-8.18 8.186 0 4.513 3.67 8.185 8.18 8.185s8.18-3.672 8.18-8.185c0-4.514-3.67-8.186-8.18-8.186m0 17.037c-4.877 0-8.844-3.97-8.844-8.851s3.967-8.851 8.844-8.851c4.877 0 8.844 3.97 8.844 8.85 0 4.881-3.967 8.852-8.844 8.852" fill="#29264C"/>
            <mask id="F" fill="#fff">
                <use xlink:href="#E"/>
            </mask>
            <path fill="#29264C" mask="url(#F)" d="M46.028 62.185h.642V51.267h-.642zM48.23 64.13h.66V49.274h-.66zM50.44 64.9h.66V48.377h-.66zM52.584 65.08h.797V47.87h-.797zM54.806 64.73h.776V48.427h-.776zM57.044 63.899h.721V49.521h-.72zM59.312 61.876h.608v-10.27h-.608zM79.42 48.512c-4.51 0-8.179 3.672-8.179 8.186 0 4.513 3.67 8.185 8.18 8.185s8.179-3.672 8.179-8.185c0-4.514-3.67-8.186-8.18-8.186m0 17.037c-4.876 0-8.844-3.97-8.844-8.851s3.968-8.851 8.845-8.851c4.877 0 8.844 3.97 8.844 8.85 0 4.881-3.967 8.852-8.844 8.852"/>
            <path fill="#29264C" mask="url(#F)" d="M72.59 62.185h.642V51.267h-.641zM74.793 64.13h.66V49.274h-.66zM77.004 64.9h.66V48.377h-.66zM79.147 65.08h.796V47.87h-.796zM81.369 64.73h.775V48.427h-.775zM83.607 63.899h.721V49.521h-.72zM85.875 61.876h.607v-10.27h-.607zM62.634 83.522c-.514 0-.932.42-.932.933v2.569c0 .513.418.932.932.932h6.074c.514 0 .932-.42.932-.932v-2.569c0-.514-.418-.933-.932-.933h-6.074zm6.074 5.098h-6.074c-.88 0-1.596-.716-1.596-1.596v-2.569c0-.881.716-1.598 1.596-1.598h6.074c.881 0 1.597.717 1.597 1.598v2.569c0 .88-.716 1.596-1.597 1.596z"/>
            <path fill="#29264C" mask="url(#F)" d="M61.37 86.835h8.603v-2.192H61.37z"/>
        </g>
    </g>
</svg>
