<svg id="Layer_1" xmlns="http://www.w3.org/2000/svg" viewBox="0 0 120 120">
    <style>
        .st0{fill:#fc5770}.st1{fill:#2c2c4a}.st2{fill:none;stroke:#2e2e54;stroke-width:.6146}.st3{fill:#e8eaff}.st4{fill:none;stroke:#2e2e54;stroke-width:.576}.st5{fill:#ed1846}.st6{fill:#afbddf}.st7{fill:none;stroke:#2c2c4a;stroke-width:2.194}.st8{fill:#5b1635}
    </style>
    <g id="Mask">
        <circle id="path-1_1_" class="st0" cx="60" cy="60" r="60"/>
    </g>
    <title>
        Artboard 3
    </title>
    <g id="Group-48">
        <g transform="rotate(-61 64.843 34.803)" id="Group-47">
            <g id="Page-1">
                <path id="Fill-1" class="st1" d="M71.5 42.3l4.5 3.2c.3.2.8.2 1-.2l.2-.3c.2-.3.2-.8-.2-1l-4.4-3.1c-.3-.2-.8-.2-1 .2l-.2.3c-.3.3-.2.7.1.9"/>
                <path id="Stroke-3" class="st2" d="M71.5 42.3l4.5 3.2c.3.2.8.2 1-.2l.2-.3c.2-.3.2-.8-.2-1l-4.4-3.1c-.3-.2-.8-.2-1 .2l-.2.3c-.3.3-.2.7.1.9z"/>
                <path id="Fill-5" class="st1" d="M66.1 48.3l3.9 3.8c.3.3.8.3 1.1 0l.3-.3c.3-.3.3-.8 0-1.1l-3.9-3.8c-.3-.3-.8-.3-1.1 0l-.3.3c-.2.2-.3.8 0 1.1"/>
                <path id="Stroke-7" class="st2" d="M66.1 48.3l3.9 3.8c.3.3.8.3 1.1 0l.3-.3c.3-.3.3-.8 0-1.1l-3.9-3.8c-.3-.3-.8-.3-1.1 0l-.3.3c-.2.2-.3.8 0 1.1z"/>
                <path id="Fill-9" class="st1" d="M58.3 53.9l3.7 4.6c.2.4.8.4 1.2.2l.3-.3c.4-.2.4-.8.2-1.2L60 52.6c-.2-.4-.8-.4-1.2-.2l-.3.3c-.4.2-.5.7-.2 1.2"/>
                <path id="Stroke-11" class="st2" d="M58.3 53.9l3.7 4.6c.2.4.8.4 1.2.2l.3-.3c.4-.2.4-.8.2-1.2L60 52.6c-.2-.4-.8-.4-1.2-.2l-.3.3c-.4.2-.5.7-.2 1.2z"/>
                <path id="Fill-13" class="st3" d="M75.5 44.6c1.1.5 1.6 1.8.9 2.8l-1.5 2.5-.3.4c-.4.7-1.2.9-2 .9-.1 0-.3-.1-.4 0-.6.1-1.3-.2-1.7-.7l-2.8-3.1c-.6-.7-.6-1.8-.1-2.5l1.8-2.2c.8-.8 2-.9 2.8-.1 1.3.9 2.4 1.6 3.3 2"/>
                <path id="Fill-15" class="st3" d="M69.3 57.5c-.6-.6-1.6-.8-2.4-.3-.9.5-2 .7-2.9.2-.3-.2-.5-.3-.8-.5-1-.6-2.2-1.7-3-3.5-.6-1.3-.1-2.9 1.2-3.6l2.9-1.7c.7-.4 1.5-.2 2 .3l2.9 3.2c.5.5.6 1.2.4 1.9-.3.9-.1 1.6.6 2.1l-1.6.4 1.3.4-.6 1.1z"/>
                <path id="Fill-17_1_" class="st3" d="M75.9 43.9c-.7-.2-1.3-.7-2.2-1.3-1.4-.8-1.7-2.7-.9-4.1l2.1-3.2c1.2-1.6 3.5-2 5.2-.8 1.5 1 1.9 3.1 1.1 4.7l-1.5 3c-.7 1.2-2.4 1.8-3.8 1.4l.4.1"/>
                <path id="Fill-19" class="st3" d="M65.7 60.1c-.3.9-.2.7.4 1l-7.8 9.7L40 67.9v.1l1.5 2.6c-.2 1.2-2.1 1.1-3.3 1l-1.1-.1c-3.4-.1-5.5-.3-7.7-1.3l-10.7-5-6.3-5.1-7-5.7c-2.3-1.9-3.2-5.1-2.2-7.8l3.7-9.8c.6-1.5 1.6-2.8 2.9-3.6.1 0 .2-.1.3-.1 2.3-1.2 5-1 7.2.4l4.7 3.1c.9.6 2 1 3.1 1h.4c4.8-.1 9.6.6 14.1 2.3l2.6 1c.6.3 10.9 3.3 11.5 3.7l4 3 .7 5.1c1.2 1.5-.7-.9 1.2 2.5.1-.3 2.6 3.6 6.1 4.9"/>
                <path id="Fill-21" class="st1" d="M54.2 47.7l3.5 4.3c.4.5 1.1.6 1.6.1.5-.4.6-1.1.1-1.6l-3.5-4.3c-.4-.5-1.1-.6-1.6-.1-.4.4-.5 1.1-.1 1.6"/>
                <path id="Stroke-23" class="st2" d="M54.2 47.7l3.5 4.3c.4.5 1.1.6 1.6.1.5-.4.6-1.1.1-1.6l-3.5-4.3c-.4-.5-1.1-.6-1.6-.1-.4.4-.5 1.1-.1 1.6z"/>
                <path id="Fill-25" class="st3" d="M55.5 46.2l5.1-8.2c.5-.8 1.4-1 2.2-.5l2.7 1.7c.8.5 1 1.4.5 2.2l-5.1 8.2c-.5.8-1.4 1-2.2.5L56 48.4c-.7-.5-.9-1.5-.5-2.2"/>
                <path id="Fill-27" class="st1" d="M74.2 54l3.6 3.4c.3.3.8.3 1.1 0l.2-.2c.3-.3.3-.8 0-1.1l-3.6-3.4c-.3-.3-.8-.3-1.1 0l-.2.3c-.3.2-.4.7 0 1"/>
                <path id="Fill-29" class="st1" d="M61.7 37.5l4.4 2.5c.3.2.8.1 1-.2l.1-.2c.2-.3.1-.8-.2-1l-4.4-2.5c-.3-.2-.8-.1-1 .2l-.1.2c-.3.4-.2.8.2 1"/>
                <path id="Stroke-31" class="st4" d="M61.7 37.5l4.4 2.5c.3.2.8.1 1-.2l.1-.2c.2-.3.1-.8-.2-1l-4.4-2.5c-.3-.2-.8-.1-1 .2l-.1.2c-.3.4-.2.8.2 1z"/>
                <path id="Fill-33" class="st3" d="M70.3 31.4l-1.2 5.1c-.2.7-.6 1.3-1.1 1.8-.2.2-.6.3-.8.3-1.2 0-2.8-.4-4.7-2.5-.5-.5-.6-1.2-.3-1.8.1-.1.2-.3.1-.4l1.5-4.3c.5-1.6 2.1-2.4 3.8-2.2 1.9.4 3.1 2.1 2.7 4"/>
                <path id="Fill-35" class="st1" d="M5.1 33.7L.3 46.3c-.3.6.1 1.5.8 1.8l.5.2c.6.3 1.5-.1 1.8-.8L8 34.8c.3-.6-.1-1.5-.8-1.8l-.4-.1c-.7-.2-1.5.1-1.7.8"/>
                <path id="Stroke-37" class="st4" d="M5.1 33.7L.3 46.3c-.3.6.1 1.5.8 1.8l.5.2c.6.3 1.5-.1 1.8-.8L8 34.8c.3-.6-.1-1.5-.8-1.8l-.4-.1c-.7-.2-1.5.1-1.7.8z"/>
                <path id="Fill-39" class="st1" d="M54.2 64.6l2 6.2c.2.6.9.9 1.4.8l.4-.1c.6-.2.9-.9.8-1.4l-2.1-6.3c-.2-.6-.9-.9-1.4-.8l-.4.1c-.7.3-1 .9-.7 1.5"/>
                <path class="st3" d="M5.2 35.6c2.2-5.2.4-11.3-4.1-14.5-.8-.5-1.4-1-2.1-1.5l-9.9-7.8c-6.9 11.4-9.8 24.8-8.2 38.1l6.1 1.7c5.8 1.6 12-1.3 14.4-6.9l3.8-9.1z"/>
                <path id="Fill-44" class="st3" d="M77.4 56.5c.9.9.7 2.2-.4 2.8l-6.2 3.8-5.5-2.5 2.6-3.2-1.2-.5 2.3-.7 2.6-3.9 1-.4c.9-.4 2 .1 2.4 1 .6 1.7 1.6 2.9 2.4 3.6"/>
                <path id="Fill-46" class="st3" d="M84.7 48.1c1.2 1.5.9 3.8-.5 5.1l-2.5 2.5c-.6.7-1.7.8-2.5.4-.3-.2-.5-.3-.8-.5-.8-.5-1.9-1.4-3-2.8-.7-.9-.5-2.3.5-3l3.4-2.6c1.6-1.1 4.1-.7 5.4.9"/>
                <g id="Group-50" transform="translate(27.08 3.92)">
                    <path id="Fill-48" class="st5" d="M41.1 17.4c-11.8-5.1-25.4.1-30.6 11.9-5.1 11.7.2 25.4 12 30.6 11.6 5.2 25.4-.2 30.6-11.9 1.9-4.4-2.8-7-1.7-11.3 2.4-9.4-3-16.1-10.3-19.3"/>
                </g>
                <path id="Fill-51" class="st3" d="M44 72.5l9 .2h3.3c.7 0 1.1-.8.7-1.2-.2-.2-.4-.6-.6-1-1.2-2.2-1.5-4.7-1.5-6.8 0-.9-.8-1.8-1.8-1.8-.8 0-1.5-.1-1.5 0L41 61.6c-1.4 2.8-1.7 5.3-1.7 7.2 0 2 1.5 3.6 3.6 3.8l1.1-.1z"/>
                <path id="Fill-341" class="st1" d="M46.3 54.4l3.2 4c.5.7 1.5.7 2.2.2s.7-1.5.2-2.2l-3.2-3.9c-.5-.7-1.5-.7-2.2-.2s-.9 1.4-.2 2.1"/>
                <path id="Fill-343" class="st1" d="M35.8 62.1l2.9 4.2c.5.7 1.4.9 2.1.4s.9-1.4.4-2.1l-2.9-4.2c-.5-.7-1.4-.9-2.1-.4-.7.4-.9 1.3-.4 2.1"/>
                <path id="Fill-345" class="st6" d="M39.4 69.8c-2.9 1.7-6.6 2.1-9.8.8L17.9 65c-2.6-2.1-3-5.9-.7-8.5 1.6-1.8 4.3-2.4 6.6-1.4l7.4 3 .4.1c2 .8 3.7 2.2 5.1 4l1.3 1.7 2.1 3c.6.9.4 2.3-.7 2.9"/>
                <path id="Stroke-347" class="st7" d="M23.6 54.4c-3.2-1.2-6.7.5-7.9 3.7-1.2 3.2.5 6.7 3.7 7.9s6.7-.5 7.9-3.7c1.2-3.3-.4-6.8-3.7-7.9z"/>
                <path id="Fill-349" class="st1" d="M65.2 61.6l3.6 3.4c.5.4 1.2.4 1.6-.1l.3-.3c.4-.5.4-1.2 0-1.7l-3.6-3.4c-.5-.4-1.2-.4-1.6.1l-.3.4c-.5.5-.4 1.2 0 1.6"/>
                <path id="Fill-351" class="st3" d="M77.3 50.3c2.2 1 3.1 3.8 1.7 5.9l-3.2 5.4c-.1.1-.4.6-.7 1.2-.8 1.4-2.6 1.8-4.1 1.2-1.2-.5-2.5-1.3-3.7-2.6-1.3-1.4-1.2-3.4.1-4.8l4.8-5.2c1.3-1.6 3.3-2 5.1-1.1"/>
                <path id="Fill-353" class="st3" d="M69.1 64.6c1.2.7 1.2 2.5-.2 3.1-1.7.8-3.3 1.6-3.5 1.6l-4.7 2.1c-.4.2-.9.1-1.1-.2-1-1-2.7-3.4-2.8-7.8 0-1.4 1-2.6 2.3-2.8l4.2-.5c.8-.1 1.6.3 2.1 1 1.1 1.7 2.4 2.7 3.7 3.5"/>
                <path id="Fill-355" class="st6" d="M57.9 48.7c1.6 2.1 1.4 5-.6 6.7l-1.9 1.5-.3.1c-1.1.8-2.6.8-3.6 0-1.2-1-2.5-2.4-3.4-4.2-.6-1.3-.1-2.8 1.1-3.6l2.1-1.4c2.1-1.4 5-1.1 6.6.9"/>
                <path id="Fill-357" class="st6" d="M41.8 54.6l-2.2 1.8c-1.7 1.4-1.9 3.9-.5 5.6l1.8 2.2c1.4 1.7 3.9 1.9 5.6.5l2.2-1.8c1.7-1.4 1.9-3.9.5-5.6l-1.8-2.2c-1.5-1.6-3.9-1.9-5.6-.5"/>
                <path id="Fill-359" class="st8" d="M77.7 41.6c3.8-1.2 7.1-2.7 7.7-7.1.2-1.3 2.2-1.2 2 .1-.3 2.4-1.1 4.5-3 6-1.8 1.5-4.1 2.3-6.3 2.9-1.2.5-1.6-1.5-.4-1.9"/>
            </g>
        </g>
    </g>
</svg>
