<svg id="Layer_1" xmlns="http://www.w3.org/2000/svg" xmlns:xlink="http://www.w3.org/1999/xlink" viewBox="0 0 120 120">
    <style>
        .st0{fill:#fc5770}.st1{fill:#d1d5f2}.st2{fill:#2c2c4a;stroke:#2e2e54;stroke-width:.3233;stroke-miterlimit:10}.st3{fill:#e8eaff}.st4{fill:#a7afd8}.st5{stroke:#2e2e54;stroke-width:.3031;stroke-miterlimit:10}.st5,.st6{fill:#2c2c4a}.st7{clip-path:url(#SVGID_2_);fill:#707193;stroke:#2e2e54;stroke-miterlimit:10}.st7,.st8,.st9{stroke-width:.3031}.st8{clip-path:url(#SVGID_2_);stroke:#2e2e54;stroke-miterlimit:10;fill:#6f7092}.st9{fill:#6f7091}.st10,.st11,.st9{clip-path:url(#SVGID_2_);stroke:#2e2e54;stroke-miterlimit:10}.st10{stroke-width:.3031;fill:#6e6f90}.st11{fill:#6d6e8f}.st11,.st12,.st13{stroke-width:.3031}.st12{clip-path:url(#SVGID_2_);stroke:#2e2e54;stroke-miterlimit:10;fill:#6d6d8e}.st13{fill:#6c6d8d}.st13,.st14,.st15{clip-path:url(#SVGID_2_);stroke:#2e2e54;stroke-miterlimit:10}.st14{stroke-width:.3031;fill:#6b6c8c}.st15{fill:#6a6b8b}.st15,.st16,.st17{stroke-width:.3031}.st16{clip-path:url(#SVGID_2_);stroke:#2e2e54;stroke-miterlimit:10;fill:#6a6a8a}.st17{fill:#696a89}.st17,.st18,.st19{clip-path:url(#SVGID_2_);stroke:#2e2e54;stroke-miterlimit:10}.st18{stroke-width:.3031;fill:#686988}.st19{fill:#686887}.st19,.st20,.st21{stroke-width:.3031}.st20{clip-path:url(#SVGID_2_);stroke:#2e2e54;stroke-miterlimit:10;fill:#676886}.st21{fill:#666785}.st21,.st22,.st23{clip-path:url(#SVGID_2_);stroke:#2e2e54;stroke-miterlimit:10}.st22{stroke-width:.3031;fill:#666684}.st23{fill:#656583}.st23,.st24,.st25{stroke-width:.3031}.st24{clip-path:url(#SVGID_2_);stroke:#2e2e54;stroke-miterlimit:10;fill:#646581}.st25{fill:#636480}.st25,.st26,.st27{clip-path:url(#SVGID_2_);stroke:#2e2e54;stroke-miterlimit:10}.st26{stroke-width:.3031;fill:#63637f}.st27{fill:#62627e}.st27,.st28,.st29{stroke-width:.3031}.st28{clip-path:url(#SVGID_2_);stroke:#2e2e54;stroke-miterlimit:10;fill:#61627d}.st29{fill:#61617c}.st29,.st30,.st31{clip-path:url(#SVGID_2_);stroke:#2e2e54;stroke-miterlimit:10}.st30{stroke-width:.3031;fill:#60607b}.st31{fill:#5f607a}.st31,.st32,.st33{stroke-width:.3031}.st32{clip-path:url(#SVGID_2_);stroke:#2e2e54;stroke-miterlimit:10;fill:#5f5f79}.st33{fill:#5e5e78}.st33,.st34,.st35{clip-path:url(#SVGID_2_);stroke:#2e2e54;stroke-miterlimit:10}.st34{stroke-width:.3031;fill:#5d5d77}.st35{fill:#5c5d76}.st35,.st36,.st37{stroke-width:.3031}.st36{clip-path:url(#SVGID_2_);stroke:#2e2e54;stroke-miterlimit:10;fill:#5c5c75}.st37{fill:#5b5b74}.st37,.st38,.st39{clip-path:url(#SVGID_2_);stroke:#2e2e54;stroke-miterlimit:10}.st38{stroke-width:.3031;fill:#5a5a73}.st39{fill:#5a5a72}.st39,.st40,.st41{stroke-width:.3031}.st40{stroke:#2e2e54;stroke-miterlimit:10;clip-path:url(#SVGID_2_);fill:#595971}.st41{clip-path:url(#SVGID_4_);fill:#707193}.st41,.st42,.st43{stroke:#2e2e54;stroke-miterlimit:10}.st42{clip-path:url(#SVGID_4_);stroke-width:.3031;fill:#6f7092}.st43{fill:#6f7091}.st43,.st44,.st45{clip-path:url(#SVGID_4_);stroke-width:.3031}.st44{stroke:#2e2e54;stroke-miterlimit:10;fill:#6e6f90}.st45{fill:#6d6e8f}.st45,.st46,.st47{stroke:#2e2e54;stroke-miterlimit:10}.st46{clip-path:url(#SVGID_4_);stroke-width:.3031;fill:#6d6d8e}.st47{fill:#6c6d8d}.st47,.st48,.st49{clip-path:url(#SVGID_4_);stroke-width:.3031}.st48{stroke:#2e2e54;stroke-miterlimit:10;fill:#6b6c8c}.st49{fill:#6a6b8b}.st49,.st50,.st51{stroke:#2e2e54;stroke-miterlimit:10}.st50{clip-path:url(#SVGID_4_);stroke-width:.3031;fill:#6a6a8a}.st51{fill:#696a89}.st51,.st52,.st53{clip-path:url(#SVGID_4_);stroke-width:.3031}.st52{stroke:#2e2e54;stroke-miterlimit:10;fill:#686988}.st53{fill:#686887}.st53,.st54,.st55{stroke:#2e2e54;stroke-miterlimit:10}.st54{clip-path:url(#SVGID_4_);stroke-width:.3031;fill:#676886}.st55{fill:#666785}.st55,.st56,.st57{clip-path:url(#SVGID_4_);stroke-width:.3031}.st56{stroke:#2e2e54;stroke-miterlimit:10;fill:#666684}.st57{fill:#656583}.st57,.st58,.st59{stroke:#2e2e54;stroke-miterlimit:10}.st58{clip-path:url(#SVGID_4_);stroke-width:.3031;fill:#646581}.st59{fill:#636480}.st59,.st60,.st61{clip-path:url(#SVGID_4_);stroke-width:.3031}.st60{stroke:#2e2e54;stroke-miterlimit:10;fill:#63637f}.st61{fill:#62627e}.st61,.st62,.st63{stroke:#2e2e54;stroke-miterlimit:10}.st62{clip-path:url(#SVGID_4_);stroke-width:.3031;fill:#61627d}.st63{fill:#61617c}.st63,.st64,.st65{clip-path:url(#SVGID_4_);stroke-width:.3031}.st64{stroke:#2e2e54;stroke-miterlimit:10;fill:#60607b}.st65{fill:#5f607a}.st65,.st66,.st67{stroke:#2e2e54;stroke-miterlimit:10}.st66{clip-path:url(#SVGID_4_);stroke-width:.3031;fill:#5f5f79}.st67{fill:#5e5e78}.st67,.st68,.st69{clip-path:url(#SVGID_4_);stroke-width:.3031}.st68{stroke:#2e2e54;stroke-miterlimit:10;fill:#5d5d77}.st69{fill:#5c5d76}.st69,.st70,.st71{stroke:#2e2e54;stroke-miterlimit:10}.st70{clip-path:url(#SVGID_4_);stroke-width:.3031;fill:#5c5c75}.st71{fill:#5b5b74}.st71,.st72,.st73{clip-path:url(#SVGID_4_);stroke-width:.3031}.st72{stroke:#2e2e54;stroke-miterlimit:10;fill:#5a5a73}.st73{fill:#5a5a72}.st73,.st74,.st75{stroke:#2e2e54;stroke-miterlimit:10}.st74{clip-path:url(#SVGID_4_);fill:#595971;stroke-width:.3031}.st75{fill:none;stroke-width:.1388}.st76{fill:#afbddf}.st77{fill:#2e2e54}.st78{fill:#e8eaff;stroke:#2e2e54;stroke-width:.3031;stroke-miterlimit:10}
    </style>
    <title>
        Artboard 3
    </title>
    <circle class="st0" cx="60" cy="60" r="60"/>
    <path class="st1" d="M35.6 45c.7.1 1.7.4 2.7.9 1.5.7 2 2.5 1.3 3.9l-1.8 3.4c-1 1.7-3.3 2.3-5 1.3-1.6-.9-2.2-2.9-1.6-4.6l1.1-3.1c.6-1.2 1.9-2 3.3-1.8z"/>
    <path class="st2" d="M42.3 50.3L40.9 45c-.1-.6-.7-.9-1.3-.8-.6.1-.9.7-.8 1.3l1.3 5.3c.1.6.7.9 1.3.8.7-.2 1-.8.9-1.3z"/>
    <path class="st3" d="M38.2 41.8c.6-.7.5-.5 0-1.1l11.2-5.5 15.4 10.2v-.1l-.2-2.9c.6-1 2.4-.1 3.4.5l.9.5c3.1 1.6 4.9 2.5 6.4 4.3l7.5 9 3.6 7.3 4 8.1c1.3 2.7.8 5.9-1.3 8l-7.4 7.4c-1.2 1.2-2.7 1.8-4.2 2h-.4c-2.6.2-5-1.2-6.3-3.4l-2.9-4.7c-.6-.9-1.4-1.7-2.4-2.3-.1-.1-.2-.1-.3-.2-4.4-1.9-8.5-4.5-11.8-8l-1.9-2c-.5-.5-6.6-11.2-6.9-11.8l-2.4-4.3-.5-1.2c-.4-1.9.3 1.1 0-2.8-.2.2-.9-4.5-3.5-7z"/>
    <path class="st4" d="M41.5 49c.3 3.9-.3.9 0 2.8l-1 3.5c3.3-.6 6.6-.9 9.8-1.5 3.7-.7 7.2-2.3 10.7-3.7 3.5-1.4 6.9-2.6 10-4.7.2-.2.5-.3.7-.5-.8-.5-1.8-1-2.9-1.6l-.8-.5c-1.1-.6-2.8-1.6-3.4-.5l.2 2.9v.1L49.4 35.1l-11.2 5.5c.4.6.6.4 0 1.1 2.6 2.6 3.3 7.3 3.3 7.3z"/>
    <path class="st5" d="M82.3 90.7l9.2-9c.6-.6.6-1.6 0-2.2-.6-.6-1.6-.6-2.2 0l-9.2 9c-.6.6-.6 1.6 0 2.2.6.6 1.6.6 2.2 0z"/>
    <path class="st6" d="M53.5 40.6l2.1-5.8c.3-.7-.1-1.5-.8-1.7-.7-.3-1.5.1-1.7.8L51 39.7c-.3.7.1 1.5.8 1.7.6.3 1.4-.1 1.7-.8z"/>
    <path class="st3" d="M112.8 88l-6.8-5.8c-4.6-3.9-11.4-3.8-15.9.2l-7.4 6.7c-4.2 3.8-5.1 10-2.3 14.9.4.7.9 1.5 1.3 2.2l4 7.9c.1.1.2.1.3.1 11.5-5.5 20.9-14.5 26.9-25.7 0-.2 0-.4-.1-.5z"/>
    <path class="st2" d="M42 48.5l-3.7-3.4c-.4-.4-1-.3-1.4.1-.4.4-.3 1 .1 1.4l3.7 3.4c.4.4 1 .3 1.4-.1.3-.4.3-1-.1-1.4z"/>
    <path class="st1" d="M38.3 55.3c.6-.4 1.5-.9 2.5-1.3 1.5-.5 3.2.3 3.7 1.9l1.1 3.7c.5 1.9-.7 3.9-2.6 4.5-1.8.5-3.6-.5-4.3-2.1l-1.4-3c-.6-1.4-.2-2.9 1-3.7-.1 0-.1 0 0 0z"/>
    <path class="st3" d="M66.1 40.9l-6.9-5.7c-.2-.1-1.5-1.2-2.6-2-.5-.4-1.3-.1-1.3.6 0 .3 0 .7-.1 1.1-.4 2.5-1.7 4.6-3 6.3-.6.8-.5 1.9.2 2.5.6.5 1.1.9 1.1.9l8.1 6.8c2.8-1.4 4.6-3.1 5.8-4.6 1.2-1.5 1-3.8-.4-5.1l-.9-.8z"/>
    <clipPath id="SVGID_2_">
        <use xlink:href="#SVGID_1_" overflow="visible"/>
    </clipPath>
    <path class="st7" d="M84.5 72.2l.5.5-.5-.5-1.6 1.5.5.5z"/>
    <path class="st7" d="M84.5 72.2l.5.5-.5-.5-1.6 1.5.5.5z"/>
    <path class="st8" d="M84.5 72.2l.5.5-.5-.5-1.6 1.5.5.5z"/>
    <path class="st9" d="M84.5 72.2l.5.5-.5-.5-1.6 1.5.5.5z"/>
    <path class="st10" d="M84.5 72.2l.5.5-.5-.5-1.6 1.5.5.5z"/>
    <path class="st11" d="M84.5 72.2l.5.5-.5-.5-1.6 1.5.5.5z"/>
    <path class="st12" d="M84.5 72.2l.5.5-.5-.5-1.6 1.5.5.5z"/>
    <path class="st13" d="M84.5 72.2l.5.5-.5-.5-1.6 1.5.5.5z"/>
    <path class="st14" d="M84.5 72.2l.5.5-.5-.5-1.6 1.5.5.5z"/>
    <path class="st15" d="M84.5 72.2l.5.5-.5-.5-1.6 1.5.5.5z"/>
    <path class="st16" d="M84.5 72.2l.5.5-.5-.5-1.6 1.5.5.5z"/>
    <path class="st17" d="M84.5 72.2l.5.5-.5-.5-1.6 1.5.5.5z"/>
    <path class="st18" d="M84.5 72.2l.5.5-.5-.5-1.6 1.5.5.5z"/>
    <path class="st19" d="M84.5 72.2l.5.5-.5-.5-1.6 1.5.5.5z"/>
    <path class="st20" d="M84.5 72.2l.5.5-.5-.5-1.6 1.5.5.5z"/>
    <path class="st21" d="M84.5 72.2l.5.5-.5-.5-1.6 1.5.5.5z"/>
    <path class="st22" d="M84.5 72.2l.5.5-.5-.5-1.6 1.5.5.5z"/>
    <path class="st23" d="M84.5 72.2l.5.5-.5-.5-1.6 1.5.5.5z"/>
    <path class="st24" d="M84.5 72.2l.5.5-.5-.5-1.6 1.5.5.5z"/>
    <path class="st25" d="M84.5 72.2l.5.5-.5-.5-1.6 1.5.5.5z"/>
    <path class="st26" d="M84.5 72.2l.5.5-.5-.5-1.6 1.5.5.5z"/>
    <path class="st27" d="M84.5 72.2l.5.5-.5-.5-1.6 1.5.5.5z"/>
    <path class="st28" d="M84.5 72.2l.5.5-.5-.5-1.6 1.5.5.5z"/>
    <path class="st29" d="M84.5 72.2l.5.5-.5-.5-1.6 1.5.5.5z"/>
    <path class="st30" d="M84.5 72.2l.5.5-.5-.5-1.6 1.5.5.5z"/>
    <path class="st31" d="M84.5 72.2l.5.5-.5-.5-1.6 1.5.5.5z"/>
    <path class="st32" d="M84.5 72.2l.5.5-.5-.5-1.6 1.5.5.5z"/>
    <path class="st33" d="M84.5 72.2l.5.5-.5-.5-1.6 1.5.5.5z"/>
    <path class="st34" d="M84.5 72.2l.5.5-.5-.5-1.6 1.5.5.5z"/>
    <path class="st35" d="M84.5 72.2l.5.5-.5-.5-1.6 1.5.5.5z"/>
    <path class="st36" d="M84.5 72.2l.5.5-.5-.5-1.6 1.5.5.5z"/>
    <path class="st37" d="M84.5 72.2l.5.5-.5-.5-1.6 1.5.5.5z"/>
    <path class="st38" d="M84.5 72.2l.5.5-.5-.5-1.6 1.5.5.5z"/>
    <path class="st39" d="M84.5 72.2l.5.5-.5-.5-1.6 1.5.5.5z"/>
    <path class="st40" d="M84.5 72.2l.5.5-.5-.5-1.6 1.5.5.5z"/>
    <path class="st40" d="M84.5 72.2l.5.5-.5-.5-1.6 1.5.5.5z"/>
    <use xlink:href="#SVGID_1_" overflow="visible" fill="none" stroke="#2e2e54" stroke-width=".303" stroke-miterlimit="10"/>
    <g>
        <clipPath id="SVGID_4_">
            <use xlink:href="#SVGID_3_" overflow="visible"/>
        </clipPath>
        <path class="st41" d="M51.5 59.2l-1.1 1.1 1.1 1.2 1.2-1.1z"/>
        <path class="st41" d="M51.5 59.2l-1.1 1.1 1.1 1.2 1.2-1.1z"/>
        <path class="st42" d="M51.5 59.2l-1.1 1.1 1.1 1.2 1.2-1.1z"/>
        <path class="st43" d="M51.5 59.2l-1.1 1.1 1.1 1.2 1.2-1.1z"/>
        <path class="st44" d="M51.5 59.2l-1.1 1.1 1.1 1.2 1.2-1.1z"/>
        <path class="st45" d="M51.5 59.2l-1.1 1.1 1.1 1.2 1.2-1.1z"/>
        <path class="st46" d="M51.5 59.2l-1.1 1.1 1.1 1.2 1.2-1.1z"/>
        <path class="st47" d="M51.5 59.2l-1.1 1.1 1.1 1.2 1.2-1.1z"/>
        <path class="st48" d="M51.5 59.2l-1.1 1.1 1.1 1.2 1.2-1.1z"/>
        <path class="st49" d="M51.5 59.2l-1.1 1.1 1.1 1.2 1.2-1.1z"/>
        <path class="st50" d="M51.5 59.2l-1.1 1.1 1.1 1.2 1.2-1.1z"/>
        <path class="st51" d="M51.5 59.2l-1.1 1.1 1.1 1.2 1.2-1.1z"/>
        <path class="st52" d="M51.5 59.2l-1.1 1.1 1.1 1.2 1.2-1.1z"/>
        <path class="st53" d="M51.5 59.2l-1.1 1.1 1.1 1.2 1.2-1.1z"/>
        <path class="st54" d="M51.5 59.2l-1.1 1.1 1.1 1.2 1.2-1.1z"/>
        <path class="st55" d="M51.5 59.2l-1.1 1.1 1.1 1.2 1.2-1.1z"/>
        <path class="st56" d="M51.5 59.2l-1.1 1.1 1.1 1.2 1.2-1.1z"/>
        <path class="st57" d="M51.5 59.2l-1.1 1.1 1.1 1.2 1.2-1.1z"/>
        <path class="st58" d="M51.5 59.2l-1.1 1.1 1.1 1.2 1.2-1.1z"/>
        <path class="st59" d="M51.5 59.2l-1.1 1.1 1.1 1.2 1.2-1.1z"/>
        <path class="st60" d="M51.5 59.2l-1.1 1.1 1.1 1.2 1.2-1.1z"/>
        <path class="st61" d="M51.5 59.2l-1.1 1.1 1.1 1.2 1.2-1.1z"/>
        <path class="st62" d="M51.5 59.2l-1.1 1.1 1.1 1.2 1.2-1.1z"/>
        <path class="st63" d="M51.5 59.2l-1.1 1.1 1.1 1.2 1.2-1.1z"/>
        <path class="st64" d="M51.5 59.2l-1.1 1.1 1.1 1.2 1.2-1.1z"/>
        <path class="st65" d="M51.5 59.2l-1.1 1.1 1.1 1.2 1.2-1.1z"/>
        <path class="st66" d="M51.5 59.2l-1.1 1.1 1.1 1.2 1.2-1.1z"/>
        <path class="st67" d="M51.5 59.2l-1.1 1.1 1.1 1.2 1.2-1.1z"/>
        <path class="st68" d="M51.5 59.2l-1.1 1.1 1.1 1.2 1.2-1.1z"/>
        <path class="st69" d="M51.5 59.2l-1.1 1.1 1.1 1.2 1.2-1.1z"/>
        <path class="st70" d="M51.5 59.2l-1.1 1.1 1.1 1.2 1.2-1.1z"/>
        <path class="st71" d="M51.5 59.2l-1.1 1.1 1.1 1.2 1.2-1.1z"/>
        <path class="st72" d="M51.5 59.2l-1.1 1.1 1.1 1.2 1.2-1.1z"/>
        <path class="st73" d="M51.5 59.2l-1.1 1.1 1.1 1.2 1.2-1.1z"/>
        <path class="st74" d="M51.5 59.2l-1.1 1.1 1.1 1.2 1.2-1.1z"/>
        <path class="st74" d="M51.5 59.2l-1.1 1.1 1.1 1.2 1.2-1.1z"/>
        <use xlink:href="#SVGID_3_" overflow="visible" fill="none" stroke="#2e2e54" stroke-width=".303" stroke-miterlimit="10"/>
    </g>
    <path class="st6" d="M53.5 55l-1.3-4.9c-.2-.8-1.1-1.4-1.9-1.1-.8.2-1.4 1.1-1.1 1.9l1.3 4.9c.2.8 1.1 1.4 1.9 1.1.8-.2 1.3-1.1 1.1-1.9zM66.1 52.4l-.9-5c-.2-.8-1-1.4-1.8-1.2-.8.2-1.4 1-1.2 1.8l.9 5c.2.8 1 1.4 1.8 1.2.8-.2 1.4-1 1.2-1.8z"/>
    <g>
        <path class="st76" d="M66.1 43.9c3.4-.3 6.7 1 9 3.6l8.5 9.8c1.5 3 .2 6.6-2.9 8-2.3 1-4.9.3-6.6-1.5L68.6 58l-.3-.3c-1.5-1.6-2.5-3.5-2.9-5.7l-.4-2.2-.7-3.6c-.2-1.1.6-2.2 1.8-2.3z"/>
    </g>
    <g>
        <path class="st77" d="M78.2 66.8c-1.8 0-3.4-.7-4.7-1.9-1.3-1.3-2-2.9-2-4.7 0-1.8.7-3.5 1.9-4.8 1.3-1.3 2.9-2 4.7-2 1.8 0 3.5.7 4.8 1.9 1.3 1.3 2 2.9 2 4.7 0 1.8-.7 3.5-1.9 4.8-1.3 1.2-3 1.9-4.8 2zm0-12.3s-.1 0 0 0c-1.5 0-2.9.6-4 1.7-1 1.1-1.6 2.5-1.6 3.9 0 1.5.6 2.9 1.7 3.9s2.5 1.6 3.9 1.6c1.5 0 2.9-.6 3.9-1.7s1.6-2.5 1.6-3.9c0-1.5-.6-2.9-1.7-3.9-1-1-2.4-1.6-3.8-1.6z"/>
    </g>
    <path class="st3" d="M40.9 33.7c-.5-1.3.1-3.8 2.9-3.8 1.9 0 3.4.2 3.5.2l5 1.3c.4.1.7.5.8.9.2 1.4 0 4.3-2.6 7.9-.8 1.1-2.4 1.4-3.6.7l-3.6-2.2c-.7-.4-1.1-1.2-1-2.1.3-2-.8-1.6-1.4-2.9z"/>
    <g>
        <path class="st5" d="M46 35.2l-3.6-2.9c-.6-.5-1.4-.4-1.9.2-.5.6-.4 1.4.2 1.9l3.6 2.9c.6.5 1.4.4 1.9-.2.4-.6.4-1.4-.2-1.9z"/>
        <path class="st3" d="M34.9 47.4c-2.3-.9-3.3-3.6-2.2-5.8l2.8-5.6c.1-.1.3-.6.7-1.2.8-1.4 2.4-2 3.9-1.4 1.2.4 2.6 1.2 3.8 2.4 1.3 1.3 1.3 3.4.2 4.8l-4.4 5.5c-1.2 1.4-3.1 1.9-4.8 1.3z"/>
        <path class="st6" d="M34.7 70.5l1.3-8.3c.3-1.7.9-3.3 1.9-4.8.3-.5.6-.9 1-1.3.3-.4.9-.5 1.3-.2.5.3 1.2.3 1.6-.2.4-.5.3-1.3-.3-1.7l-.2-.1c.1-.1.3-.2.4-.3 1-.6 1.9-1.5 2.4-2.7.6-1.3.9-3.5.4-5-.1-.2 0-.5.2-.6.3-.2.6-.4.7-.8.2-.6.1-1.3-.4-1.8-.8-.7-1.9-.6-2.5.3-.1.2-.1.5-.2.7 0 .3-.3.4-.5.4-1.8 0-3.8 1.2-5.1 3.1-.5.8-.8 1.7-.9 2.5 0 .2-.1.3-.1.5l-.1-.1c-.5-.3-1.2-.3-1.6.2-.4.5-.3 1.3.3 1.7h.1c.4.3.6.8.3 1.3-.2.5-.5 1-.8 1.4-1 1.5-2.3 2.7-3.7 3.6l-7.1 4.4C21 64 20.4 67 22 68.4c2.3 2.1 4.9 3.9 7.8 5.2 2 1 4.5-.7 4.9-3.1"/>
    </g>
    <path class="st76" d="M59 56.3c2.9-.7 4.6-3.6 3.9-6.5-.7-2.9-3.6-4.6-6.5-3.9-2.9.7-4.6 3.6-3.9 6.5.7 2.9 3.6 4.6 6.5 3.9zM40.6 55.3c-.6-2.5.9-5.1 3.4-5.8l2.3-.6.2-.1c1.3-.3 2.7.4 3.3 1.6.6 1.3 1.3 3.2 1.3 5.2 0 1.4-1 2.6-2.4 2.8l-2.5.4c-2.6.5-5-1-5.6-3.5z"/>
</svg>
