<svg id="Layer_1" data-name="Layer 1" xmlns="http://www.w3.org/2000/svg" xmlns:xlink="http://www.w3.org/1999/xlink" viewBox="0 0 710 415.9"><defs><style>.cls-1{fill:none;}.cls-2{fill:#4e479e;}.cls-3{fill:#fff;}.cls-4{fill:#ea9381;}.cls-10,.cls-13,.cls-14,.cls-4,.cls-7{fill-rule:evenodd;}.cls-5,.cls-7{fill:#29264c;}.cls-6{opacity:0.25;}.cls-13,.cls-8{fill:#c1555e;}.cls-14,.cls-9{fill:#bb1959;}.cls-10,.cls-16{fill:#ffb2b2;}.cls-11{fill:#d5d8ff;}.cls-12{fill:#646fd8;}.cls-15{fill:#c67171;}.cls-17{fill:#bbbbdf;}.cls-18{fill:#544893;}.cls-19{fill:#b3abdc;}.cls-20{opacity:0.55;}.cls-21{isolation:isolate;}.cls-22{fill:#4844a3;}.cls-23{clip-path:url(#clip-path);}.cls-24{fill:#dee1ff;}.cls-25{fill:#dde0ff;}.cls-26{fill:#dcdfff;}.cls-27{fill:#dbdfff;}.cls-28{fill:#dadeff;}.cls-29{fill:#d9ddff;}.cls-30{fill:#d7dcff;}.cls-31{fill:#d6dbff;}.cls-32{fill:#d5daff;}.cls-33{fill:#d4daff;}.cls-34{fill:#d3d9ff;}.cls-35{fill:#d2d8ff;}.cls-36{fill:#342d71;}</style><clipPath id="clip-path"><path class="cls-1" d="M128.27,225.07c0-28.48-23.33-51.56-52.1-51.56a52.14,52.14,0,0,0-47.39,30.11,51.21,51.21,0,0,0-.61,41.53,52.41,52.41,0,0,0,75.1,24,51.42,51.42,0,0,0,25-44Z"/></clipPath></defs><title>Artboard 1</title><path class="cls-2" d="M431,304.59c-10.6-25.1-23.84-38.91-45.13-38.91H332.06c-18.92,0-35.71,12.66-42.89,31.55-3,7.84-6,15.66-9.49,23.29l-5.54,12.16a23.26,23.26,0,0,0-.48,18.71,20.66,20.66,0,0,0,12.85,12c8.06,2.39,16.16,4.66,24.08,7.48l46.71,16.65,46.24-15.09,30.6-9a20.13,20.13,0,0,0,11.34-9,22.61,22.61,0,0,0,.26-22.44L431,304.59Z"/><ellipse class="cls-3" cx="358.06" cy="267.99" rx="27.05" ry="18.93"/><path class="cls-4" d="M396.84,239a13.7,13.7,0,0,0-1.57-4.09,4.87,4.87,0,0,1-.57-2.76c.19-1.49.39-3,.6-4.47a33.74,33.74,0,0,0-.26-9.6,40.71,40.71,0,0,0-2.94-10.4,39.8,39.8,0,0,0-6.85-10.92,36.35,36.35,0,0,0-12.41-9.12,35.92,35.92,0,0,0-12.63-2.94,43.73,43.73,0,0,0-6.66.31,48.36,48.36,0,0,0-6.28,1.16,30.41,30.41,0,0,0-11.84,6.22,49.6,49.6,0,0,0-6,6.08,36.86,36.86,0,0,0-5.78,9.92,43.52,43.52,0,0,0-3,17.67,49.69,49.69,0,0,0,.72,6.27,2.94,2.94,0,0,1-.86,2.92c-1,1-1,2.47-1.26,3.8a12.42,12.42,0,0,0,.3,6.5,53.49,53.49,0,0,0,2.29,5.88,6.69,6.69,0,0,0,3.82,3.86,1.47,1.47,0,0,1,1,1.16,47.28,47.28,0,0,0,5.54,12.38,28.07,28.07,0,0,0,2.19,3.8l.2.37s4.76,10.66,22.94,10.66S383,270.08,383,270.08a47.34,47.34,0,0,0,6.5-13.8,1.19,1.19,0,0,1,.57-.74c2.75-1,4.08-3.14,4.9-5.74a16.1,16.1,0,0,1,.69-1.82C396.91,245.12,397.64,242.18,396.84,239Z"/><path class="cls-5" d="M355.91,258a.69.69,0,0,0-.78,0,1,1,0,0,0-.38.71,1.75,1.75,0,0,0,.15.81,2,2,0,0,0,.84,1,1.2,1.2,0,0,0,1.27-.05.87.87,0,0,0,.19-1.19Z"/><path class="cls-5" d="M361.48,258.36a1.5,1.5,0,0,0,1.21,2.26,1,1,0,0,0,1-.6c.15-.49-.24-1-.59-1.32a1.53,1.53,0,0,0-1.19-.63Z"/><g class="cls-6"><path class="cls-5" d="M363.64,260a1.29,1.29,0,0,0-1.54-.78c-1.19.29-3.15,1.21-4.33.57s-1.52-1.45-3-1.25a3.28,3.28,0,0,0-2.62,2.09c-.85,2.7,2.74,3.16,4.55,3a21.28,21.28,0,0,0,6.13-1.81,1.31,1.31,0,0,0,.48-.24A1.12,1.12,0,0,0,363.64,260Z"/></g><path class="cls-7" d="M342,243.54a10.91,10.91,0,0,1,9.73-.41c1.48.66,2.08-1.82.59-2.49-4-1.8-6.69-1.64-10.58.46-1.44.78-1.18,3.21.26,2.43"/><path class="cls-7" d="M376.09,244a10.91,10.91,0,0,0-9.65-1.31c-1.54.52-1.9-2-.35-2.53,4.18-1.42,6.81-1,10.49,1.45,1.36.91.87,3.31-.49,2.4"/><circle class="cls-5" cx="370.4" cy="248.54" r="2.11"/><circle class="cls-5" cx="346.95" cy="248.54" r="2.11"/><path class="cls-7" d="M355.26,270.83c3.79.06,4.48.48,8.4-.64a1.19,1.19,0,0,0-.67-2.28c-3.89,1-3.6.8-7.6.37-1.63-.17-1.75,2.37-.13,2.54"/><path class="cls-7" d="M321,238.57l3.87,3.92a.9.9,0,0,0,1.28,0h0a22.69,22.69,0,0,0,6.26-13.16c1.27-8.6,11.6-7,15.08-13.62q3.24-6.18,9.51,2a.45.45,0,0,0,.81-.26,11.41,11.41,0,0,1,1.95-5.71c2.46-4,6.81-4.17,10.41-1.8s2,13.62,11.33,15.24c4.8.83,4.66,10.87,10.18,13.2q1.22.51,3.32-1.84a.45.45,0,0,0,.1-.21q8-37.9-10.83-46.76a47.21,47.21,0,0,0-23.41-7.78,40.1,40.1,0,0,0-28,9.32c-12.06,10.23-15.83,29-14.23,37.28q1.51,7.79,2.1,9.77A.9.9,0,0,0,321,238.57Z"/><path class="cls-7" d="M320.38,236.52a11.12,11.12,0,0,0,8,6.14,10.29,10.29,0,0,0,9.16-3.6c2.2-2.55,3.5-6.24,6.31-7.85a5.68,5.68,0,0,1,6.2.39c1.6,1.19,2.68,3.19,4.39,4.15,2.16,1.21,4.87.42,6.77-1.27a19.7,19.7,0,0,0,4.27-6.57A30.11,30.11,0,0,1,369.4,221a23.39,23.39,0,0,1,8.08,8.63c1.29,2.34,2.27,5,4.08,6.82a7.47,7.47,0,0,0,10.77-.14,13.54,13.54,0,0,0,2.54-4.6c3.1-8.63,1.7-19.13-3.51-26.33a34.86,34.86,0,0,0-8.89-8.22,44.27,44.27,0,0,0-19-7.69,29.11,29.11,0,0,0-19.61,4.2c-4.71,3.06-8.53.39-12.88,4.07-2.51,2.13-6.11,9.1-8.35,13-4.28,7.36-7.21,16.28-3.09,24.05Z"/><path class="cls-5" d="M318.89,237.4c2.57,4.47,7,7.69,12.4,7,5.93-.79,7.82-5.17,11.14-9.32,2.78-3.46,5.51-2.16,8.6-.06,1.13.77,1.5,1.7,2.79,2.34a7,7,0,0,0,5.73.17c6.39-2.44,7.63-10.71,11.34-15.63l-2.37.62a23.64,23.64,0,0,1,7.83,8.73c1.44,2.68,2.62,5.65,5.2,7.47A9.25,9.25,0,0,0,393,238c8.37-7.68,5.91-24.48.23-32.87-6.93-10.22-20.89-17.37-33.14-17.63a31.57,31.57,0,0,0-9.67,1.29c-3.91,1.17-7.29,3.94-11.24,4.72-5.29,1-8.83,1.55-12.11,6.28-4,5.69-7.94,12.41-10,19s-1.09,12.31,1.77,18.56c.93,2,3.91.27,3-1.75-3.34-7.29-2.86-13.88.65-21.06,2.22-4.52,4.79-9.65,7.93-13.6,2.78-3.5,5.41-3.31,9.43-4.06,3-.56,5.19-2.17,7.9-3.46,7.13-3.38,15.35-3.09,22.67-.55,13.46,4.68,25,15.36,24.27,30.5a23.23,23.23,0,0,1-2.42,9.87c-3.47,6.3-9.23,3.09-11.87-1.66-2.74-4.94-5.38-8.94-10.17-12.13a1.77,1.77,0,0,0-2.37.62A39.36,39.36,0,0,0,364,227c-.46,1-.89,2-1.44,2.87-1.81,3-2.64,4.16-6.28,3.3s-2.6-1-5-2.83a8.22,8.22,0,0,0-1.51-.94,7.45,7.45,0,0,0-3.88-.63c-3.5.37-5.47,3-7.31,5.72-2.17,3.18-4.43,6.46-8.76,6.49-3.56,0-6.31-2.47-8-5.38C320.76,233.72,317.77,235.46,318.89,237.4Z"/><rect class="cls-8" x="596.76" y="242.64" width="72.11" height="30.34" rx="13.37" ry="13.37"/><path class="cls-9" d="M685.59,369.94H581.44a24,24,0,0,1-22.67-31.68l14.31-41.94a40,40,0,0,1,37.86-27.09h41.35A40,40,0,0,1,689,293.4l18.57,43.11A24,24,0,0,1,685.59,369.94Z"/><ellipse class="cls-3" cx="632.39" cy="271.17" rx="25.03" ry="17.52"/><path class="cls-10" d="M668.28,244.39a12.67,12.67,0,0,0-1.45-3.78,4.51,4.51,0,0,1-.53-2.56c.18-1.38.36-2.76.55-4.14a31.22,31.22,0,0,0-.24-8.88,37.67,37.67,0,0,0-2.72-9.62,36.83,36.83,0,0,0-6.34-10.1,33.64,33.64,0,0,0-11.48-8.43,33.23,33.23,0,0,0-11.69-2.72,40.46,40.46,0,0,0-6.16.29,44.74,44.74,0,0,0-5.81,1.07,28.13,28.13,0,0,0-11,5.76,45.89,45.89,0,0,0-5.58,5.63,34.11,34.11,0,0,0-5.34,9.18,40.27,40.27,0,0,0-2.82,16.35,46,46,0,0,0,.66,5.81,2.72,2.72,0,0,1-.8,2.7c-1,.92-.89,2.28-1.16,3.51a11.49,11.49,0,0,0,.28,6,49.49,49.49,0,0,0,2.12,5.44,6.19,6.19,0,0,0,3.53,3.58,1.36,1.36,0,0,1,1,1.08A43.75,43.75,0,0,0,608.43,272a26,26,0,0,0,2,3.52l.18.34s4.41,9.86,21.22,9.86,23.57-12.61,23.57-12.61a43.8,43.8,0,0,0,6-12.76,1.1,1.1,0,0,1,.53-.69c2.54-.92,3.78-2.9,4.53-5.31a14.89,14.89,0,0,1,.64-1.68A12.3,12.3,0,0,0,668.28,244.39Z"/><path class="cls-11" d="M146.61,304.08c-5.06-22.89-22.93-38.92-43.4-38.92H51.49c-20.48,0-38.35,16-43.4,38.92L1,336c-3.09,14,6.07,27.58,18.58,27.58H135.08c12.51,0,21.67-13.6,18.57-27.58l-7.05-31.93Z"/><path class="cls-12" d="M103.21,265.16H51.49a40.63,40.63,0,0,0-17.94,4.2,56.12,56.12,0,0,0,21.07,11.28,74.91,74.91,0,0,0,24.09,3,57.07,57.07,0,0,0,7.76-1.74l.1,0a39.13,39.13,0,0,0,16.63-10.3q1.8-1.86,3.48-3.85l1.82-2.19A40.21,40.21,0,0,0,103.21,265.16Z"/><path class="cls-5" d="M630.41,262a.63.63,0,0,0-.72,0,.91.91,0,0,0-.35.66,1.62,1.62,0,0,0,.14.75,1.82,1.82,0,0,0,.78.93,1.11,1.11,0,0,0,1.17-.05.81.81,0,0,0,.17-1.1Z"/><path class="cls-5" d="M635.56,262.26a1.38,1.38,0,0,0,1.12,2.09.92.92,0,0,0,.95-.56c.14-.45-.22-.89-.55-1.22A1.41,1.41,0,0,0,636,262Z"/><g class="cls-6"><path class="cls-5" d="M637.56,263.82a1.2,1.2,0,0,0-1.42-.72c-1.1.27-2.92,1.12-4,.53s-1.41-1.34-2.73-1.16a3,3,0,0,0-2.42,1.93c-.79,2.5,2.54,2.92,4.21,2.75a19.69,19.69,0,0,0,5.67-1.68,1.21,1.21,0,0,0,.44-.22A1,1,0,0,0,637.56,263.82Z"/></g><path class="cls-13" d="M615.64,249.66a10.09,10.09,0,0,1,8.63-2.59c1.48.25,1.45-2.11,0-2.37-4-.69-6.37.06-9.38,2.83-1.12,1-.32,3.15.79,2.12"/><path class="cls-13" d="M649.07,249a10.09,10.09,0,0,0-8.92-1.28c-1.43.47-1.75-1.87-.31-2.35,3.88-1.28,6.31-.89,9.7,1.41,1.26.85.78,3.07-.47,2.22"/><circle class="cls-5" cx="643.81" cy="253.17" r="1.95"/><circle class="cls-5" cx="622.11" cy="253.17" r="1.95"/><path class="cls-14" d="M627.82,275.39a31.82,31.82,0,0,0,11.5-1.17c1.45-.42.89-2.71-.57-2.28A29.9,29.9,0,0,1,627.87,273c-1.51-.12-1.56,2.23-.06,2.35"/><path class="cls-15" d="M387.59,353.13a30.3,30.3,0,1,1-30.3-30.33,30.32,30.32,0,0,1,30.3,30.33"/><path class="cls-16" d="M636.78,353.13a30.3,30.3,0,1,1-30.3-30.33,30.32,30.32,0,0,1,30.3,30.33"/><path class="cls-17" d="M409.17,311.09H308a10.69,10.69,0,0,0-10.68,10.69V379.4A10.69,10.69,0,0,0,308,390.1H409.17a10.69,10.69,0,0,0,10.68-10.69V321.78a10.68,10.68,0,0,0-10.68-10.69m277.08,0H585.06a10.69,10.69,0,0,0-10.68,10.69V379.4a10.69,10.69,0,0,0,10.68,10.69H686.25a10.69,10.69,0,0,0,10.68-10.69V321.78a10.68,10.68,0,0,0-10.68-10.69"/><path class="cls-3" d="M367,348.56a8.78,8.78,0,1,1-8.78-8.79,8.78,8.78,0,0,1,8.78,8.79m-17.8,5.76a3,3,0,1,1-6.06,0h0a3,3,0,1,1,6.06,0h0"/><path class="cls-3" d="M646.82,348.56a8.78,8.78,0,1,1-8.78-8.79,8.79,8.79,0,0,1,8.78,8.79M629,354.31a3,3,0,1,1-6.06,0h0a3,3,0,1,1,6.06,0h0"/><path class="cls-17" d="M126.69,311.09H25.5a10.68,10.68,0,0,0-10.68,10.69V379.4A10.69,10.69,0,0,0,25.5,390.1H126.69a10.69,10.69,0,0,0,10.68-10.69V321.78a10.68,10.68,0,0,0-10.68-10.69"/><path class="cls-3" d="M88.16,348.56a8.78,8.78,0,1,1-8.78-8.79,8.78,8.78,0,0,1,8.78,8.79m-17.8,5.76a3,3,0,1,1-6.06,0h0a3,3,0,1,1,6.06,0h0"/><path class="cls-18" d="M205.54,415.95h23.59V177.81H205.54Z"/><path class="cls-19" d="M205.54,178.71h23.59V99.46H205.54Z"/><path class="cls-18" d="M486.22,416h23.59V174.91H486.22Z"/><path class="cls-19" d="M486.22,178.71h23.59V99.46H486.22Z"/><g class="cls-20"><path class="cls-2" d="M84.87,154.35a3.49,3.49,0,0,1,3.5-3.49h0a3.5,3.5,0,0,1,3.5,3.49h0a3.5,3.5,0,0,1-3.5,3.5h0A3.49,3.49,0,0,1,84.87,154.35Zm540.06-.14a3.5,3.5,0,0,1,3.5-3.5h0a3.5,3.5,0,0,1,3.5,3.5h0a3.5,3.5,0,0,1-3.5,3.5h0A3.5,3.5,0,0,1,624.93,154.21ZM88.83,128.87A3.5,3.5,0,0,1,85.74,125h0a3.5,3.5,0,0,1,3.86-3.09h0a3.5,3.5,0,0,1,3.09,3.87h0a3.49,3.49,0,0,1-3.47,3.11h0A2.55,2.55,0,0,1,88.83,128.87Zm535.28-3.24h0a3.5,3.5,0,0,1,3.09-3.86h0a3.5,3.5,0,0,1,3.87,3.09h0a3.5,3.5,0,0,1-3.1,3.86h0l-.38,0h0A3.5,3.5,0,0,1,624.11,125.63ZM351.65,107.3a3.49,3.49,0,0,1,2.51-4.26h0a3.49,3.49,0,0,1,2.83.49h0a3.37,3.37,0,0,1,.13-1h0a3.49,3.49,0,0,1,4.31-2.42h0a3.49,3.49,0,0,1,2.43,4.31h0a3.5,3.5,0,0,1-4.31,2.43h0a3.73,3.73,0,0,1-1-.47h0a3.52,3.52,0,0,1-2.63,3.48h0a3.77,3.77,0,0,1-.88.11h0A3.49,3.49,0,0,1,351.65,107.3ZM94.34,100.45A3.5,3.5,0,0,1,92.14,96h0a3.49,3.49,0,0,1,4.43-2.2h0a3.49,3.49,0,0,1,2.2,4.43h0a3.51,3.51,0,0,1-3.32,2.39h0A3.59,3.59,0,0,1,94.34,100.45Zm523.73-2.36a3.5,3.5,0,0,1,2.21-4.43h0a3.49,3.49,0,0,1,4.43,2.21h0a3.51,3.51,0,0,1-2.21,4.43h0a3.58,3.58,0,0,1-1.11.18h0A3.51,3.51,0,0,1,618.07,98.09ZM341.74,80.91a3.5,3.5,0,0,1,1.55-4.7h0a3.5,3.5,0,0,1,4.7,1.55h0a3.49,3.49,0,0,1-1.55,4.7h0a3.43,3.43,0,0,1-1.57.38h0A3.5,3.5,0,0,1,341.74,80.91Zm27.82-1.27a3.49,3.49,0,0,1-1.47-4.73h0a3.5,3.5,0,0,1,4.73-1.46h0a3.5,3.5,0,0,1,1.46,4.73h0a3.5,3.5,0,0,1-3.1,1.87h0A3.36,3.36,0,0,1,369.56,79.64ZM105.74,73.83a3.51,3.51,0,0,1-1.22-4.8h0a3.5,3.5,0,0,1,4.8-1.21h0a3.5,3.5,0,0,1,1.22,4.8h0a3.53,3.53,0,0,1-3,1.71h0A3.44,3.44,0,0,1,105.74,73.83Zm500.62-1.4a3.51,3.51,0,0,1,1.24-4.8h0a3.5,3.5,0,0,1,4.79,1.23h0a3.51,3.51,0,0,1-1.23,4.8h0a3.49,3.49,0,0,1-1.78.49h0A3.52,3.52,0,0,1,606.36,72.43ZM326.48,57.21a3.5,3.5,0,0,1,.53-4.93h0a3.51,3.51,0,0,1,4.92.53h0a3.5,3.5,0,0,1-.53,4.92h0a3.45,3.45,0,0,1-2.2.78h0A3.5,3.5,0,0,1,326.48,57.21Zm58.57-2a3.49,3.49,0,0,1-.45-4.93h0a3.5,3.5,0,0,1,4.93-.45h0a3.5,3.5,0,0,1,.45,4.93h0A3.49,3.49,0,0,1,387.29,56h0A3.51,3.51,0,0,1,385,55.2Zm-262.54-5a3.5,3.5,0,0,1-.18-5h0a3.5,3.5,0,0,1,4.94-.18h0a3.5,3.5,0,0,1,.18,4.95h0a3.48,3.48,0,0,1-2.56,1.11h0A3.5,3.5,0,0,1,122.51,50.23Zm467-.43a3.51,3.51,0,0,1,.2-4.95h0a3.51,3.51,0,0,1,5,.2h0a3.49,3.49,0,0,1-.2,4.94h0a3.47,3.47,0,0,1-2.38.93h0A3.51,3.51,0,0,1,589.53,49.8Zm-283-12.56h0a3.51,3.51,0,0,1-.52-4.92h0A3.51,3.51,0,0,1,311,31.8h0a3.51,3.51,0,0,1,.52,4.92h0a3.5,3.5,0,0,1-2.73,1.3h0A3.46,3.46,0,0,1,306.56,37.24Zm98.76-2.71a3.51,3.51,0,0,1,.59-4.92h0a3.51,3.51,0,0,1,4.92.6h0a3.5,3.5,0,0,1-.6,4.91h0a3.44,3.44,0,0,1-2.16.75h0A3.49,3.49,0,0,1,405.32,34.53ZM143.86,30.68a3.49,3.49,0,0,1,.87-4.87h0a3.5,3.5,0,0,1,4.87.87h0a3.49,3.49,0,0,1-.87,4.87h0a3.43,3.43,0,0,1-2,.63h0A3.49,3.49,0,0,1,143.86,30.68Zm424.48.51h0a3.5,3.5,0,0,1-.84-4.88h0a3.5,3.5,0,0,1,4.88-.84h0a3.51,3.51,0,0,1,.84,4.88h0a3.51,3.51,0,0,1-2.87,1.48h0A3.5,3.5,0,0,1,568.34,31.19ZM282.88,21.94a3.51,3.51,0,0,1-1.55-4.7h0a3.5,3.5,0,0,1,4.7-1.56h0a3.51,3.51,0,0,1,1.55,4.71h0a3.49,3.49,0,0,1-3.12,1.92h0A3.58,3.58,0,0,1,282.88,21.94Zm146.59-3.37a3.5,3.5,0,0,1,1.63-4.68h0a3.5,3.5,0,0,1,4.68,1.62h0a3.51,3.51,0,0,1-1.62,4.68h0a3.44,3.44,0,0,1-1.52.35h0A3.53,3.53,0,0,1,429.47,18.57ZM168.86,16.11a3.5,3.5,0,0,1,1.89-4.58h0a3.49,3.49,0,0,1,4.57,1.89h0A3.49,3.49,0,0,1,173.43,18h0a3.52,3.52,0,0,1-1.34.27h0A3.5,3.5,0,0,1,168.86,16.11Zm374.86,1.35a3.49,3.49,0,0,1-1.85-4.59h0A3.5,3.5,0,0,1,546.46,11h0a3.51,3.51,0,0,1,1.85,4.59h0a3.5,3.5,0,0,1-3.22,2.13h0A3.5,3.5,0,0,1,543.72,17.46ZM256.49,12A3.5,3.5,0,0,1,254,7.78h0a3.5,3.5,0,0,1,4.26-2.52h0a3.5,3.5,0,0,1,2.52,4.26h0a3.49,3.49,0,0,1-3.38,2.63h0A3.24,3.24,0,0,1,256.49,12Zm200-4A3.49,3.49,0,0,1,459,3.86h0a3.5,3.5,0,0,1,4.22,2.58h0a3.5,3.5,0,0,1-2.58,4.22h0a3.37,3.37,0,0,1-.83.1h0A3.49,3.49,0,0,1,456.47,8.08ZM196.4,7.21a3.5,3.5,0,0,1,2.83-4.06h0A3.5,3.5,0,0,1,203.29,6h0A3.5,3.5,0,0,1,200.47,10h0a3.34,3.34,0,0,1-.63,0h0A3.5,3.5,0,0,1,196.4,7.21ZM516.75,9.28A3.5,3.5,0,0,1,514,5.19h0A3.5,3.5,0,0,1,518,2.4h0a3.5,3.5,0,0,1,2.79,4.09h0a3.51,3.51,0,0,1-3.44,2.85h0A3.64,3.64,0,0,1,516.75,9.28ZM228.59,8a3.5,3.5,0,0,1-3.38-3.62h0a3.5,3.5,0,0,1,3.62-3.37h0a3.49,3.49,0,0,1,3.38,3.62h0A3.5,3.5,0,0,1,228.71,8h-.12ZM485.06,3.58A3.5,3.5,0,0,1,488.47,0h0a3.51,3.51,0,0,1,3.59,3.41h0A3.51,3.51,0,0,1,488.64,7h-.08A3.49,3.49,0,0,1,485.06,3.58Z"/></g><circle class="cls-2" cx="356.93" cy="109.96" r="17.5"/><g class="cls-21"><path class="cls-3" d="M356.74,108.22c.87-.6,2-1.36,2-2.64a1.69,1.69,0,0,0-1.93-1.75c-1.08,0-2,.67-2,2.34h-3.68c0-2.92,2-5.15,5.66-5.15,2.94,0,5.57,1.56,5.57,4.55a5,5,0,0,1-2.46,4.07c-1.15.94-1.47,1.33-1.47,2.81h-3.68C354.74,110.47,355.11,109.32,356.74,108.22Zm-.18,4.9a2.36,2.36,0,1,1-2.39,2.34A2.37,2.37,0,0,1,356.56,113.11Z"/></g><path class="cls-13" d="M596.28,248.38c.8,5,3.65,7,7.62,6.53,4.17-.45,5.47,1.12,7.76-3s7.61-9.65,10.64-12.9c-.19,7.37,7,12.11,12.35,9.85s8.92-8.92,11.37-15.57c3.55,12.31,9.12,10.7,17.38,18.23.58.53,1.25,1.07,2,.9s1.17-1,1.55-1.73c4-8.17,4.88-8.61,4.08-18.24a36.81,36.81,0,0,0-3.89-14.06,28.85,28.85,0,0,0-8.28-10c-12.42-10.26-28.24-15-42.1-8.58s-24.88,19.8-22.27,38.68Z"/><circle class="cls-8" cx="629.99" cy="184.28" r="12.6"/><path class="cls-13" d="M598.14,244l3.58,3.63a.83.83,0,0,0,1.18,0h0a21,21,0,0,0,5.79-12.17c1.17-8,10.73-6.46,14-12.6q3-5.71,8.8,1.87a.42.42,0,0,0,.75-.24,10.56,10.56,0,0,1,1.8-5.28c2.27-3.66,6.3-3.86,9.63-1.67s1.83,12.6,10.48,14.1c4.44.77,4.31,10.05,9.42,12.21q1.13.48,3.07-1.71a.42.42,0,0,0,.1-.19q7.41-35.07-10-43.26a43.68,43.68,0,0,0-21.66-7.2,37.1,37.1,0,0,0-25.87,8.62C598,209.54,594.51,226.92,596,234.56q1.4,7.2,1.95,9A.83.83,0,0,0,598.14,244Z"/><path class="cls-2" d="M620.36,195l20.37-.75c1.92-.07,1.93-3.07,0-3l-20.37.75c-1.92.07-1.93,3.07,0,3Z"/><path class="cls-22" d="M37.82,225.67c0,7.57-3.91,13.71-8.73,13.71s-8.73-6.14-8.72-13.71S24.28,212,29.1,212s8.73,6.14,8.73,13.71"/><path class="cls-22" d="M133.41,225.67c0,7.57-3.91,13.71-8.73,13.71S116,233.25,116,225.67,119.87,212,124.69,212s8.73,6.14,8.73,13.71"/><g class="cls-23"><polygon class="cls-24" points="128.27 198.23 45.35 173.51 128.27 173.51 128.27 198.23"/><polygon class="cls-24" points="128.27 199.76 40.24 173.51 45.35 173.51 128.27 198.23 128.27 199.76"/><polygon class="cls-25" points="128.27 201.28 35.13 173.51 40.24 173.51 128.27 199.76 128.27 201.28"/><polygon class="cls-26" points="128.27 202.8 30.02 173.51 35.13 173.51 128.27 201.28 128.27 202.8"/><polygon class="cls-27" points="128.27 204.33 24.91 173.51 30.02 173.51 128.27 202.8 128.27 204.33"/><polygon class="cls-28" points="128.27 205.85 24.08 174.78 24.08 173.51 24.91 173.51 128.27 204.33 128.27 205.85"/><polygon class="cls-29" points="128.27 207.37 24.08 176.3 24.08 174.78 128.27 205.85 128.27 207.37"/><polygon class="cls-30" points="128.27 208.9 24.08 177.83 24.08 176.3 128.27 207.37 128.27 208.9"/><polygon class="cls-31" points="128.27 210.42 24.08 179.35 24.08 177.83 128.27 208.9 128.27 210.42"/><polygon class="cls-32" points="128.27 211.94 24.08 180.87 24.08 179.35 128.27 210.42 128.27 211.94"/><polygon class="cls-33" points="128.27 213.47 24.08 182.4 24.08 180.87 128.27 211.94 128.27 213.47"/><polygon class="cls-34" points="128.27 214.99 24.08 183.92 24.08 182.4 128.27 213.47 128.27 214.99"/><polygon class="cls-35" points="128.27 216.51 24.08 185.44 24.08 183.92 128.27 214.99 128.27 216.51"/><polygon class="cls-35" points="24.08 185.44 128.27 216.51 128.27 276.63 24.08 276.63 24.08 185.44"/></g><path class="cls-35" d="M128.27,225.07c0-28.48-23.33-51.56-52.1-51.56a52.14,52.14,0,0,0-47.39,30.11,51.21,51.21,0,0,0-.61,41.53,52.41,52.41,0,0,0,75.1,24,51.42,51.42,0,0,0,25-44Z"/><path class="cls-3" d="M90,228.21l.27,3.23a4.44,4.44,0,1,1-8.85.74l.1-3.68s.26-4.06,3.68-4.35S89.8,225.76,90,228.21Z"/><path class="cls-3" d="M85.85,236.64A4.84,4.84,0,0,1,81,232.21l.1-3.72c0-.06.33-4.41,4-4.72a4.7,4.7,0,0,1,3.87,1.12,5,5,0,0,1,1.34,3.29l.27,3.23a4.83,4.83,0,0,1-4.41,5.21Zm0-12.12-.59,0c-3,.25-3.31,3.83-3.32,4l-.1,3.67a4,4,0,0,0,8.07-.72l-.27-3.23a4.31,4.31,0,0,0-1.11-2.8A3.66,3.66,0,0,0,85.84,224.51Z"/><path class="cls-36" d="M82.94,230l-.15,2.25a3.08,3.08,0,1,0,6.15.41l-.12-2.55s-.23-2.81-2.61-3A2.75,2.75,0,0,0,82.94,230Z"/><path class="cls-3" d="M68.91,228.41l.27,3.23a4.44,4.44,0,1,1-8.85.74l.1-3.68s.26-4.06,3.68-4.35S68.7,226,68.91,228.41Z"/><path class="cls-3" d="M64.75,236.84a4.83,4.83,0,0,1-4.8-4.43l.1-3.72c0-.06.33-4.41,4-4.72A4.73,4.73,0,0,1,68,225.08a5,5,0,0,1,1.34,3.29l.27,3.23a4.84,4.84,0,0,1-4.41,5.22Zm0-12.13-.59,0c-3,.25-3.32,3.95-3.32,4l-.1,3.67A4.05,4.05,0,0,0,65.09,236a4.06,4.06,0,0,0,3.7-4.37l-.27-3.23a4.3,4.3,0,0,0-1.11-2.8A3.66,3.66,0,0,0,64.74,224.71Z"/><path class="cls-36" d="M61.64,230l-.15,2.25a3.08,3.08,0,1,0,6.15.41l-.12-2.55s-.23-2.81-2.61-3A2.75,2.75,0,0,0,61.64,230Z"/></svg>
