<?xml version="1.0" encoding="UTF-8"?>
<svg xmlns="http://www.w3.org/2000/svg" width="800" height="660" viewBox="0 0 800 660" fill="none">
  <path d="M5.09766 562.781L8.75 573.094L12.3828 562.781H16.2305V577H13.291V573.113L13.584 566.404L9.74609 577H7.73438L3.90625 566.414L4.19922 573.113V577H1.26953V562.781H5.09766ZM24.7266 577C24.5964 576.746 24.502 576.43 24.4434 576.053C23.7598 576.814 22.8711 577.195 21.7773 577.195C20.7422 577.195 19.8828 576.896 19.1992 576.297C18.5221 575.698 18.1836 574.943 18.1836 574.031C18.1836 572.911 18.597 572.052 19.4238 571.453C20.2572 570.854 21.4583 570.551 23.0273 570.545H24.3262V569.939C24.3262 569.451 24.1992 569.061 23.9453 568.768C23.6979 568.475 23.304 568.328 22.7637 568.328C22.2884 568.328 21.9141 568.442 21.6406 568.67C21.3737 568.898 21.2402 569.21 21.2402 569.607H18.418C18.418 568.995 18.6068 568.429 18.9844 567.908C19.362 567.387 19.8958 566.98 20.5859 566.688C21.276 566.388 22.0508 566.238 22.9102 566.238C24.2122 566.238 25.2441 566.567 26.0059 567.225C26.7741 567.876 27.1582 568.794 27.1582 569.979V574.559C27.1647 575.561 27.3047 576.32 27.5781 576.834V577H24.7266ZM22.3926 575.037C22.8092 575.037 23.1934 574.946 23.5449 574.764C23.8965 574.575 24.1569 574.324 24.3262 574.012V572.195H23.2715C21.8587 572.195 21.1068 572.684 21.0156 573.66L21.0059 573.826C21.0059 574.178 21.1296 574.467 21.377 574.695C21.6243 574.923 21.9629 575.037 22.3926 575.037ZM33.3496 569.588L35.127 566.434H38.1445L35.1367 571.609L38.2715 577H35.2441L33.3594 573.68L31.4844 577H28.4473L31.582 571.609L28.584 566.434H31.6113L33.3496 569.588Z" fill="#29264C"></path>
  <path fill-rule="evenodd" clip-rule="evenodd" d="M16.2 231V245H13.04V236.32L10.02 245H7.62003L4.50003 236.32V245H1.34003V231H5.08003L8.82003 240.74L12.52 231H16.2ZM23.8022 242.64C25.1822 242.64 26.1022 241.52 26.1022 240.18C26.1022 238.86 25.1822 237.72 23.8022 237.72C22.4222 237.72 21.5022 238.86 21.5022 240.18C21.5022 241.52 22.4222 242.64 23.8022 242.64ZM26.1022 235.36H29.1622V245H26.1022V243.64C25.6422 244.52 24.4022 245.24 23.1622 245.24C20.3822 245.24 18.4622 243.06 18.4622 240.18C18.4622 237.3 20.3822 235.12 23.1622 235.12C24.4022 235.12 25.6422 235.86 26.1022 236.74V235.36ZM37.6445 240.14L40.9445 245H37.4045L35.8245 242.2L34.2445 245H30.7045L34.0245 240.14L30.7645 235.36H34.3045L35.8245 238.08L37.3445 235.36H40.8845L37.6445 240.14Z" fill="#29264C"></path>
  <path fill-rule="evenodd" clip-rule="evenodd" d="M16.2 62V76H13.04V67.32L10.02 76H7.62003L4.50003 67.32V76H1.34003V62H5.08003L8.82003 71.74L12.52 62H16.2ZM18.6222 63.16C18.6222 62.08 19.4822 61.22 20.5822 61.22C21.7022 61.22 22.5622 62.08 22.5622 63.16C22.5622 64.22 21.7022 65.1 20.5822 65.1C19.4822 65.1 18.6222 64.22 18.6222 63.16ZM19.0622 76V66.36H22.1222V76H19.0622ZM24.9445 76V66.36H28.0045V67.76C28.5445 66.72 29.6645 66.12 31.1645 66.12C32.4045 66.12 33.3445 66.54 33.8645 67.22C34.4645 67.96 34.6245 68.9 34.6245 70.28V76H31.5645V71.06C31.5645 69.68 31.1445 68.72 29.8645 68.72C28.6245 68.72 28.0045 69.68 28.0045 71.16V76H24.9445Z" fill="#29264C"></path>
  <path fill-rule="evenodd" clip-rule="evenodd" d="M16.2 401V415H13.04V406.32L10.02 415H7.62003L4.50003 406.32V415H1.34003V401H5.08003L8.82003 410.74L12.52 401H16.2ZM18.6222 402.16C18.6222 401.08 19.4822 400.22 20.5822 400.22C21.7022 400.22 22.5622 401.08 22.5622 402.16C22.5622 403.22 21.7022 404.1 20.5822 404.1C19.4822 404.1 18.6222 403.22 18.6222 402.16ZM19.0622 415V405.36H22.1222V415H19.0622ZM24.9445 415V405.36H28.0045V406.76C28.5445 405.72 29.6645 405.12 31.1645 405.12C32.4045 405.12 33.3445 405.54 33.8645 406.22C34.4645 406.96 34.6245 407.9 34.6245 409.28V415H31.5645V410.06C31.5645 408.68 31.1445 407.72 29.8645 407.72C28.6245 407.72 28.0045 408.68 28.0045 410.16V415H24.9445Z" fill="#29264C"></path>
  <path d="M304 394V392H224V394H304Z" fill="#E4E3EC"></path>
  <path d="M304 420V418H224V420H304Z" fill="#E4E3EC"></path>
  <path d="M436 50C438.761 50 441 47.7614 441 45C441 42.2386 438.761 40 436 40C433.239 40 431 42.2386 431 45C431 47.7614 433.239 50 436 50Z" stroke="#4844A3" stroke-width="2"></path>
  <path d="M682 214C684.761 214 687 211.761 687 209C687 206.239 684.761 204 682 204C679.239 204 677 206.239 677 209C677 211.761 679.239 214 682 214Z" stroke="#4844A3" stroke-width="2"></path>
  <path d="M434 214C436.761 214 439 211.761 439 209C439 206.239 436.761 204 434 204C431.239 204 429 206.239 429 209C429 211.761 431.239 214 434 214Z" stroke="#4844A3" stroke-width="2"></path>
  <path d="M630 385C632.761 385 635 382.761 635 380C635 377.239 632.761 375 630 375C627.239 375 625 377.239 625 380C625 382.761 627.239 385 630 385Z" stroke="#4844A3" stroke-width="2"></path>
  <path d="M134 385C136.761 385 139 382.761 139 380C139 377.239 136.761 375 134 375C131.239 375 129 377.239 129 380C129 382.761 131.239 385 134 385Z" stroke="#4844A3" stroke-width="2"></path>
  <path d="M134 558C136.761 558 139 555.761 139 553C139 550.239 136.761 548 134 548C131.239 548 129 550.239 129 553C129 555.761 131.239 558 134 558Z" stroke="#4844A3" stroke-width="2"></path>
  <path d="M160 584C162.761 584 165 581.761 165 579C165 576.239 162.761 574 160 574C157.239 574 155 576.239 155 579C155 581.761 157.239 584 160 584Z" stroke="#4844A3" stroke-width="2"></path>
  <path d="M186 610C188.761 610 191 607.761 191 605C191 602.239 188.761 600 186 600C183.239 600 181 602.239 181 605C181 607.761 183.239 610 186 610Z" stroke="#4844A3" stroke-width="2"></path>
  <path d="M486 385C488.761 385 491 382.761 491 380C491 377.239 488.761 375 486 375C483.239 375 481 377.239 481 380C481 382.761 483.239 385 486 385Z" stroke="#4844A3" stroke-width="2"></path>
  <path d="M734 385C736.761 385 739 382.761 739 380C739 377.239 736.761 375 734 375C731.239 375 729 377.239 729 380C729 382.761 731.239 385 734 385Z" stroke="#4844A3" stroke-width="2"></path>
  <path d="M238 385C240.761 385 243 382.761 243 380C243 377.239 240.761 375 238 375C235.239 375 233 377.239 233 380C233 382.761 235.239 385 238 385Z" stroke="#4844A3" stroke-width="2"></path>
  <path d="M238 558C240.761 558 243 555.761 243 553C243 550.239 240.761 548 238 548C235.239 548 233 550.239 233 553C233 555.761 235.239 558 238 558Z" stroke="#4844A3" stroke-width="2"></path>
  <path d="M486 558C488.761 558 491 555.761 491 553C491 550.239 488.761 548 486 548C483.239 548 481 550.239 481 553C481 555.761 483.239 558 486 558Z" stroke="#4844A3" stroke-width="2"></path>
  <path d="M630 558C632.761 558 635 555.761 635 553C635 550.239 632.761 548 630 548C627.239 548 625 550.239 625 553C625 555.761 627.239 558 630 558Z" stroke="#4844A3" stroke-width="2"></path>
  <path d="M382 558C384.761 558 387 555.761 387 553C387 550.239 384.761 548 382 548C379.239 548 377 550.239 377 553C377 555.761 379.239 558 382 558Z" stroke="#4844A3" stroke-width="2"></path>
  <path d="M186 214C188.761 214 191 211.761 191 209C191 206.239 188.761 204 186 204C183.239 204 181 206.239 181 209C181 211.761 183.239 214 186 214Z" stroke="#4844A3" stroke-width="2"></path>
  <path d="M462 102C464.761 102 467 99.7614 467 97C467 94.2386 464.761 92 462 92C459.239 92 457 94.2386 457 97C457 99.7614 459.239 102 462 102Z" stroke="#4844A3" stroke-width="2"></path>
  <path d="M708 266C710.761 266 713 263.761 713 261C713 258.239 710.761 256 708 256C705.239 256 703 258.239 703 261C703 263.761 705.239 266 708 266Z" stroke="#4844A3" stroke-width="2"></path>
  <path d="M734 266C736.761 266 739 263.761 739 261C739 258.239 736.761 256 734 256C731.239 256 729 258.239 729 261C729 263.761 731.239 266 734 266Z" stroke="#4844A3" stroke-width="2"></path>
  <path d="M460 266C462.761 266 465 263.761 465 261C465 258.239 462.761 256 460 256C457.239 256 455 258.239 455 261C455 263.761 457.239 266 460 266Z" stroke="#4844A3" stroke-width="2"></path>
  <path d="M656 437C658.761 437 661 434.761 661 432C661 429.239 658.761 427 656 427C653.239 427 651 429.239 651 432C651 434.761 653.239 437 656 437Z" stroke="#4844A3" stroke-width="2"></path>
  <path d="M682 437C684.761 437 687 434.761 687 432C687 429.239 684.761 427 682 427C679.239 427 677 429.239 677 432C677 434.761 679.239 437 682 437Z" stroke="#4844A3" stroke-width="2"></path>
  <path d="M160 437C162.761 437 165 434.761 165 432C165 429.239 162.761 427 160 427C157.239 427 155 429.239 155 432C155 434.761 157.239 437 160 437Z" stroke="#4844A3" stroke-width="2"></path>
  <path d="M160 411C162.761 411 165 408.761 165 406C165 403.239 162.761 401 160 401C157.239 401 155 403.239 155 406C155 408.761 157.239 411 160 411Z" stroke="#4844A3" stroke-width="2"></path>
  <path d="M160 610C162.761 610 165 607.761 165 605C165 602.239 162.761 600 160 600C157.239 600 155 602.239 155 605C155 607.761 157.239 610 160 610Z" stroke="#4844A3" stroke-width="2"></path>
  <path d="M512 437C514.761 437 517 434.761 517 432C517 429.239 514.761 427 512 427C509.239 427 507 429.239 507 432C507 434.761 509.239 437 512 437Z" stroke="#4844A3" stroke-width="2"></path>
  <path d="M760 437C762.761 437 765 434.761 765 432C765 429.239 762.761 427 760 427C757.239 427 755 429.239 755 432C755 434.761 757.239 437 760 437Z" stroke="#4844A3" stroke-width="2"></path>
  <path d="M786 437C788.761 437 791 434.761 791 432C791 429.239 788.761 427 786 427C783.239 427 781 429.239 781 432C781 434.761 783.239 437 786 437Z" stroke="#4844A3" stroke-width="2"></path>
  <path d="M264 437C266.761 437 269 434.761 269 432C269 429.239 266.761 427 264 427C261.239 427 259 429.239 259 432C259 434.761 261.239 437 264 437Z" stroke="#4844A3" stroke-width="2"></path>
  <path d="M264 411C266.761 411 269 408.761 269 406C269 403.239 266.761 401 264 401C261.239 401 259 403.239 259 406C259 408.761 261.239 411 264 411Z" stroke="#4844A3" stroke-width="2"></path>
  <path d="M264 584C266.761 584 269 581.761 269 579C269 576.239 266.761 574 264 574C261.239 574 259 576.239 259 579C259 581.761 261.239 584 264 584Z" stroke="#4844A3" stroke-width="2"></path>
  <path d="M290 584C292.761 584 295 581.761 295 579C295 576.239 292.761 574 290 574C287.239 574 285 576.239 285 579C285 581.761 287.239 584 290 584Z" stroke="#4844A3" stroke-width="2"></path>
  <path d="M512 584C514.761 584 517 581.761 517 579C517 576.239 514.761 574 512 574C509.239 574 507 576.239 507 579C507 581.761 509.239 584 512 584Z" stroke="#4844A3" stroke-width="2"></path>
  <path d="M538 584C540.761 584 543 581.761 543 579C543 576.239 540.761 574 538 574C535.239 574 533 576.239 533 579C533 581.761 535.239 584 538 584Z" stroke="#4844A3" stroke-width="2"></path>
  <path d="M682 584C684.761 584 687 581.761 687 579C687 576.239 684.761 574 682 574C679.239 574 677 576.239 677 579C677 581.761 679.239 584 682 584Z" stroke="#4844A3" stroke-width="2"></path>
  <path d="M434 584C436.761 584 439 581.761 439 579C439 576.239 436.761 574 434 574C431.239 574 429 576.239 429 579C429 581.761 431.239 584 434 584Z" stroke="#4844A3" stroke-width="2"></path>
  <path d="M264 610C266.761 610 269 607.761 269 605C269 602.239 266.761 600 264 600C261.239 600 259 602.239 259 605C259 607.761 261.239 610 264 610Z" stroke="#4844A3" stroke-width="2"></path>
  <path d="M512 610C514.761 610 517 607.761 517 605C517 602.239 514.761 600 512 600C509.239 600 507 602.239 507 605C507 607.761 509.239 610 512 610Z" stroke="#4844A3" stroke-width="2"></path>
  <path d="M656 610C658.761 610 661 607.761 661 605C661 602.239 658.761 600 656 600C653.239 600 651 602.239 651 605C651 607.761 653.239 610 656 610Z" stroke="#4844A3" stroke-width="2"></path>
  <path d="M408 610C410.761 610 413 607.761 413 605C413 602.239 410.761 600 408 600C405.239 600 403 602.239 403 605C403 607.761 405.239 610 408 610Z" stroke="#4844A3" stroke-width="2"></path>
  <path d="M682 610C684.761 610 687 607.761 687 605C687 602.239 684.761 600 682 600C679.239 600 677 602.239 677 605C677 607.761 679.239 610 682 610Z" stroke="#4844A3" stroke-width="2"></path>
  <path d="M434 610C436.761 610 439 607.761 439 605C439 602.239 436.761 600 434 600C431.239 600 429 602.239 429 605C429 607.761 431.239 610 434 610Z" stroke="#4844A3" stroke-width="2"></path>
  <path d="M212 266C214.761 266 217 263.761 217 261C217 258.239 214.761 256 212 256C209.239 256 207 258.239 207 261C207 263.761 209.239 266 212 266Z" stroke="#4844A3" stroke-width="2"></path>
  <path d="M212 240C214.761 240 217 237.761 217 235C217 232.239 214.761 230 212 230C209.239 230 207 232.239 207 235C207 237.761 209.239 240 212 240Z" stroke="#4844A3" stroke-width="2"></path>
  <path d="M488 50C490.761 50 493 47.7614 493 45C493 42.2386 490.761 40 488 40C485.239 40 483 42.2386 483 45C483 47.7614 485.239 50 488 50Z" stroke="#4844A3" stroke-width="2"></path>
  <path d="M734 214C736.761 214 739 211.761 739 209C739 206.239 736.761 204 734 204C731.239 204 729 206.239 729 209C729 211.761 731.239 214 734 214Z" stroke="#4844A3" stroke-width="2"></path>
  <path d="M486 214C488.761 214 491 211.761 491 209C491 206.239 488.761 204 486 204C483.239 204 481 206.239 481 209C481 211.761 483.239 214 486 214Z" stroke="#4844A3" stroke-width="2"></path>
  <path d="M486 240C488.761 240 491 237.761 491 235C491 232.239 488.761 230 486 230C483.239 230 481 232.239 481 235C481 237.761 483.239 240 486 240Z" stroke="#4844A3" stroke-width="2"></path>
  <path d="M682 385C684.761 385 687 382.761 687 380C687 377.239 684.761 375 682 375C679.239 375 677 377.239 677 380C677 382.761 679.239 385 682 385Z" stroke="#4844A3" stroke-width="2"></path>
  <path d="M186 385C188.761 385 191 382.761 191 380C191 377.239 188.761 375 186 375C183.239 375 181 377.239 181 380C181 382.761 183.239 385 186 385Z" stroke="#4844A3" stroke-width="2"></path>
  <path d="M186 558C188.761 558 191 555.761 191 553C191 550.239 188.761 548 186 548C183.239 548 181 550.239 181 553C181 555.761 183.239 558 186 558Z" stroke="#4844A3" stroke-width="2"></path>
  <path d="M538 385C540.761 385 543 382.761 543 380C543 377.239 540.761 375 538 375C535.239 375 533 377.239 533 380C533 382.761 535.239 385 538 385Z" stroke="#4844A3" stroke-width="2"></path>
  <path d="M538 411C540.761 411 543 408.761 543 406C543 403.239 540.761 401 538 401C535.239 401 533 403.239 533 406C533 408.761 535.239 411 538 411Z" stroke="#4844A3" stroke-width="2"></path>
  <path d="M786 385C788.761 385 791 382.761 791 380C791 377.239 788.761 375 786 375C783.239 375 781 377.239 781 380C781 382.761 783.239 385 786 385Z" stroke="#4844A3" stroke-width="2"></path>
  <path d="M290 385C292.761 385 295 382.761 295 380C295 377.239 292.761 375 290 375C287.239 375 285 377.239 285 380C285 382.761 287.239 385 290 385Z" stroke="#4844A3" stroke-width="2"></path>
  <path d="M290 558C292.761 558 295 555.761 295 553C295 550.239 292.761 548 290 548C287.239 548 285 550.239 285 553C285 555.761 287.239 558 290 558Z" stroke="#4844A3" stroke-width="2"></path>
  <path d="M538 558C540.761 558 543 555.761 543 553C543 550.239 540.761 548 538 548C535.239 548 533 550.239 533 553C533 555.761 535.239 558 538 558Z" stroke="#4844A3" stroke-width="2"></path>
  <path d="M682 558C684.761 558 687 555.761 687 553C687 550.239 684.761 548 682 548C679.239 548 677 550.239 677 553C677 555.761 679.239 558 682 558Z" stroke="#4844A3" stroke-width="2"></path>
  <path d="M434 558C436.761 558 439 555.761 439 553C439 550.239 436.761 548 434 548C431.239 548 429 550.239 429 553C429 555.761 431.239 558 434 558Z" stroke="#4844A3" stroke-width="2"></path>
  <path d="M238 214C240.761 214 243 211.761 243 209C243 206.239 240.761 204 238 204C235.239 204 233 206.239 233 209C233 211.761 235.239 214 238 214Z" stroke="#4844A3" stroke-width="2"></path>
  <path d="M441.548 74.9542L431.757 65.1635L430.452 66.4689L440.243 76.2596L441.548 74.9542Z" fill="#19CA94"></path>
  <path d="M440.243 65.1635L430.452 74.9542L431.757 76.2596L441.548 66.4689L440.243 65.1635Z" fill="#19CA94"></path>
  <path d="M687.548 238.954L677.757 229.163L676.452 230.469L686.243 240.26L687.548 238.954Z" fill="#19CA94"></path>
  <path d="M686.243 229.163L676.452 238.954L677.757 240.26L687.548 230.469L686.243 229.163Z" fill="#19CA94"></path>
  <path d="M687.548 264.954L677.757 255.163L676.452 256.469L686.243 266.26L687.548 264.954Z" fill="#19CA94"></path>
  <path d="M686.243 255.163L676.452 264.954L677.757 266.26L687.548 256.469L686.243 255.163Z" fill="#19CA94"></path>
  <path d="M439.548 238.954L429.757 229.163L428.452 230.469L438.243 240.26L439.548 238.954Z" fill="#19CA94"></path>
  <path d="M438.243 229.163L428.452 238.954L429.757 240.26L439.548 230.469L438.243 229.163Z" fill="#19CA94"></path>
  <path d="M439.548 264.954L429.757 255.163L428.452 256.469L438.243 266.26L439.548 264.954Z" fill="#19CA94"></path>
  <path d="M438.243 255.163L428.452 264.954L429.757 266.26L439.548 256.469L438.243 255.163Z" fill="#19CA94"></path>
  <path d="M635.548 409.954L625.757 400.163L624.452 401.469L634.243 411.26L635.548 409.954Z" fill="#19CA94"></path>
  <path d="M634.243 400.163L624.452 409.954L625.757 411.26L635.548 401.469L634.243 400.163Z" fill="#19CA94"></path>
  <path d="M635.548 435.954L625.757 426.163L624.452 427.469L634.243 437.26L635.548 435.954Z" fill="#19CA94"></path>
  <path d="M634.243 426.163L624.452 435.954L625.757 437.26L635.548 427.469L634.243 426.163Z" fill="#19CA94"></path>
  <path d="M661.548 409.954L651.757 400.163L650.452 401.469L660.243 411.26L661.548 409.954Z" fill="#19CA94"></path>
  <path d="M660.243 400.163L650.452 409.954L651.757 411.26L661.548 401.469L660.243 400.163Z" fill="#19CA94"></path>
  <path d="M139.548 409.954L129.757 400.163L128.452 401.469L138.243 411.26L139.548 409.954Z" fill="#19CA94"></path>
  <path d="M138.243 400.163L128.452 409.954L129.757 411.26L139.548 401.469L138.243 400.163Z" fill="#19CA94"></path>
  <path d="M139.548 435.954L129.757 426.163L128.452 427.469L138.243 437.26L139.548 435.954Z" fill="#19CA94"></path>
  <path d="M138.243 426.163L128.452 435.954L129.757 437.26L139.548 427.469L138.243 426.163Z" fill="#19CA94"></path>
  <path d="M295.548 435.954L285.757 426.163L284.452 427.469L294.243 437.26L295.548 435.954Z" fill="#19CA94"></path>
  <path d="M294.243 426.163L284.452 435.954L285.757 437.26L295.548 427.469L294.243 426.163Z" fill="#19CA94"></path>
  <path d="M139.548 582.954L129.757 573.163L128.452 574.469L138.243 584.26L139.548 582.954Z" fill="#19CA94"></path>
  <path d="M138.243 573.163L128.452 582.954L129.757 584.26L139.548 574.469L138.243 573.163Z" fill="#19CA94"></path>
  <path d="M139.548 608.954L129.757 599.163L128.452 600.469L138.243 610.26L139.548 608.954Z" fill="#19CA94"></path>
  <path d="M138.243 599.163L128.452 608.954L129.757 610.26L139.548 600.469L138.243 599.163Z" fill="#19CA94"></path>
  <path d="M491.548 409.954L481.757 400.163L480.452 401.469L490.243 411.26L491.548 409.954Z" fill="#19CA94"></path>
  <path d="M490.243 400.163L480.452 409.954L481.757 411.26L491.548 401.469L490.243 400.163Z" fill="#19CA94"></path>
  <path d="M739.548 409.954L729.757 400.163L728.452 401.469L738.243 411.26L739.548 409.954Z" fill="#19CA94"></path>
  <path d="M738.243 400.163L728.452 409.954L729.757 411.26L739.548 401.469L738.243 400.163Z" fill="#19CA94"></path>
  <path d="M739.548 435.954L729.757 426.163L728.452 427.469L738.243 437.26L739.548 435.954Z" fill="#19CA94"></path>
  <path d="M738.243 426.163L728.452 435.954L729.757 437.26L739.548 427.469L738.243 426.163Z" fill="#19CA94"></path>
  <path d="M243.548 409.954L233.757 400.163L232.452 401.469L242.243 411.26L243.548 409.954Z" fill="#19CA94"></path>
  <path d="M242.243 400.163L232.452 409.954L233.757 411.26L243.548 401.469L242.243 400.163Z" fill="#19CA94"></path>
  <path d="M243.548 435.954L233.757 426.163L232.452 427.469L242.243 437.26L243.548 435.954Z" fill="#19CA94"></path>
  <path d="M242.243 426.163L232.452 435.954L233.757 437.26L243.548 427.469L242.243 426.163Z" fill="#19CA94"></path>
  <path d="M243.548 582.954L233.757 573.163L232.452 574.469L242.243 584.26L243.548 582.954Z" fill="#19CA94"></path>
  <path d="M242.243 573.163L232.452 582.954L233.757 584.26L243.548 574.469L242.243 573.163Z" fill="#19CA94"></path>
  <path d="M491.548 582.954L481.757 573.163L480.452 574.469L490.243 584.26L491.548 582.954Z" fill="#19CA94"></path>
  <path d="M490.243 573.163L480.452 582.954L481.757 584.26L491.548 574.469L490.243 573.163Z" fill="#19CA94"></path>
  <path d="M491.548 608.954L481.757 599.163L480.452 600.469L490.243 610.26L491.548 608.954Z" fill="#19CA94"></path>
  <path d="M490.243 599.163L480.452 608.954L481.757 610.26L491.548 600.469L490.243 599.163Z" fill="#19CA94"></path>
  <path d="M635.548 582.954L625.757 573.163L624.452 574.469L634.243 584.26L635.548 582.954Z" fill="#19CA94"></path>
  <path d="M634.243 573.163L624.452 582.954L625.757 584.26L635.548 574.469L634.243 573.163Z" fill="#19CA94"></path>
  <path d="M387.548 582.954L377.757 573.163L376.452 574.469L386.243 584.26L387.548 582.954Z" fill="#19CA94"></path>
  <path d="M386.243 573.163L376.452 582.954L377.757 584.26L387.548 574.469L386.243 573.163Z" fill="#19CA94"></path>
  <path d="M191.548 238.954L181.757 229.163L180.452 230.469L190.243 240.26L191.548 238.954Z" fill="#19CA94"></path>
  <path d="M190.243 229.163L180.452 238.954L181.757 240.26L191.548 230.469L190.243 229.163Z" fill="#19CA94"></path>
  <path d="M191.548 264.954L181.757 255.163L180.452 256.469L190.243 266.26L191.548 264.954Z" fill="#19CA94"></path>
  <path d="M190.243 255.163L180.452 264.954L181.757 266.26L191.548 256.469L190.243 255.163Z" fill="#19CA94"></path>
  <path d="M441.548 100.954L431.757 91.1635L430.452 92.4689L440.243 102.26L441.548 100.954Z" fill="#19CA94"></path>
  <path d="M440.243 91.1635L430.452 100.954L431.757 102.26L441.548 92.4689L440.243 91.1635Z" fill="#19CA94"></path>
  <path d="M191.548 409.954L181.757 400.163L180.452 401.469L190.243 411.26L191.548 409.954Z" fill="#19CA94"></path>
  <path d="M190.243 400.163L180.452 409.954L181.757 411.26L191.548 401.469L190.243 400.163Z" fill="#19CA94"></path>
  <path d="M191.548 582.954L181.757 573.163L180.452 574.469L190.243 584.26L191.548 582.954Z" fill="#19CA94"></path>
  <path d="M190.243 573.163L180.452 582.954L181.757 584.26L191.548 574.469L190.243 573.163Z" fill="#19CA94"></path>
  <path d="M543.548 435.954L533.757 426.163L532.452 427.469L542.243 437.26L543.548 435.954Z" fill="#19CA94"></path>
  <path d="M542.243 426.163L532.452 435.954L533.757 437.26L543.548 427.469L542.243 426.163Z" fill="#19CA94"></path>
  <path d="M491.548 435.954L481.757 426.163L480.452 427.469L490.243 437.26L491.548 435.954Z" fill="#19CA94"></path>
  <path d="M490.243 426.163L480.452 435.954L481.757 437.26L491.548 427.469L490.243 426.163Z" fill="#19CA94"></path>
  <path d="M791.548 409.954L781.757 400.163L780.452 401.469L790.243 411.26L791.548 409.954Z" fill="#19CA94"></path>
  <path d="M790.243 400.163L780.452 409.954L781.757 411.26L791.548 401.469L790.243 400.163Z" fill="#19CA94"></path>
  <path d="M661.548 582.954L651.757 573.163L650.452 574.469L660.243 584.26L661.548 582.954Z" fill="#19CA94"></path>
  <path d="M660.243 573.163L650.452 582.954L651.757 584.26L661.548 574.469L660.243 573.163Z" fill="#19CA94"></path>
  <path d="M413.548 582.954L403.757 573.163L402.452 574.469L412.243 584.26L413.548 582.954Z" fill="#19CA94"></path>
  <path d="M412.243 573.163L402.452 582.954L403.757 584.26L413.548 574.469L412.243 573.163Z" fill="#19CA94"></path>
  <path d="M295.548 608.954L285.757 599.163L284.452 600.469L294.243 610.26L295.548 608.954Z" fill="#19CA94"></path>
  <path d="M294.243 599.163L284.452 608.954L285.757 610.26L295.548 600.469L294.243 599.163Z" fill="#19CA94"></path>
  <path d="M243.548 608.954L233.757 599.163L232.452 600.469L242.243 610.26L243.548 608.954Z" fill="#19CA94"></path>
  <path d="M242.243 599.163L232.452 608.954L233.757 610.26L243.548 600.469L242.243 599.163Z" fill="#19CA94"></path>
  <path d="M543.548 608.954L533.757 599.163L532.452 600.469L542.243 610.26L543.548 608.954Z" fill="#19CA94"></path>
  <path d="M542.243 599.163L532.452 608.954L533.757 610.26L543.548 600.469L542.243 599.163Z" fill="#19CA94"></path>
  <path d="M635.548 608.954L625.757 599.163L624.452 600.469L634.243 610.26L635.548 608.954Z" fill="#19CA94"></path>
  <path d="M634.243 599.163L624.452 608.954L625.757 610.26L635.548 600.469L634.243 599.163Z" fill="#19CA94"></path>
  <path d="M387.548 608.954L377.757 599.163L376.452 600.469L386.243 610.26L387.548 608.954Z" fill="#19CA94"></path>
  <path d="M386.243 599.163L376.452 608.954L377.757 610.26L387.548 600.469L386.243 599.163Z" fill="#19CA94"></path>
  <path d="M467.548 48.9542L457.757 39.1635L456.452 40.4689L466.243 50.2596L467.548 48.9542Z" fill="#19CA94"></path>
  <path d="M466.243 39.1635L456.452 48.9542L457.757 50.2596L467.548 40.4689L466.243 39.1635Z" fill="#19CA94"></path>
  <path d="M713.548 212.954L703.757 203.163L702.452 204.469L712.243 214.26L713.548 212.954Z" fill="#19CA94"></path>
  <path d="M712.243 203.163L702.452 212.954L703.757 214.26L713.548 204.469L712.243 203.163Z" fill="#19CA94"></path>
  <path d="M465.548 212.954L455.757 203.163L454.452 204.469L464.243 214.26L465.548 212.954Z" fill="#19CA94"></path>
  <path d="M464.243 203.163L454.452 212.954L455.757 214.26L465.548 204.469L464.243 203.163Z" fill="#19CA94"></path>
  <path d="M661.548 383.954L651.757 374.163L650.452 375.469L660.243 385.26L661.548 383.954Z" fill="#19CA94"></path>
  <path d="M660.243 374.163L650.452 383.954L651.757 385.26L661.548 375.469L660.243 374.163Z" fill="#19CA94"></path>
  <path d="M165.548 383.954L155.757 374.163L154.452 375.469L164.243 385.26L165.548 383.954Z" fill="#19CA94"></path>
  <path d="M164.243 374.163L154.452 383.954L155.757 385.26L165.548 375.469L164.243 374.163Z" fill="#19CA94"></path>
  <path d="M165.548 556.954L155.757 547.163L154.452 548.469L164.243 558.26L165.548 556.954Z" fill="#19CA94"></path>
  <path d="M164.243 547.163L154.452 556.954L155.757 558.26L165.548 548.469L164.243 547.163Z" fill="#19CA94"></path>
  <path d="M517.548 383.954L507.757 374.163L506.452 375.469L516.243 385.26L517.548 383.954Z" fill="#19CA94"></path>
  <path d="M516.243 374.163L506.452 383.954L507.757 385.26L517.548 375.469L516.243 374.163Z" fill="#19CA94"></path>
  <path d="M765.548 383.954L755.757 374.163L754.452 375.469L764.243 385.26L765.548 383.954Z" fill="#19CA94"></path>
  <path d="M764.243 374.163L754.452 383.954L755.757 385.26L765.548 375.469L764.243 374.163Z" fill="#19CA94"></path>
  <path d="M269.548 383.954L259.757 374.163L258.452 375.469L268.243 385.26L269.548 383.954Z" fill="#19CA94"></path>
  <path d="M268.243 374.163L258.452 383.954L259.757 385.26L269.548 375.469L268.243 374.163Z" fill="#19CA94"></path>
  <path d="M269.548 556.954L259.757 547.163L258.452 548.469L268.243 558.26L269.548 556.954Z" fill="#19CA94"></path>
  <path d="M268.243 547.163L258.452 556.954L259.757 558.26L269.548 548.469L268.243 547.163Z" fill="#19CA94"></path>
  <path d="M517.548 556.954L507.757 547.163L506.452 548.469L516.243 558.26L517.548 556.954Z" fill="#19CA94"></path>
  <path d="M516.243 547.163L506.452 556.954L507.757 558.26L517.548 548.469L516.243 547.163Z" fill="#19CA94"></path>
  <path d="M661.548 556.954L651.757 547.163L650.452 548.469L660.243 558.26L661.548 556.954Z" fill="#19CA94"></path>
  <path d="M660.243 547.163L650.452 556.954L651.757 558.26L661.548 548.469L660.243 547.163Z" fill="#19CA94"></path>
  <path d="M413.548 556.954L403.757 547.163L402.452 548.469L412.243 558.26L413.548 556.954Z" fill="#19CA94"></path>
  <path d="M412.243 547.163L402.452 556.954L403.757 558.26L413.548 548.469L412.243 547.163Z" fill="#19CA94"></path>
  <path d="M217.548 212.954L207.757 203.163L206.452 204.469L216.243 214.26L217.548 212.954Z" fill="#19CA94"></path>
  <path d="M216.243 203.163L206.452 212.954L207.757 214.26L217.548 204.469L216.243 203.163Z" fill="#19CA94"></path>
  <path d="M493 32H431C426.582 32 423 35.5817 423 40V102C423 106.418 426.582 110 431 110H493C497.418 110 501 106.418 501 102V40C501 35.5817 497.418 32 493 32Z" stroke="#CDCCE2" stroke-opacity="0.5" stroke-width="2"></path>
  <path d="M739 196H677C672.582 196 669 199.582 669 204V266C669 270.418 672.582 274 677 274H739C743.418 274 747 270.418 747 266V204C747 199.582 743.418 196 739 196Z" stroke="#CDCCE2" stroke-opacity="0.5" stroke-width="2"></path>
  <path d="M491 196H429C424.582 196 421 199.582 421 204V266C421 270.418 424.582 274 429 274H491C495.418 274 499 270.418 499 266V204C499 199.582 495.418 196 491 196Z" stroke="#CDCCE2" stroke-opacity="0.5" stroke-width="2"></path>
  <path d="M687 367H625C620.582 367 617 370.582 617 375V437C617 441.418 620.582 445 625 445H687C691.418 445 695 441.418 695 437V375C695 370.582 691.418 367 687 367Z" stroke="#CDCCE2" stroke-opacity="0.5" stroke-width="2"></path>
  <path d="M191 367H129C124.582 367 121 370.582 121 375V437C121 441.418 124.582 445 129 445H191C195.418 445 199 441.418 199 437V375C199 370.582 195.418 367 191 367Z" stroke="#CDCCE2" stroke-opacity="0.5" stroke-width="2"></path>
  <path d="M191 540H129C124.582 540 121 543.582 121 548V610C121 614.418 124.582 618 129 618H191C195.418 618 199 614.418 199 610V548C199 543.582 195.418 540 191 540Z" stroke="#CDCCE2" stroke-opacity="0.5" stroke-width="2"></path>
  <path d="M543 367H481C476.582 367 473 370.582 473 375V437C473 441.418 476.582 445 481 445H543C547.418 445 551 441.418 551 437V375C551 370.582 547.418 367 543 367Z" stroke="#CDCCE2" stroke-opacity="0.5" stroke-width="2"></path>
  <path d="M791 367H729C724.582 367 721 370.582 721 375V437C721 441.418 724.582 445 729 445H791C795.418 445 799 441.418 799 437V375C799 370.582 795.418 367 791 367Z" stroke="#CDCCE2" stroke-opacity="0.5" stroke-width="2"></path>
  <path d="M295 367H233C228.582 367 225 370.582 225 375V437C225 441.418 228.582 445 233 445H295C299.418 445 303 441.418 303 437V375C303 370.582 299.418 367 295 367Z" stroke="#CDCCE2" stroke-opacity="0.5" stroke-width="2"></path>
  <path d="M295 540H233C228.582 540 225 543.582 225 548V610C225 614.418 228.582 618 233 618H295C299.418 618 303 614.418 303 610V548C303 543.582 299.418 540 295 540Z" stroke="#CDCCE2" stroke-opacity="0.5" stroke-width="2"></path>
  <path d="M543 540H481C476.582 540 473 543.582 473 548V610C473 614.418 476.582 618 481 618H543C547.418 618 551 614.418 551 610V548C551 543.582 547.418 540 543 540Z" stroke="#CDCCE2" stroke-opacity="0.5" stroke-width="2"></path>
  <path d="M687 540H625C620.582 540 617 543.582 617 548V610C617 614.418 620.582 618 625 618H687C691.418 618 695 614.418 695 610V548C695 543.582 691.418 540 687 540Z" stroke="#CDCCE2" stroke-opacity="0.5" stroke-width="2"></path>
  <path d="M439 540H377C372.582 540 369 543.582 369 548V610C369 614.418 372.582 618 377 618H439C443.418 618 447 614.418 447 610V548C447 543.582 443.418 540 439 540Z" stroke="#CDCCE2" stroke-opacity="0.5" stroke-width="2"></path>
  <path d="M243 196H181C176.582 196 173 199.582 173 204V266C173 270.418 176.582 274 181 274H243C247.418 274 251 270.418 251 266V204C251 199.582 247.418 196 243 196Z" stroke="#CDCCE2" stroke-opacity="0.5" stroke-width="2"></path>
  <path d="M450 31H448V111H450V31Z" fill="#E4E3EC"></path>
  <path d="M696 195H694V275H696V195Z" fill="#E4E3EC"></path>
  <path d="M448 195H446V275H448V195Z" fill="#E4E3EC"></path>
  <path d="M644 366H642V446H644V366Z" fill="#E4E3EC"></path>
  <path d="M148 366H146V446H148V366Z" fill="#E4E3EC"></path>
  <path d="M148 539H146V619H148V539Z" fill="#E4E3EC"></path>
  <path d="M500 366H498V446H500V366Z" fill="#E4E3EC"></path>
  <path d="M748 366H746V446H748V366Z" fill="#E4E3EC"></path>
  <path d="M252 366H250V446H252V366Z" fill="#E4E3EC"></path>
  <path d="M252 539H250V619H252V539Z" fill="#E4E3EC"></path>
  <path d="M500 539H498V619H500V539Z" fill="#E4E3EC"></path>
  <path d="M644 539H642V619H644V539Z" fill="#E4E3EC"></path>
  <path d="M396 539H394V619H396V539Z" fill="#E4E3EC"></path>
  <path d="M200 195H198V275H200V195Z" fill="#E4E3EC"></path>
  <path d="M476 31H474V111H476V31Z" fill="#E4E3EC"></path>
  <path d="M722 195H720V275H722V195Z" fill="#E4E3EC"></path>
  <path d="M474 195H472V275H474V195Z" fill="#E4E3EC"></path>
  <path d="M670 366H668V446H670V366Z" fill="#E4E3EC"></path>
  <path d="M174 366H172V446H174V366Z" fill="#E4E3EC"></path>
  <path d="M174 539H172V619H174V539Z" fill="#E4E3EC"></path>
  <path d="M526 366H524V446H526V366Z" fill="#E4E3EC"></path>
  <path d="M774 366H772V446H774V366Z" fill="#E4E3EC"></path>
  <path d="M278 366H276V446H278V366Z" fill="#E4E3EC"></path>
  <path d="M278 539H276V619H278V539Z" fill="#E4E3EC"></path>
  <path d="M526 539H524V619H526V539Z" fill="#E4E3EC"></path>
  <path d="M670 539H668V619H670V539Z" fill="#E4E3EC"></path>
  <path d="M422 539H420V619H422V539Z" fill="#E4E3EC"></path>
  <path d="M226 195H224V275H226V195Z" fill="#E4E3EC"></path>
  <path d="M502 59V57L422 57V59L502 59Z" fill="#E4E3EC"></path>
  <path d="M502 85V83H422V85H502Z" fill="#E4E3EC"></path>
  <path d="M748 223V221H668V223H748Z" fill="#E4E3EC"></path>
  <path d="M748 249V247H668V249H748Z" fill="#E4E3EC"></path>
  <path d="M500 223V221H420V223H500Z" fill="#E4E3EC"></path>
  <path d="M500 249V247H420V249H500Z" fill="#E4E3EC"></path>
  <path d="M696 394V392H616V394H696Z" fill="#E4E3EC"></path>
  <path d="M696 420V418H616V420H696Z" fill="#E4E3EC"></path>
  <path d="M432 385C429.239 385 427 382.761 427 380C427 377.239 429.239 375 432 375C434.761 375 437 377.239 437 380C437 382.761 434.761 385 432 385Z" stroke="#4844A3" stroke-width="2"></path>
  <path d="M432 411C429.239 411 427 408.761 427 406C427 403.239 429.239 401 432 401C434.761 401 437 403.239 437 406C437 408.761 434.761 411 432 411Z" stroke="#4844A3" stroke-width="2"></path>
  <path d="M406 437C403.239 437 401 434.761 401 432C401 429.239 403.239 427 406 427C408.761 427 411 429.239 411 432C411 434.761 408.761 437 406 437Z" stroke="#4844A3" stroke-width="2"></path>
  <path d="M380 385C377.239 385 375 382.761 375 380C375 377.239 377.239 375 380 375C382.761 375 385 377.239 385 380C385 382.761 382.761 385 380 385Z" stroke="#4844A3" stroke-width="2"></path>
  <path d="M400.452 409.954L410.243 400.163L411.548 401.469L401.757 411.26L400.452 409.954Z" fill="#19CA94"></path>
  <path d="M401.757 400.163L411.548 409.954L410.243 411.26L400.452 401.469L401.757 400.163Z" fill="#19CA94"></path>
  <path d="M374.452 409.954L384.243 400.163L385.548 401.469L375.757 411.26L374.452 409.954Z" fill="#19CA94"></path>
  <path d="M375.757 400.163L385.548 409.954L384.243 411.26L374.452 401.469L375.757 400.163Z" fill="#19CA94"></path>
  <path d="M374.452 435.954L384.243 426.163L385.548 427.469L375.757 437.26L374.452 435.954Z" fill="#19CA94"></path>
  <path d="M375.757 426.163L385.548 435.954L384.243 437.26L374.452 427.469L375.757 426.163Z" fill="#19CA94"></path>
  <path d="M400.452 383.954L410.243 374.163L411.548 375.469L401.757 385.26L400.452 383.954Z" fill="#19CA94"></path>
  <path d="M401.757 374.163L411.548 383.954L410.243 385.26L400.452 375.469L401.757 374.163Z" fill="#19CA94"></path>
  <path d="M375 367H437C441.418 367 445 370.582 445 375V437C445 441.418 441.418 445 437 445H375C370.582 445 367 441.418 367 437V375C367 370.582 370.582 367 375 367Z" stroke="#CDCCE2" stroke-opacity="0.5" stroke-width="2"></path>
  <path d="M418 366H420V446H418V366Z" fill="#E4E3EC"></path>
  <path d="M392 366H394V446H392V366Z" fill="#E4E3EC"></path>
  <path d="M366 394V392H446V394H366Z" fill="#E4E3EC"></path>
  <path d="M366 420V418H446V420H366Z" fill="#E4E3EC"></path>
  <path d="M200 394V392H120V394H200Z" fill="#E4E3EC"></path>
  <path d="M200 420V418H120V420H200Z" fill="#E4E3EC"></path>
  <path d="M200 567V565H120V567H200Z" fill="#E4E3EC"></path>
  <path d="M200 593V591H120V593H200Z" fill="#E4E3EC"></path>
  <path d="M552 394V392H472V394H552Z" fill="#E4E3EC"></path>
  <path d="M552 420V418H472V420H552Z" fill="#E4E3EC"></path>
  <path d="M800 394V392H720V394H800Z" fill="#E4E3EC"></path>
  <path d="M800 420V418H720V420H800Z" fill="#E4E3EC"></path>
  <path d="M304 567V565H224V567H304Z" fill="#E4E3EC"></path>
  <path d="M552 567V565H472V567H552Z" fill="#E4E3EC"></path>
  <path d="M696 567V565H616V567H696Z" fill="#E4E3EC"></path>
  <path d="M448 567V565H368V567H448Z" fill="#E4E3EC"></path>
  <path d="M304 593V591H224V593H304Z" fill="#E4E3EC"></path>
  <path d="M552 593V591H472V593H552Z" fill="#E4E3EC"></path>
  <path d="M696 593V591H616V593H696Z" fill="#E4E3EC"></path>
  <path d="M448 593V591H368V593H448Z" fill="#E4E3EC"></path>
  <path d="M786 558C788.761 558 791 555.761 791 553C791 550.239 788.761 548 786 548C783.239 548 781 550.239 781 553C781 555.761 783.239 558 786 558Z" stroke="#4844A3" stroke-width="2"></path>
  <path d="M760 584C762.761 584 765 581.761 765 579C765 576.239 762.761 574 760 574C757.239 574 755 576.239 755 579C755 581.761 757.239 584 760 584Z" stroke="#4844A3" stroke-width="2"></path>
  <path d="M760 610C762.761 610 765 607.761 765 605C765 602.239 762.761 600 760 600C757.239 600 755 602.239 755 605C755 607.761 757.239 610 760 610Z" stroke="#4844A3" stroke-width="2"></path>
  <path d="M786 610C788.761 610 791 607.761 791 605C791 602.239 788.761 600 786 600C783.239 600 781 602.239 781 605C781 607.761 783.239 610 786 610Z" stroke="#4844A3" stroke-width="2"></path>
  <path d="M734 558C736.761 558 739 555.761 739 553C739 550.239 736.761 548 734 548C731.239 548 729 550.239 729 553C729 555.761 731.239 558 734 558Z" stroke="#4844A3" stroke-width="2"></path>
  <path d="M791.548 582.954L781.757 573.163L780.452 574.469L790.243 584.26L791.548 582.954Z" fill="#19CA94"></path>
  <path d="M790.243 573.163L780.452 582.954L781.757 584.26L791.548 574.469L790.243 573.163Z" fill="#19CA94"></path>
  <path d="M739.548 582.954L729.757 573.163L728.452 574.469L738.243 584.26L739.548 582.954Z" fill="#19CA94"></path>
  <path d="M738.243 573.163L728.452 582.954L729.757 584.26L739.548 574.469L738.243 573.163Z" fill="#19CA94"></path>
  <path d="M739.548 608.954L729.757 599.163L728.452 600.469L738.243 610.26L739.548 608.954Z" fill="#19CA94"></path>
  <path d="M738.243 599.163L728.452 608.954L729.757 610.26L739.548 600.469L738.243 599.163Z" fill="#19CA94"></path>
  <path d="M765.548 556.954L755.757 547.163L754.452 548.469L764.243 558.26L765.548 556.954Z" fill="#19CA94"></path>
  <path d="M764.243 547.163L754.452 556.954L755.757 558.26L765.548 548.469L764.243 547.163Z" fill="#19CA94"></path>
  <path d="M791 540H729C724.582 540 721 543.582 721 548V610C721 614.418 724.582 618 729 618H791C795.418 618 799 614.418 799 610V548C799 543.582 795.418 540 791 540Z" stroke="#CDCCE2" stroke-opacity="0.5" stroke-width="2"></path>
  <path d="M774 539H772V619H774V539Z" fill="#E4E3EC"></path>
  <path d="M748 539H746V619H748V539Z" fill="#E4E3EC"></path>
  <path d="M800 567V565H720V567H800Z" fill="#E4E3EC"></path>
  <path d="M800 593V591H720V593H800Z" fill="#E4E3EC"></path>
  <path d="M252 223V221H172V223H252Z" fill="#E4E3EC"></path>
  <path d="M252 249V247H172V249H252Z" fill="#E4E3EC"></path>
  <path d="M264 191L411 114" stroke="#A3A1D1" stroke-width="2" stroke-linecap="round" stroke-linejoin="round" stroke-dasharray="1 5"></path>
  <path d="M658 191L511 114" stroke="#A3A1D1" stroke-width="2" stroke-linecap="round" stroke-linejoin="round" stroke-dasharray="1 5"></path>
  <path d="M461 125V181" stroke="#A3A1D1" stroke-width="2" stroke-linecap="round" stroke-linejoin="round" stroke-dasharray="1 5"></path>
  <path d="M513 460V529" stroke="#A3A1D1" stroke-width="2" stroke-linecap="round" stroke-linejoin="round" stroke-dasharray="1 5"></path>
  <path d="M657 460V529" stroke="#A3A1D1" stroke-width="2" stroke-linecap="round" stroke-linejoin="round" stroke-dasharray="1 5"></path>
  <path d="M409 460V529" stroke="#A3A1D1" stroke-width="2" stroke-linecap="round" stroke-linejoin="round" stroke-dasharray="1 5"></path>
  <path d="M761 460V529" stroke="#A3A1D1" stroke-width="2" stroke-linecap="round" stroke-linejoin="round" stroke-dasharray="1 5"></path>
  <path d="M264 460V529" stroke="#A3A1D1" stroke-width="2" stroke-linecap="round" stroke-linejoin="round" stroke-dasharray="1 5"></path>
  <path d="M160 460V529" stroke="#A3A1D1" stroke-width="2" stroke-linecap="round" stroke-linejoin="round" stroke-dasharray="1 5"></path>
  <path d="M175 288L162 355" stroke="#A3A1D1" stroke-width="2" stroke-linecap="round" stroke-linejoin="round" stroke-dasharray="1 5"></path>
  <path d="M423 288L410 355" stroke="#A3A1D1" stroke-width="2" stroke-linecap="round" stroke-linejoin="round" stroke-dasharray="1 5"></path>
  <path d="M671 288L658 355" stroke="#A3A1D1" stroke-width="2" stroke-linecap="round" stroke-linejoin="round" stroke-dasharray="1 5"></path>
  <path d="M250 288L263 355" stroke="#A3A1D1" stroke-width="2" stroke-linecap="round" stroke-linejoin="round" stroke-dasharray="1 5"></path>
  <path d="M498 288L511 355" stroke="#A3A1D1" stroke-width="2" stroke-linecap="round" stroke-linejoin="round" stroke-dasharray="1 5"></path>
  <path d="M746 288L759 355" stroke="#A3A1D1" stroke-width="2" stroke-linecap="round" stroke-linejoin="round" stroke-dasharray="1 5"></path>
  <path d="M435 613V545H433V613H435Z" fill="#D36BD3"></path>
  <path d="M683 613V545H681V613H683Z" fill="#D36BD3"></path>
  <path d="M795.648 613.234L727.766 545.352L726.352 546.766L794.234 614.648L795.648 613.234Z" fill="#D36BD3"></path>
  <path d="M194.648 613.234L126.766 545.352L125.352 546.766L193.234 614.648L194.648 613.234Z" fill="#D36BD3"></path>
</svg>
